<mxfile host="app.diagrams.net" agent="Mozilla/5.0 (Windows NT 10.0; Win64; x64) AppleWebKit/537.36 (KHTML, like Gecko) Chrome/141.0.0.0 Safari/537.36" version="28.2.7">
  <diagram name="Page-1" id="2cc2d294-239b-7896-41ff-2a8b7c58a8d9">
    <mxGraphModel dx="1884" dy="823" grid="1" gridSize="10" guides="1" tooltips="1" connect="1" arrows="1" fold="1" page="1" pageScale="1" pageWidth="827" pageHeight="1169" math="0" shadow="0">
      <root>
        <mxCell id="0" />
        <mxCell id="1" parent="0" />
        <mxCell id="internet" value="Internet" style="shape=cloud;whiteSpace=wrap;html=1;" parent="1" vertex="1">
          <mxGeometry x="722" y="230" width="80" height="60" as="geometry" />
        </mxCell>
        <mxCell id="box" value="BOX" style="rounded=1;whiteSpace=wrap;html=1;" parent="1" vertex="1">
          <mxGeometry x="710" y="400" width="100" height="40" as="geometry" />
        </mxCell>
        <mxCell id="fortigate" value="Pare-Feu&amp;nbsp;&lt;span style=&quot;color: rgb(0, 0, 0); font-family: Arial, sans-serif; font-size: 13.3333px; text-align: start; background-color: rgb(255, 255, 255);&quot;&gt;Stormshield&lt;/span&gt;" style="shape=rectangle;rounded=1;whiteSpace=wrap;html=1;" parent="1" vertex="1">
          <mxGeometry x="690" y="615" width="120" height="40" as="geometry" />
        </mxCell>
        <mxCell id="core_switch" value="Core Switch Stack" style="shape=switch;whiteSpace=wrap;html=1;" parent="1" vertex="1">
          <mxGeometry x="314" y="605" width="100" height="60" as="geometry" />
        </mxCell>
        <mxCell id="conn1" value="" style="endArrow=classic;html=1;rounded=0;entryX=0.55;entryY=0.95;entryDx=0;entryDy=0;entryPerimeter=0;exitX=0.5;exitY=0;exitDx=0;exitDy=0;" parent="1" source="box" target="internet" edge="1">
          <mxGeometry width="50" height="50" relative="1" as="geometry">
            <mxPoint x="750" y="320" as="sourcePoint" />
            <mxPoint x="790" y="360" as="targetPoint" />
          </mxGeometry>
        </mxCell>
        <mxCell id="conn2" value="" style="endArrow=classic;html=1;rounded=0;entryX=0.583;entryY=0.075;entryDx=0;entryDy=0;entryPerimeter=0;" parent="1" source="box" target="fortigate" edge="1">
          <mxGeometry width="50" height="50" relative="1" as="geometry">
            <mxPoint x="440" y="140" as="sourcePoint" />
            <mxPoint x="440" y="160" as="targetPoint" />
          </mxGeometry>
        </mxCell>
        <mxCell id="conn3" value="" style="endArrow=classic;html=1;rounded=0;" parent="1" source="fortigate" target="core_switch" edge="1">
          <mxGeometry width="50" height="50" relative="1" as="geometry">
            <mxPoint x="440" y="200" as="sourcePoint" />
            <mxPoint x="440" y="240" as="targetPoint" />
          </mxGeometry>
        </mxCell>
        <mxCell id="vlan200" value="Management and core servers (VLAN 200) 172.16.3.0/24" style="swimlane;whiteSpace=wrap;html=1;" parent="1" vertex="1">
          <mxGeometry width="700" height="280" as="geometry" />
        </mxCell>
        <mxCell id="ad_server" value="AD Server 2022&#xa;172.16.3.201" style="shape=rectangle;rounded=1;whiteSpace=wrap;html=1;" parent="vlan200" vertex="1">
          <mxGeometry x="10" y="30" width="100" height="60" as="geometry" />
        </mxCell>
        <mxCell id="glpi_server" value="GLPI Server Debian 12&lt;br&gt;172.16.3.220" style="shape=rectangle;rounded=1;whiteSpace=wrap;html=1;" parent="vlan200" vertex="1">
          <mxGeometry x="560" y="30" width="100" height="60" as="geometry" />
        </mxCell>
        <mxCell id="supervision" value="Supervision Zabbix Debian 12&lt;br&gt;172.16.3.225" style="shape=rectangle;rounded=1;whiteSpace=wrap;html=1;" parent="vlan200" vertex="1">
          <mxGeometry x="290" y="30" width="100" height="60" as="geometry" />
        </mxCell>
        <mxCell id="nI9gcsERnPsX8lZMe_xD-16" value="" style="image;html=1;image=img/lib/clip_art/computers/Virtual_Machine_128x128.png" vertex="1" parent="vlan200">
          <mxGeometry x="20" y="90" width="80" height="80" as="geometry" />
        </mxCell>
        <mxCell id="nI9gcsERnPsX8lZMe_xD-17" value="" style="image;html=1;image=img/lib/clip_art/computers/Virtual_Machine_128x128.png" vertex="1" parent="vlan200">
          <mxGeometry x="300" y="90" width="80" height="80" as="geometry" />
        </mxCell>
        <mxCell id="nI9gcsERnPsX8lZMe_xD-18" value="" style="image;html=1;image=img/lib/clip_art/computers/Virtual_Machine_128x128.png" vertex="1" parent="vlan200">
          <mxGeometry x="570" y="90" width="80" height="80" as="geometry" />
        </mxCell>
        <mxCell id="conn5" value="port2 (FGT) VLAN_SERVER" style="endArrow=classic;html=1;rounded=0;" parent="1" source="nI9gcsERnPsX8lZMe_xD-8" target="nas" edge="1">
          <mxGeometry x="-1" y="348" width="50" height="50" relative="1" as="geometry">
            <mxPoint x="440" y="300" as="sourcePoint" />
            <mxPoint x="160" y="580" as="targetPoint" />
            <mxPoint x="-78" y="-220" as="offset" />
          </mxGeometry>
        </mxCell>
        <mxCell id="backup" value="Server de Sauvegarde&#xa;(VLAN 240)&#xa;172.16.240.200/24" style="shape=rectangle;rounded=1;whiteSpace=wrap;html=1;" parent="1" vertex="1">
          <mxGeometry x="480" y="430" width="120" height="60" as="geometry" />
        </mxCell>
        <mxCell id="conn6" value="port4 VLAN_BACKUP" style="endArrow=classic;html=1;rounded=0;" parent="1" source="core_switch" target="backup" edge="1">
          <mxGeometry x="0.3078" width="50" height="50" relative="1" as="geometry">
            <mxPoint x="440" y="300" as="sourcePoint" />
            <mxPoint x="640" y="580" as="targetPoint" />
            <mxPoint as="offset" />
          </mxGeometry>
        </mxCell>
        <mxCell id="access_switch" value="Access Switch&#xa;192.168.3.0/24" style="shape=switch;whiteSpace=wrap;html=1;" parent="1" vertex="1">
          <mxGeometry x="297" y="780" width="106" height="60" as="geometry" />
        </mxCell>
        <mxCell id="conn7" value="port10 VLAN_PC-USER" style="endArrow=classic;html=1;rounded=0;" parent="1" source="core_switch" target="access_switch" edge="1">
          <mxGeometry x="1" y="262" width="50" height="50" relative="1" as="geometry">
            <mxPoint x="440" y="300" as="sourcePoint" />
            <mxPoint x="150" y="680" as="targetPoint" />
            <mxPoint x="-34" y="109" as="offset" />
          </mxGeometry>
        </mxCell>
        <mxCell id="pc01" value="PC01&#xa;(VLAN 201)" style="shape=rectangle;rounded=1;whiteSpace=wrap;html=1;" parent="1" vertex="1">
          <mxGeometry y="920" width="80" height="40" as="geometry" />
        </mxCell>
        <mxCell id="pc02" value="PC02&#xa;(VLAN 201)" style="shape=rectangle;rounded=1;whiteSpace=wrap;html=1;" parent="1" vertex="1">
          <mxGeometry x="120" y="920" width="80" height="40" as="geometry" />
        </mxCell>
        <mxCell id="pc03" value="PC03&#xa;(VLAN 201)" style="shape=rectangle;rounded=1;whiteSpace=wrap;html=1;" parent="1" vertex="1">
          <mxGeometry x="240" y="920" width="80" height="40" as="geometry" />
        </mxCell>
        <mxCell id="pc04" value="PC04&#xa;(VLAN 201)" style="shape=rectangle;rounded=1;whiteSpace=wrap;html=1;" parent="1" vertex="1">
          <mxGeometry x="360" y="920" width="80" height="40" as="geometry" />
        </mxCell>
        <mxCell id="pc05" value="PC05&#xa;(VLAN 201)" style="shape=rectangle;rounded=1;whiteSpace=wrap;html=1;" parent="1" vertex="1">
          <mxGeometry x="480" y="920" width="80" height="40" as="geometry" />
        </mxCell>
        <mxCell id="conn8" value="" style="endArrow=classic;html=1;rounded=0;" parent="1" source="access_switch" target="pc01" edge="1">
          <mxGeometry width="50" height="50" relative="1" as="geometry">
            <mxPoint x="150" y="740" as="sourcePoint" />
            <mxPoint x="60" y="760" as="targetPoint" />
          </mxGeometry>
        </mxCell>
        <mxCell id="conn9" value="" style="endArrow=classic;html=1;rounded=0;" parent="1" source="access_switch" target="pc02" edge="1">
          <mxGeometry width="50" height="50" relative="1" as="geometry">
            <mxPoint x="150" y="740" as="sourcePoint" />
            <mxPoint x="160" y="760" as="targetPoint" />
          </mxGeometry>
        </mxCell>
        <mxCell id="conn10" value="" style="endArrow=classic;html=1;rounded=0;" parent="1" source="access_switch" target="pc03" edge="1">
          <mxGeometry width="50" height="50" relative="1" as="geometry">
            <mxPoint x="150" y="740" as="sourcePoint" />
            <mxPoint x="260" y="760" as="targetPoint" />
          </mxGeometry>
        </mxCell>
        <mxCell id="conn11" value="" style="endArrow=classic;html=1;rounded=0;" parent="1" source="access_switch" target="pc04" edge="1">
          <mxGeometry width="50" height="50" relative="1" as="geometry">
            <mxPoint x="150" y="740" as="sourcePoint" />
            <mxPoint x="360" y="760" as="targetPoint" />
          </mxGeometry>
        </mxCell>
        <mxCell id="conn12" value="" style="endArrow=classic;html=1;rounded=0;" parent="1" source="access_switch" target="pc05" edge="1">
          <mxGeometry width="50" height="50" relative="1" as="geometry">
            <mxPoint x="150" y="740" as="sourcePoint" />
            <mxPoint x="460" y="760" as="targetPoint" />
          </mxGeometry>
        </mxCell>
        <mxCell id="jkviSvmWvs0kquLqJ89s-1" value="" style="endArrow=classic;html=1;rounded=0;" parent="1" source="nI9gcsERnPsX8lZMe_xD-5" edge="1">
          <mxGeometry width="50" height="50" relative="1" as="geometry">
            <mxPoint x="411" y="620" as="sourcePoint" />
            <mxPoint x="360" y="280" as="targetPoint" />
          </mxGeometry>
        </mxCell>
        <mxCell id="nas" value="NAS Synology&#xa;(VLAN 250)&#xa;172.16.250.250/24" style="shape=rectangle;rounded=1;whiteSpace=wrap;html=1;" parent="1" vertex="1">
          <mxGeometry x="10" y="555" width="120" height="60" as="geometry" />
        </mxCell>
        <mxCell id="nI9gcsERnPsX8lZMe_xD-1" value="" style="endArrow=classic;html=1;rounded=0;entryX=0.5;entryY=0.1;entryDx=0;entryDy=0;entryPerimeter=0;" edge="1" parent="1" source="nI9gcsERnPsX8lZMe_xD-27" target="internet">
          <mxGeometry width="50" height="50" relative="1" as="geometry">
            <mxPoint x="770" y="80" as="sourcePoint" />
            <mxPoint x="770" y="220" as="targetPoint" />
          </mxGeometry>
        </mxCell>
        <mxCell id="vpn" value="VPN Forticient" style="shape=rectangle;rounded=1;whiteSpace=wrap;html=1;" parent="1" vertex="1">
          <mxGeometry x="710" y="100" width="100" height="40" as="geometry" />
        </mxCell>
        <mxCell id="nI9gcsERnPsX8lZMe_xD-4" value="port11 DHCP" style="text;html=1;whiteSpace=wrap;strokeColor=none;fillColor=none;align=center;verticalAlign=middle;rounded=0;" vertex="1" parent="1">
          <mxGeometry x="750" y="480" width="60" height="30" as="geometry" />
        </mxCell>
        <mxCell id="nI9gcsERnPsX8lZMe_xD-6" value="" style="endArrow=classic;html=1;rounded=0;" edge="1" parent="1" source="nI9gcsERnPsX8lZMe_xD-23" target="nI9gcsERnPsX8lZMe_xD-5">
          <mxGeometry width="50" height="50" relative="1" as="geometry">
            <mxPoint x="364" y="555" as="sourcePoint" />
            <mxPoint x="360" y="280" as="targetPoint" />
          </mxGeometry>
        </mxCell>
        <mxCell id="nI9gcsERnPsX8lZMe_xD-5" value="Farm Switch Stack" style="shape=switch;whiteSpace=wrap;html=1;" vertex="1" parent="1">
          <mxGeometry x="314" y="420" width="100" height="60" as="geometry" />
        </mxCell>
        <mxCell id="nI9gcsERnPsX8lZMe_xD-9" value="" style="endArrow=classic;html=1;rounded=0;" edge="1" parent="1" source="core_switch" target="nI9gcsERnPsX8lZMe_xD-8">
          <mxGeometry x="-0.068" y="29" width="50" height="50" relative="1" as="geometry">
            <mxPoint x="314" y="585" as="sourcePoint" />
            <mxPoint x="130" y="585" as="targetPoint" />
            <mxPoint as="offset" />
          </mxGeometry>
        </mxCell>
        <mxCell id="nI9gcsERnPsX8lZMe_xD-8" value="" style="shape=image;verticalLabelPosition=bottom;labelBackgroundColor=default;verticalAlign=top;aspect=fixed;imageAspect=0;image=data:image/png,iVBORw0KGgoAAAANSUhEUgAAAfQAAAH0CAIAAABEtEjdAAAQAElEQVR4Aez9+XscO5LfjWYiM4u1cddCSafP0t2n22P32L73D/ZPfmy3Xy/PHe/7dl977Ndjz+KePvvRWSSROlzFWsiqzMT7CURVMlkLWUUWJZIC9K2oyAAQCASASCSSpEzuk/eA94D3gPfAvfOACXzyHvAe8B7wHrh3HvDB/d4Nqe+Q98Bb9oBv7lZ6wAf3Wzks3ijvAe8B74HrecAH9+v5z9f2HvAe8B64lR7wwf1WDos3arIHvNR7wHtgVg/44D6rp3w57wHvAe+BO+QBH9zv0GB5U70HvAe8B2b1gA/ukz3lpd4D3gPeA3faAz643+nh88Z7D3gPeA9M9oAP7pP94qXeA94D3gPX88A7ru2D+zseAN+894D3gPfATXjAB/eb8KrX6T3gPeA98I494IP7Ox4A37z3wPU94DV4D4x7wAf3cZ94ifeA94D3wJ33gA/ud34IfQe8B7wHvAfGPeCD+7hPvGS6B3yO94D3wB3xgA/ud2SgvJneA94D3gPzeMAH93m85ct6D3gPeA/cEQ/c2uB+R/znzfQe8B7wHriVHvDB/VYOizfKe8B7wHvgeh7wwf16/vO1vQe8B26tB95vw3xwf7/H3/fee8B74J56wAf3ezqwvlveA94D77cHfHB/v8ff934xHvBavAdunQd8cL91Q+IN8h7wHvAeuL4HfHC/vg+9Bu8B7wHvgVvnAR/cb92QXGyQz/Ue8B7wHpjFAz64z+IlX8Z7wHvAe+COecAH9zs2YN5c7wHvAe+BWTwwPbjPUtuX8R7wHvAe8B64lR7wwf1WDos3ynvAe8B74Hoe8MH9ev7ztb0HvAeme8DnvEMP+OD+Dp3vm/Ye8B7wHrgpD/jgflOe9Xq9B7wHvAfeoQd8cH+HzvdNL84DXpP3gPfAeQ/44H7eH/7Ke8B7wHvgXnjAB/d7MYy+E94D3gPeA+c94IP7eX9cfuVLeA94D3gP3AEP+OB+BwbJm+g94D3gPTCvB3xwn9djvrz3gPeA98D1PPBWavvg/lbc7BvxHvAe8B54ux7wwf3t+tu35j3gPeA98FY84IP7W3Gzb8R74N14wLf6/nrAB/f3d+x9z70HvAfusQd8cL/Hg+u75j3gPfD+esAH9/d37Bfbc6/Ne8B74FZ5wAf3WzUc3hjvAe8B74HFeMAH98X40WvxHvAe8B64VR64g8H9VvnPG+M94D3gPXArPeCD+60cFm+U94D3gPfA9Tzgg/v1/Odrew94D9xBD7wPJvvg/j6Msu+j94D3wHvnAR/c37sh9x32HvAeeB884IP7+zDKvo/vzgO+Ze+Bd+QBH9zfkeN9s94D3gPeAzfpAR/cb9K7Xrf3gPeA98A78oAP7u/I8Ytv1mv0HvAe8B4484AP7me+8Jz3gPeA98C98YAP7vdmKH1HvAe8B7wHzjxwleB+Vttz3gPeA94D3gO30gM+uN/KYfFGeQ94D3gPXM8DPrhfz3++tveA98BVPODr3LgHfHC/cRf7BrwHvAe8B96+B3xwf/s+9y16D3gPeA/cuAd8cL9xF/sG3q0HfOveA++nB3xwfz/H3ffae8B74J574NYF97CU7rnvffe8B7wH7qYH8iy/2PAijF1c7EZzb0twn+gLhDfa+QUr9+q8B7wH3gMPnJ6e5ja31hKgJgIfkKuAB8pD4d8abktwp9uKcs+RlC897z3gPeA9cBs8cEFoIguwtU+HCZ57wds3+8aDO3e2uXqVl9JcFX1h7wHvgWt6IA+DCzCv8gtUFVnz6rz35RfYwRsP7oWt3M3GUeTCDHJ53CngRGR5eA94D9xLDxDl72K/LtizkmVIkYldiqIoNCF4+9282eBOP+kSVKL0MGQjKSBya/WSYgIT5nbwsoJnGYEWmkJ55Ln3SPP8RnHTDrxR41F+0/bfb/04sMDFPS2KzchcrK3InVHbeLFCw1tjNAhVKhVDtA5DLksHDedYjWlQYhr0neBmg3u5S4Rshc1tgXKBgsdxuWW8sjRL+2m/d3Ei/97jYg9cP/emHXh9Cy/WcNP230v9Racu9u0N5570e5eiNy0VXXhbDK9SAfHaRIPIyeVE2FIqIttbZgYmvoVWCdmKi9vCcdwULy7jc70HvAduwgMcklyAeVu8QFWRNa9OX352D7y94D67TZTkNhCZKI5inoAuQVKp3Htc4oJrZ9+0A69t4CUKbtr++63/Eufe4uy3Pi5LLummnDAFnGACIeud42aDO16gh9DyfrzYmHP2ouczHMEAig3gMiBAC1xA0Xb/Ie67yY974XNjbrxJy1X3Tdt/v/WrDx2NgnAE4W1Ob31cJJrlNsuyNE37fQ6DepzJ9Pt9AtSMfkLDW8PNBne6YYfvS+HHQfjO8mz0bL3fw1+KXr93CXrvQbrUCdcscNMuvKZ5l1a/afvvt/4L3VvOvGQllos63pF5K00oP0Gkqt/JuPR7hCZtGebi+DYe8d6m5MaDe9EZubO5Oy0SNolQzl6gHt4D3gPeA94DC/fA2wvuE00nvhP0OVtPYs7Phqd7SSUZpsvP04eVKpXKvWXxzY3iph13o8aj/Kbtv9/6ceB0lHMuX4zl0qziBb0Om9ruOxkX+pXQT2mbKEX4mhjZysJ3tbt/q8EdRyjouW7eoVEU6SVZxiVepOI1BfzFcDXuOYmNuVHctPtu1HiU37T991s/DrwIoYmHMMN0UfnSXK2EZiGY1tzQnLf6HcURoUlCe6XCi9RarQZFSPhS5FnOQbzyRDZO56HvBG81uE/sISODa6C4oyjAvQ4Ul54pPJAHwY2iaOiWMPN29paYfUfNGPe2DYJxUOyOdnAGs69bhGhWrVZVCzGNOwFUL98yfTfBXXvLtp3e5nl+cnLy5s2b169f//jjj7u7uz+5xCU3wEtB3bnQOT2ZC92ZU9mMS80uCpRrzcLPbM4VC87lnLdQeN5uzGvSLD6/zWXm9c+85Tsn3XFcoGRe/9+28hd0bWKWzg2yjo+PD10ilHU6HRZ4lma6Q9VwR6x7y5g7uGPuCK5v8Q8//PDtt99+9dVXX3zxxf/t0v/fpX/i07gH/uk/+Sc3ivEW361k3s6+W2vveutj3h4TyOxzn7ve1QXb/8//+T//z//5P/+3//bf/qdLv//97z/7/LOvv/76+++/J2DOGCS5DYAZC19abI7gjolgXCNCwEmTAh77AJecN0GRACQKhNzWOIdBVavV+uabb9itf/fdd//7f//v//Jf/gtR/T/9p//0b/7Nv8FZ/9eF6e+7NF7kH/yDf6BClz8T+e3f++3f+7t/7+/+nb8zDrJmBBoK/N2/83dnxN9xiYq//e1vsbWwnEuELvMcmdGYv4+y3/59tOGNf/QP/yH4x//oH40DOQUoRvkZNb/lYtg2F+Y2D0e/Iyyk2bmcc2nhf/j3/y9QLsZaKlCWT+Pn9v/f++2tqjLeLxbIP2QFsXz+8T/+/w3TH/3RH3Fz+Kf/9J/+s3/2z/7Fv/gX/+pf/StCFhKi1r/9t//2P/7H/0gc+x//43/88R//8fPnz9nUa+ib+KOTmkUwLKASpYXwCswcwV2129yOQI3gpEmhUZtHktPeabvdfrX9am9vj4cXjl9Ug1KOXuj2n7lETP+v//W/4os/+ZM/+X9c+tM//dP/83/+DwUI+rOAOwQ3Sfb+X375Jdt/GC55GkDDCL57/nwEz7/99ptvvwFUoeIIvvzqyxuFNkcTmP35559/9tlnykC/+PILzT1Pv/zqq8uBG8AXn3/++WefsYkAfzkpISebMuwyPqf0F59/cdvwudo1M53T/s99GvOAmwgTHF6IKDBWaSC4dfPn2vOBlUjfWJgslvE1RJj6i7/4CyggF8omlTjGFp74TpT/9//+30OpzhaW05vx+G6nJI2T16FzB/fxxtQ2YncB9uP7B/uvXr3SM3R6BYjmBwcHUMWXX35JGP/v//2/Q/ECvsAjxPTff/7ZV998/d2PP/z46uXL7Vfg1c422L4woZNbCEdeHHgBmN39vde7P22/3hnBzljCtsODQ2q13UkZTxXXwUnvdCIu1nlycsLAA07ruCMKg+D0ZFzVxXqKXFVIj0Cr3T4+btHBcSBvtdqg0+7QKODrVgGT5sK8xs+lnMLtk+5EkDUREwsjnFgYIVkTQdZEjB+Iq2RiYYSaO07JWgjm9f9tKz/uBNZjyyU24MUKOnKJOAMIa/v7+3t7e0SS7e1tzmG++eYbIhsb1v/wH/4DO3qOa9jEskUj9qBpJL4TPzneyLKMIw2yoEjGw+wVJFcP7rwOBUWTRbdh9vb2eB368uVLDtO56f35n/85sZse/rt/9++4iSm4DXI3I/fLL7789ttvKUl5ahGe+mmaZxmaeUjI8jyl29klCY9QkYFhJIiPMFz2er00zS4FzfX6lO1RhZj4ToDBAMuxn+GHYdJ3r2cK3Rng9NR1kE6Ood/rp/0sS3M3v3A737cKTIC5MLfxxZZkRmaaNdOq33D5m1A/Vecwg+9p3Z3b/+i6VRjrWJYRQ+SPDRB5JUwMP7q49AoehvXKyiUAEu65ZEWzlrkLcCTAdp5NPeFuPL5z1MGZR5qmmUtpmnIWQvQjxAOYK2OO4E6TAvdbphrW9ZKOcU/DMLqk3eCuBThmgfJQA/2jP/qjv/W3/tbf/tt/+7e//S38v/7X//pf/st/ydk67x44fHjTOs5svry68uSDZ48ePXqytbX15Al0uZQaK8sFll1accmxy7BrLq2vr6+srYHV1TXQXF0ZwcpYWm4ug2ajCer1xggaM6Ras1Gg3mhMRFEApjGWmk2MGPQC45srK2pStdEYQb0xWf+InN7QEXoEnCoEgqJ2rV4D1Wp1aWkpTpIojk0UORgT3SLMa8vcxpvLUxCZAtP0FwVGmJsuP80/YWQmYpby08oUfaGAmZbIuyqSJGY2VmtVBbxiQb8LlcyiJxpLcRxXKhUsqVartbGEXFFBeyKJy6pLMJubm9wsiJBsW1+8eAHlMINzZhiExPEicKs7aRyGmA6KrCszcwT38TYI7pjIrYnnER5Gnj9/zqMH+3G26pxDCf1zvv+CRxJuXP/rf/0vQjmHMBy/AHbuPMKwUeV2Z6JoXLmXXNMD3IALGGZNHBPBieOKRL8GNE7iAkkS3yLMa8vcxiczpHmNeIvl32JTSeFbGk2mJfKuCuanidg8ElcE8Arkbw3xNVLZJahhzekSZrfOHpedO3tfNu+cSOtZBcGziO/UNYbusomPLUcWgAB/4R/mUuUX0LmDO143RgYApbROdOa8m0MVXib82Z/9Gbt1XhATxxV/8r/+hIBOrziE4mbFcQ27eyg3A55f6Bu3NUBn0KbQP/RswwBGf3siMKEgmC9RHVAHVdACCAsUwgUyavM4nbcJNZJaI/aXNZN7ZRRxH8ZEUQnGRLcJZs40r/GzqC/pDGMzEdOcNrEwwoWVjybv0M2UNHE7j3BK8fPiwg/nxeeuijLzM8SWK8/nd1URFk2D0gAAEABJREFUmyeibA9Bj40skZ0gyTaXDa+GeM7rOeoBBFJOPspVFsLPHdzLrWITARoTie88axDBuSmxc+fRowD3KHKJ4Dyp6N0Mym2KWxagY1A7/H/1VHmWyoG78oQeZabRCZ41IbUcCbkrUED5cUqxSxFcKU1Qix3noYrPy9yVM9SRcNz+wKfb5wF2J/Z8ur6NopPtW87d/PrKLtdQNv/y0r7EPB44Pj5mE0ycJEhytkFIZDfMK0aCJEfzhHVi4Dz6Zi17xeBOEGLrzYEM+3FQnMlgMX2AsjfnfQIzJooiChPZP/jgg6dPnz558uTx48cPHz5cXV/jkB1wks7hlEliawwTOeX9ZpbyUgJIiKSyw7ndwSwXbuMQG/mrLMbxE+gMekaOUCdeqpo44pHKfWLaU9kZRVSAjRIwFBsiiEwBo6kofQGjJRdKL2jtnWTNOpGH5eY1chbnlXWOl5fpya04DNWEcJi01nh5lWjuONU/5GICmfuiNQjyfgqyNJ0IosNE9HvyEn2c9lxiUwVUpb4CDUtJO3I1Ot6juSVmwkp9C0rUAcYl5RdFcTXRkn2wMoR4dvFESLbzxH0iJPHdhAaoz3Xslb8ONVeuTODGMp442JhjJdjf3yegc4au3UAzdkPZp9frdSjvHIjjBHpHeTchL/V4P8g7RoRJEjOqBEhjokpSiUxE3QIR0iHY+xdIpqVZDv6m1S3J5aB6tgM/LaXlSwoG7DRztNagUPlrSoUIBw2hbS2Wqj23h87bu3ktLybSBUxZ57g9nETHg8GKmbdcAoppLZiJ0NxpVCbCUCeLZeFgJYIEQxOsc3NquLhYaIgmwpWLoZIbT07TenT75dIprHTdihaaVl0yxhDiiZCtVovIzkE8l4TQNE1prQh0C2TmDu7czbR5gjtxHEPZqhPWAZeEdSzGVoL18vLy+vr6gwcP6Fqj0WAyIWSaJklCgWGAYqpECIn0zWaTAoDLAtRSfjDVE5mPUn36R2Yfufp1Ib0wc2Dg4GuGolpkUB4DzkNzZ6cDPWMV3GtR5qBgWpnryMcavI6yBdSdV8W89p8fpclXZZ3j9sRJXCGoVxKdqMozT7XWeHmVaO40msRnOqvV4Y+PTGaqC0lqvFLtwsU0mZIqycX1bnGuM127RdhZFFC4sbFBDCS+ETkJkjw7QTmZYGdMtCSQUoashWPu4F5YgE3YR2TnBSkM5hLZOVrCdLqxtrZGWH/06BEnMPDEbt28672BuoUeGIRxLD8FVavVdXqN07KvKVwAvxRQoYS9OC6EMIN7smaUaImdVuScHlRdANU2UBSPJs2dnQ70jFWQm6GGh7GsaVVG5Bd0gayrah1pZGGX8ypS+xm2GZBImdGBmnCtOpVOsCdGjahiiiaJXHANppZ3GY5MUFbI0QDQOb4WFiVBeQHaKlDYMMLEw4Scc9Th1bnv4dwsz9O7wstwnOvMIi6SJGFrS/QjBnIbJvRxOMM5DNGSnTHBneCJkDC4cFw9uGMKVhLTMZFtOyYS2bGSexQ9UbB5567FIfvKykruErVSm+dhQEn4gGPFyDD43DWZsvV6bbnRbFK5VuPIplpZAktJBRSzEKbaqIOleg3ESxUQJYlDHCVxEjuYKEGx24pV4rhAnFQKREnlUiRx5VKUlajyKEoKxPESiJKlAkm8VMKo/shZpXoqcQUor3QprhRIkspVUOpRJamOICnlzsKrtbPTWXSeKzNzHyuVJTCsW/bwRfwslg91VmB0FM7ReCmKKiY+hyhhuCtRUjlXsnRJVgHUjiCOkkg0VuIwsZbFMkAWBCMIw3girOEl1gSUCxuTnKFkfyTGY78ASwokJlGoxMTJODA7jOLZEUeVW4LErcpo0PdKlMyE+LJUqVQ4wGCDqyDEU4PDGQIm+2DiJ4GeYBgSCYeQwLiIz9WDOwaVDSB0E+uhCOsEaTpR43HS/Y4MvYljjpwAm3SlkTEg5kZvCMCGvlFxBBQuYEpJi2mWilED4iQpEMXodg07Ri+hIuVrdsRJfBmS+KzhSfoxbYBEdSVnFVRQpqXMM7WFsFzy+vx4A3PrnN2TrmQ08EQ8IzO3PXFClfF+TZNQeC4k8aimoic6FYvL8ZLTJGUDym5RhWXJxbOraHqBTLn1WXgTn19vbtAnmT0oxuK/hYjjZEYkl6Wid7FLFEcCCyWsEzOhHLtrTFssvWJwJ7KDsimEWqwcEVIACVn0hJkKA9WRNiYqfmKRYgsHbS0ExoSX4tKGzgrozfnseoLyUuaNsOXujDdQzp2FH9fwriRla2e3oVxrFn52zbOXLLd7rtbYbDmXey8uyn2/i/yMg2DomytKWGcvT4iHEtkJ60oJgC5/lCC/Mq4Y3GlPN+kwANO5xGIYLjlOUvDQwaMHWZhMrygALW/dkI+A6h7eA94DxcosGO+Te+CByCUiIWA3XOAmunatmcOuHJsI6ARoXhrAcAmwmDsSgOF1687OztHREZ1x/YoiY0AYGaAPeqaUyFoQ4ohHxDCOQ2HgFdL2PA0EUXQpDH06gzGj+iMzzFUujKIC48rNsPBE5sLMiTVGheP2XUsSzVd7XvuNmfBwM1HIJCzByHNhOAstVZqFnUWlKzPq9wt6bqLCiRxfKowxcSgwMMZobXNWEJGA5TYjys4wqm4GOkORc8rMmIWXSC7JnlfddcvPMgXmLcNbSTa77HHZrVM3ijCSKRISMxk75FDkBbichLllZu4apQq1Wo2QjU3IeLgg1sMDLonsvF89Pj6mV8iJ8vTQuKSrLjJ0EZiIuVs6mDPIFgKD4gmIzLzaTWTmwrj+s+pmLM2pnPrz1hgvj5KFQQ/ZZqdRFM8I49ymhZWfh5qZ07h/LpJEZnx8p0lMZAa4uM+RS8Yl9WRkImBMBCIzyqtEqctU9hJ6PttEqJ4BMxQ5pykyYu3s1Ny6FBkzB6ILkzGG6Ecw5ACDSAgoXgiJiuQS3AExc+G4JLjnofyNlzItW9BsNmvVmtrK+1/6QGTn7kTEpw+URBJVknqzUalV+1l60u/lSIeg8JBd/LcNg4lYfEu3W+NEJyCc12qqTMS8euYtr42WZ6DyV9Oj2sp0mp5ymTI/rfyi5No7KAq1XRi9hPFQn4zTeT0zrkEl0/RortJyGYZmIsplynyluhRGJrX5Se+0l/Z7aepov1yGwFigLJ+XvyS4T1PHDYcs2blXEoI7dx527lBiepIkUKDMysrK6urqcnOZ3XlGT/q9weNhKL+uPeB5RikQ+vT2PGDGDj3eXtvztFTMjoKZp/ZtL6ujMGKlpatOVDDuapRQakaM1px+7XMu9kCAxy8uMcwlNhIGl5aWCJV1l5JKxURRnuX9NO33U/nHBj4vb3qJrIvBBDNtGBYIg7CMKAi1WZtbDowI8QAJlGgOpTPCUMqE3NCCyDQbjWq1xrN4tVqVv1neXGYjD5r1OqDPoFGtgfpSVaA/4U7pSai73Ea9DpqNJhSoENqoN5uNlXpT0IBtNuvLDk5Sd7TRpN4cqKF3LtTG0rnq9Vp9gGqtClR/daFpqVYtMK6YqQaSpQqIuBMn537qKxlLcSUBKuY5rEC8VAEVl1A4I1zxSwiGAfY4QNVO6MX5PuJ0yqhrG416vV5rDFOt2QD1RgNU6zUeItGJBeM9KkviJAFFZwsG4SxQ/VCgzUGnIVlaAoMhc4XoC8BUAAM0F2YEdHVG1FzS6q6RW0GSGRLTr8C04kUBmGllVE4BoLwOq/IDuiTrInG04lKZZ8IrVAitLC0VUN8qZeAUSXUJMPGaqytrG+vLJI2DzaYljFpL/OTUjmhJgFcgWQiuuHPPz/8dRzUlHCbrLFZhrydPHMSxlZWVzY3NTffZ3JQvudqUBDOCQfaIdGNzfV1+kRf/EKPrrFYXqfEVyhXLy/IfXaysLJ+HZiodybr0UmstipabW5TOm9VzJyxedqnBtGguQ0ER8hp1ZsoQTUmUZc5ov27Id+gHzpxlKKi7u8ultDElXVrxhgo0GvMprjfK7r6cn0V/fc50sc7ZlameieWrjbqi1qyfoTG19/VGo1GvQysJdwz58MUWnrDOJgKeaFn8shr8QnBJcOe2AkZa4vZiQzmLH5FPvOycdrMgrzYa65ubj548frj1WBPfoMxzWeBxwY0zkuc+jx49HuLhWHrw8CHgs/mQBDvA4OshOQ/fh7T56OFEPJwzPXj0EFDJ+ZPvAcrKB6LZv2YoWdZf5serPnBpY2MdrK+vFVhbXwOr62uArM3NjfUHG5sPN+kOeCgToTwpBvyDRw8AuZsPBxJ4gLAAlxfgwYNNsLG+DpwJa7NQjJyIWereRBnx3UyGX7nxtctTSffqxtpEnLPxYo1OmyrRSaK80gl6zpcfHR0OnYdg09BYWVYsjyRu9U7CE5ju6KFREvMcEFXiKEnC0qHIxEB6BeElwf0KGkeqsHMPQ8POfXm5ic/XzzlvfW2NrbhQmLVSKkQjDOuEBUNIf/x4a2tL/nowK481NNji87X5YBO6oWRz/cEmaWNzcDnCTJaOFJr3cnMszaJhrNJ1BOUGp+nZ2NwosLm5cRFcwQ2X1l1Jx25sbpSwKWljc/NSzFCkrHdj89zV2eUZt7mBzg1mxgaTZW19fWNtDWZ9uOLOfS+vrq2skzY2NjY3XNrcoPYAyqpkY2MTrG9KgpmIzY3NaXC3GLGEW42Ys7Z2zo77e0E/58Lq6lzFF1yY+QBmt6FcWJ/5CNpAnszqEA6K2aEL2KQPUG/UGyTZtjfq5/52Fht2zrGNifingdid01heXnL4oRgJp3Ndqs65qsxX2BDaw5D+P3v2jEdizsk5Smk06pw1V2vVerWqFKZRqwO5rnI6WK9RotasnUe12gC8nwAVzrqWpBAuazZQ3BD9MHyBxkqzsbJcFzTJOYPIyRJQ7DKc1RO7VxqNlXMShKPAghGctT9sbaXZdKrOtI1UmXo52tqZ7pJdpdqNc2m50QAiKtdrOOdNo0Ob5Xu5wamHMHyYsgUYMFCvMa5ABkXHb5y6YR0Xn5PUa3WgM6Faq4Gli1OFA/h6vdpouPc48tVsLBeJyddcbi4L6HyzRlu1qvvPY0e1MqNASVrVv260VGO+DVHKns6iv1bDHfVGvd7EacscAq1MT2srK2vLy6tAyyzPnOr0tkB9uQ6Ky0lMY5YJxLQcYpbizcZygQunUmM8d3b9DRxZJyDgVxk+PFwGogJl+TivxVRO2AHVpXqB6UMqOeV5UK/WBLU6c7XBMDTqkqAOjtSFNs4F9Fq9VqlUOMDmNWolTqLAGBvk/YyoyubdBXTOvN23I8ivDHPlmjNWDE1IyX6vd3JyUknol4MyUIWTDYmKZqHDGmffUks+ZxLlJlMteTGtiNEXFzmfe/5KastnIC2+EriSvMxezFPxUkzu7d2R4hsw8LzrLZcjOOelUtdc8UqZljLvDDvS2QsuB146544Lil8ha06nzdlCeaSm8bNYUG724vJacnoZzR+jY8bFLkVxBH8mRgEAABAASURBVIykyO3AIyP78DKVazNIyOG0pCHE53mmIEgCa3Nr+eR8uATWJZgr4MaDO13J8qx7ctJqtU6L1Cs4z3gPeA+8xx4gFFyKW+yenqa+++qf/e9X5zly+30h8hkyvYnxOh/+NArxHUwsM6PwxoM7dnCERH+63e7h0TDBgSM+gsNSGpa4/FtqHg1VOOZokMZzriEpV1X9Zck4r2XKtFxm3F7NLZe/ZfzsBh4eHgmOjg6nY3rOWCUncOToHSc1QumNmSKuOxy47mjwfTgDc3S30xW7OEu1q5WZ7s7zOa3WMWi32qDbIbx1O50u/xRduXCscORy3XUsTKfT6ZKIjezLi2jO5WJh8iAYQbkBjlRAWVLm81B+C5TqVhlH4ctloiDkROmk0+0ctw729g52Hfb29vbB/v7BwSHpzfHRcUtxfNwGb960QNmZFBzBIVUPIG8ODt/sHRw5HOwdHOzv7YODvV2wt78LYCZi35WcRA/39wbY2zssYR+j9fLg4MjhYCTRozPsH+3vH2l5pbs/HQh293Z39/b2RNuusLuO3ZuF7h8dXoqDgzcFDvcOS9g/3AMiccYfHRwegP2jgwtwiI8PD44OBK74wdH+0URoScqe4dANUpkevzk8j4M3R/tYdHCwu7//em8P4Bygg7O/uwsO9vYEu4cHQ6g/lf60v19ARv1gr0z39vfAwZ5ocKwweilUu+To/uEboK472sesN4cHgqODwwKH+/sF9g/2L8WeS1oMzYd03s1tmBKODglEg+kOBwYXk78Oj4+GOH7TOcNx6xickxxflMolyzxKhnjTbikO37w5ODredy4apUeH+0MczpmKisJMVH7IZJbhOTwUL705PATHR28KtN60ABG20ybKdLudbrt7hs7pyRlOep2T3klXcNrpgQHfPTkd4qR7UqBzcgL0UguUMk8I0IJWq9NqEbOgeL/tYj30uN1WtDodtrbs2Hn84Gi6f3Kap1lszFJSabda5VDJRju0AQETYW7zkGMbc0H0pdQlQOElJa6ZHcUxVuZ51k/TN5PS4dHRwcEhq0TnsRbBXcroiEI1t0y1gFLcCo5vILXc/XmcTmsKM84wpW5Zm6zG4UKahT9TfkHpUrsXlJqSNa1nTq7Nz2Gwq3WOqIozyli32q12pw26LM0RdEqykayJl+XyY7wKJtYToXy0yIB2urJ+SxYgOHfV7Vx22XXJFevQx3ZLU7vdmgwnbrXaF6FUs8S2JvCTZO1CeMYVojGmEHQ60olOl6+L0O125sE8ZZ1iR8614S6YPK02Pmu3RrzQaiMdYCSLS82FmQ3tsdQqp1JTqnhAKUNFqLsuShFac7buw3MYLheLGw/uvGN2x+45N65xcCuToWGEO9z5il7DtHQCUeBijOv0knMeuPhA81xRvbi4guZqyVmoli/TCbV6Pfdr2GmWjWFMMF5kDknm0uw6VfXs5SeVTNNMfsucHvZcmtD/UdFtvGb7mfb7mXrkAirdpcezo6Qyuzyl2WjbfTw7hHPwOYLZF0CLlguoZB46S23KOJV8g+F5/MWh3BL48/HfMrq40rncGw/uSZyYMOT+xGth+CQREieJ+4rlVXOsb5Dlz6dJMU7o8zxlOaR9si8A9wygvXF+sIMXzzlNDeCUDfjx3JkkvA6eiFIrU/VMrHheOIuacpmpbZ0vlA1byQtuIjPum4nFhsLMpXJTl/DDimdmjLXIoAMdQR3Ne0ktPbRWJyR0wjjqkOXiIEcmFBnIS14tsWc+PhMOKojOCeq0xYup04DtwLp0C0cHuzAzm3RfScvSdDRlWQrK0ixNL0A6lqh+hvSMzco8FykfcvlK5ZMJxZNYDmBuAjce3NudNtMiDMMojiwHSS7QW0Tuo10yhP8w1HivlP0+CKy5ACaMAJpBZAxAzQg4wAIjwrkuOVM6QxjRD72cpgQzzhAZ+aEnR6fepeQX1CrxgE4tFXO85RC5nl5Co7N2zzhMMYkBMAVMNKqvyJrExCYCo1XOlDj9Z5eRGVdiopHqDB+wLo0HIJ0hc9DynBmrFtoAlMWu2SFhWp5HwNZpRHKh/rLmEZ5pY4yJhimOohHozK8kS2CpUhOwBi6D1hrSSpKAeHgZJ/GFSOKzktP4uJLElThKgHGJwboQbo2ESi8seKVME0Yl4FQBU8rg2kmrJ3arZkDj0ZREMShLo7hSwqBeNNRM4RHEcXKGoTdNZDCrmABxQooT+QeBd4gTzvHT055NM+Yk93tmoVQLr3XOXjQKc+PBnTYwOiQomrfRFs15zO4BX9J7wHtg4R4g3BlSZIjy3MPZx05sghu93D24c0TRxALXFF4r4NIHAZvYMGR/M8UUcrIg4OUvu6Y8CHN4R6cUL4spfCnK5W+EdwYH0EDMxp6AxKUC/lJoyVnopaquUKBoN7iq/cFFCYcopJC2FQwaQh7cRNJWplAaLXC1xovqlzLX0S8zalIXyo3OpL9QQmnlC4ZL+EtBsRvCpU1PLDC7MWfVCUITcVbijLuK/mHt8brDnNJ3GBpjXOiOYpjyLt6GgQ0EUjwyQWx4FAlgAknlknJ9vc+1gnu5abbnHOxBiydrLgFlEAKYMpAoiP1lOTw3DOg7BUOo7RcMlwVfMAhvJwoLCwY7C75gEF4JBCCtVzBcFnzBILw2dJIMKHMFDC4mf127wUsUWLZh8+ASdVfLLjxcMKKnGNaCEelb/tg501s27y00R/gCeqeJImI87ISTljwMvv7666+++uprl27CsGsFd7GafgiMTHibD5deZm1mgxR0Op08ywJnOzc0vt3o52zucpsBJFD5CwtBHoYWBGdMYIcJ1WdwFXNH0VMgNHYyxMJ5P9xfc2yjjwDGAQlw7IBwCQYXfJ1vRrpzTlKycGA2deiwtfmCIb5Fp1NfEEwFxSUMlwBmThBWwEglJOCckIc2cCayUxPGTsBZTTiUA5gzoPwc7HUc6WbseQ2ptedw1vJs3DlzrFsXuWvBuhSwTM5Dcy+lQ1XnrWAoQUmGu0BJcJ6lMCjJKHwedtzCCyUlXTOxzgsFcf4proRRyRmdSWmp0LnV58LLOUlpPWroYLEXGKrBRQWGsuG32Dj8qGatrvkqYW+eBbbbOz1ut5Csra81mo2jo6OXL1788R//8f/zP//nt99889W337S7XZqxE24Eqmxueq3gXm7Nyiy255KboJThGzlMGaXiLE5eXBFMz0I55RXlKm+P1/kd4Grw9ppdXEuYXWBxWs80MWQFzqQ3wVmZKMygabAj6SZsKOu8xJwxM8t1F8br/FS6MKXTFBUTCWZamTP5yHBcenlW8z5ydP+CbhHo036/0273++kFxa6cda3gjnFsxrlTcVQ0rRvsxK3sMtJQ7kjMjwJqM5cwUPblZwsnyznRUSFBRJjBPnfChHa5NxiIy/rHeYy/DGqzUimLEvkafrgsMJQt8rtQPpG5fksM0AW4vv5xDeWOkMsltACXBQrhXExRHYaKSmEcdByVOsHcROsqlcrX0696plHRf9mnXFfKYk8ZIhp+yvIyP8yX72lyyZvtc14D5g2rue/zuU4ECackskaBwgKSh0L5Gn64LDCUFd9FxYIpsmZkDDUDtufW5pbzChP20jSMB3GYQDqjmlmKDZTOUvQ6ZayVjbmJAhOFJjLcEkII4wE1FqLKtRhUgbDIgr8XYN7ci37clk7ctD/vuv55x+mm+zunPRIJZ6qiEWMmmlvi6gCy7yxd5hKmaE+L2FJCuECgn4OaKDJxFKO215v8R8TIug7MdSrPWNe5KOt0jiNDrA75EN+DKOIoSpGzqTdhwPlXFAQmVCEUOYEfwCCX2x3vms8juGXJdfY8YSTBeZlcIcyHc6z4loyLPresu3fenNDNx/OUTccQzEbgrrSrjg2V9/Q+eSC3g0UIM94vO0hkDu5/1hXXkspbl6SEdXnWypd1Can7lplmQuQcTchcYnZxaa3wfAI+REmBTkzVfzX6NoI7ltE1qLycsVkOsjzP+PCqSl6VBO7+bF2icwWo4uE98A484Ju8ax4gwlwT2mMXhApyplJzr0ZRV1QkuMEjAcK4ZwVjzuKwFiDr+jhTen1dEzVw/0GuPem7xDsE96cgUqG8SkgzSw/lB+XlmYiSBbQilzAe3gM34QHL5BuFPUu6ut31TbTudd5vDzB9mFz0EQZK4CaOs1mH4ZJpBVWUeWImUPl16M0H9zA0kWslzNOsn2W9ND/NspMs62TZaa9/2u+fmCigt/S/3MPr9MrX9R7wHvAeuCUesGxex0wxspWVnw8kh/gHVUThwg79XNhVrQuk1v1NGKcwMiaOw2q1miSVWrVaWTIm6YfJaVTphdFpPz9pdY9/2ts9ODrKbS5n667WCCHogxGhXtqcA6wC1uaTYDM7CXIcxInQGFSJ6lfKzXYEKh9SjuEugJRSnUNrxUiRBgMShjoQ2MlRlSAIpv0IygUNFVkDtTN/SUVrz9pVfjq1cybRPF2b5AaDn3cSSy7jy93Cb6AsKfOzaBsvU9aAciCScpflms/YzJk2o87JqXgGlIOz63Ircow58YfKzxWa4WKiEiaY2n/WOBzGGE6ACwSBSC6jVJyIcd/OIimpKkWSkrRgZ9E2XkaqD7ym0WNwIV+Sd/bRumfXgY0cJL6FQQw0j/ULlBctww+S3LooDueAN0MrPuUKJgwCaBDwwlGE5MIjASYgKISaEF4B5gp15qrCyTrl6/Wlp0+3nj57svXk8YOHa2vr9aVqYKLUGEJYELhJJlN50i0u8Ml7wHvAe+DOemAkvpf7wZ6Py+LG4PgQuhDceHDnhD1Ns5WVlV/84ue/+vTTTz7++NmzZ4+3HiOpVCqGIxsz6AxvWC19tRPSQrrqlXgPjHtgwmybIhqv6yXeAxd7QKcSZWCgBHHdiQt1PySDUKEFlJfccBAVVXIJnZJ948Edo/M8r9XqxPQPPvjgydOnDx8+3FjfgLr4nhDe3WP44PiJ8D7FVC++QQ9Ym6t265LynnoPeA9c3wMsqYlKiHV5zknsuXObiSWvJrzx4I5Zy8vNJIl7vV4ov69koyiq1WsmNFEcLS0ljUaVGxrFFNZwRnPJ+auW9HQhHrCWp8ZBZF+IQq/Ee+D2eMBOSeFMyRCahjiroFLto0qVn5dam7P2rPucqxuGQYFzGfNdvI3g3u/lnc7p0dHR9s7OT7s/HR4evnnzpnvSTd1fVAjDt2HDfF55/0rbYXr/uu57PLsHfMlFemC45iS6L1LvUNcVAysROQxDlITcxRwjfMEgNJKLEJycnOzs7Hz2+ee/+91ffP7FZ99+++0P3/+wt7t3cHjQah+fnnYp41F4IHSpuPSM94D3wP3zAKu83Kk8HBxXiJDYWUCur/i5YnCnNRPSPt8Cnizky33gw3CQxa0pqVROT09//PHHP/3TP/3i86+/+vL5829//OH7ne3t/b2fjo4O28fHBPerm+HavCLB1Im4orpbXM26ft5iA71p3gPviwdsWhllAAAQAElEQVTs+R+OvLluzxdVOZoFNpC/hGBMhFmhSzC8MtXtvLU5MiTWSoiPo5hXprVarVFfsVkS5HWTNyLbSMzq6vKTZvVBxdSjIEpMJYkiDuKpWMAEwUQUBW4hI48y3PdMqLbxxKWMUnKVQa7/LzHuUqhcXaf8NamqVaqqlFeqEiij5igtC+BvA65sg50zzduQ+Gjso0omtqxZni7KAyyciZjofCecWByhyxwjs9tpWDnhYJmH55MqsW5HNUKHWZYaeRjwLhUKVK6UGFtAJVejBM/5KhLZtQLGwdBD+kgH4DVyWcs70UGfcxv2+xnxvdGoV5Lq6urmyvLGcnOzUd+oLq3EcWOpQs5qvd5cWlqiQBxFqgRtbwGM8ES8habfchMMCnjLjfrmvAe8B8Y98NZW4tzBXW0lBAN4QrwyykOBCMNhfM/zKGZLzr48NiYyxoQuJUlSSZKlpaVKpZLES0lccWKpVShE1XsIbpbgPey477L3wPvjAcJdubO6hRdalgYBm/oC53Muv7picL9c8bBEFEXydMIZjQm73U6n0wbdbrfXkz9hHMWSKDPS1WHtm//2LXgPeA94D9waDxCROR0pcB27UHV5dQoVCIPwDOyxQ02clsvFYFsurMi5tJwrhcaCwBj27ookjEJrgtzYPLSZ/vkBoYH7Gws20OamWRbaoMC0Ml4ehrgfR4onZDDCULixj7U5MjtM8B7eA/fGA7oKxqmVLefEQ1lbSuUCZ+KydFGOYnEawppTB1PACa5IBov/irXnqYZvRoojyfMMIUwBLj28B7wHvAfukAcWa2oRDGGuo/lawV22hqE7RGePGBZpqs6yrfAFRjqAHAnqoPcMNreX9shSyO2mLy3pC7x9D9hJ6e2b4Vv0HrjUA1MD8aU1F1hgsF542nHcAjV7Vd4D3gPeA++nBzjbscXhfWjtRLiQOySBLcpPc1kWpHmQZQ6uTJ7blBe/jhfC3jQPg8zazIYgyLgIOYSnlPxtyJyD+iiwJgyEwpwhkEQ2yC1qBhth5ctUyl32MeNHcU5yWT3JL7dV5sUmdy2FgoAmlHEysbZgXFPnbq7WJS3v2AFRiVJbNDArY6ckNUQO3NHMc5IC/lZhivFTxdqLcXqjnVJrJjahWeN03MKLJQPlY1+zzoLBaNtz5e2UNLHwbMIxA68omNbaFdWNVdPVN07LBcu5ZXmZn+hBLVCuXvCD8nTPWoJvGAzeMsq4kBeMPrNTpoCqnZ2eCy6zV5un5CB8XFCFTjmElMndKTyMh/eA94D3gPfAlT1wreAuew22pvLljt8dAzfNGm5XRZblwkV0SCGEQQcUXKCH3DsKOn2p5TgEXFrMF3gnHmBoxvFOLPGN3icPEO409NlAnu8X0rVrBfdZLGAlqNEjhYedmbqvL0d/lIxUv7WXhO8Ct9bIGQzzRbwHvAfengc0SBL0wnxxwb040IGZpSsUKzBLeS2ztLRUb9TzvG8DOYu3ER3IgzDP8izNesRu+gZMxIOA3G+QAK2rlEtBHlpO662RU/iAkkDzbyMtojzMbbTP2xQEMqnm+dx1nzEVCxBKJqIoAHPX+3tX7I+CkFgGGJHQBgWuYz/arlP98rrE6zTL3rx58/r1dq9/0uudQPu9kzxPM5D1+33yexLUhy8dAonag1XH9FJc3tLtKGGt2iv0dljkrfAe8B647R4IwxATCR65zWEWgrmDO/vmAuMWuPgsVo5licVJzL8oSSIThVneT/v9k/5Jmp6epv3TrK9qwzAKQzRgWIExZV7gPeA94D1wjzxgw8CaENAn4bl04PLKIIBeua7bXOdWU5ZL+EZXGIYqGdDcxlG0srLy6PGDldUmzMoKtJllbNlPsyzrpX2OZlIJ9X2qD2pZC+/hPeA9cL89QPyYiPvd6/He4QSrp+3mWjG5rPmcotDKWU85W3fTZUkYhGcIw5DzFCgBXayzXEbGGG5AAwR5nnMys7y8/MnHn/zmN7/59NOff/D06YPNtY9/8fHyatNatu9pavM0zxzVO4RYlVs6a13TXBZwgmsQVXt96qyboOYapvmq3gNze4AVNw7VMmF2Wst6LTBeUSVFARhVNTud2OgFwtk1X1jyHWRal7RhK7Hqgl6eZWl5pQxGILt1Fy+H21miKfICWvJqlKB5tYpSizgOjImgdE9EQRCGhq5IZ621eZhllrOYhw8ffvjhh9BHjx48fLT56NEjt4VfIeiznc/zfpbnuXyC3PK62KIh8Ml7wHvgvnvATkn3vd+j/VM3IOX+Cl0IZgrueXj2Z4XLrcYJcTtJkhhG5dx2MI4bPhSJlShtTWSWlpaazeaTJ4+3nmxBHz9+pLXiSiVKYkpyPiPhnVtBELBdVyD38B7wHvAeuPceyIiVYRCYMAhAUKRpsbcocAEzU3CfVp/DdPbsBHSYchkkXLrAbuGzNDs5OTluHe28Jm2/fr29u7sjPzbT6/X6PdLSUi2X6E4HbRDqyQwKpsK6pNns8YHynnoP3LQHvH7vgRv1wLnQfr2WOPIJ9KgdegVVBNY0y1rtdrluGA7uGQThXveEo5a91z/9+f/+0//x3/4r9Isvv/ju++9++OEHIn231el1e62WVDdhyK3CGBPFYWUpWqomhU6yhjyawfBKvrksINf+4z0wuwfYfMyF2TXfzpIs2AKy/SouSkyJtbezF/fPKv3lIY3syiu9Tk8Ji9epLj8ww1n5iIrQiJHW5rnNVteWTRQcHO6/ePGCaL5D2t7Z2d5586bFu1QqsrSiKEoqlWq1yukN8T2O4zA8M8yEoo2SBfzkK1zhGe8B7wHvgYkeOIuhE7MvFhKCQxLRNxyNv1S0luieR1FM/unpabvT4gSmTyKo97M0zULqR6ZSqdTrNaiUjEb1UBdVY8DsAmOZ90Pge+E9MIMHrNvpzFDQF7l1HiD+SQzkU9rLLtBKQuQCtZVVcXQOAk7VObeJOZV3cZwgXkmq7M2jyERRZalSY7cexwn5VJbbgZUnQZg0TSNDbB8N9xTz8B7wHvAe8B642APGhsEIyhWMHfy54YIp53LLkejLV1iE4DzgiN3yajSzAVT+sHuaZ3BRsmTiBMoBTBQliakk8gWJq0nFhCbMbf+0T0On3ROQ9VNrqZeh0GHQci7RHyJZ1pI7kPOFMQXQV4AskHPHkLqwnCbp1RkV6Twfd9cdtDatnmvwrImJl+W64ZRULmPnTOW6ZX5ONVOLl3XOwk9VNCVjFp2zlJni2mLezqJjkWWmdPeceFp7ultXqmXKvPTUTO2XKU1crTtOZykzXksnusrPdePCCy1/t6h2qGxzyall503gy7WIdYChgpblql8pWQXKZWbhTRDMUmzeMoR4rVIwcpmmNk0DqP7NdjwiUvcxvM91PydDl5xA4i/TRXlPvQe8B7wHvAfm8sC1jmVkayz7BPkut8r+GBCarTwUaBPydxxTjtr7edojxId5zh2rXGnAa3An7gO3Yef2AMiFFuCyQCGEKYSe8R54LzzAKgPvRVfvXSclbrr4KQy7/FBC4h35e+5WAnoQENwdbJxlJstCqJU4rEI5j6FvJjKRnNKYfnqaU8j1k9EcTlwqAAQjOHcsM5LnL70HvAfekgd8M9fzQBiGKOB4LczlpSP89UGEvb6SsgYUuphOZD8L604SmMjEgROGYRzY2IRRFEQml3uWMULDMKySahzB25CDGqeY+D5ElsshO1E+J9fBuCKeeA94D3gP3GEPREFILAMS3+21fveo8ALaCv7mGFohvsdhkIRBbAjoYURkD+QGII1aa/OcAG6LFBr+CSRbP5zIT4Tmeuo94D3gPXBnPRCGIbbbXP7BLASE3YXoGVGCWqL5GHXb9gBKWAeB4VAepPKi1WYuWZsB2ZUb7l95UAR0aSEvncIrH5wVoGTg0733gO+g98B99IAJrQnzMJANLnSI63SV+Hud6rPX1YaI+HIgE9hKECjj/oSknMGzdecAPadvKFUKUwLRnCsogFGUeZUMKHfAAigFmmGdVHlPvQfukwfc1LaSFndue5/885b7YgfjMTVGTbTHhhPFVxGaq1S6vA79yWVPHSh1FayxeSRh3VYDkEM1xBvOaGRLHvbyoA9jh4lqnMSfg9GuE6tTa0FO+SECaTHMJ9DAp/fFA8O5c1Pf8/pxuMDtjMzs+nOnUsuX+UJiz6dCTmHlZ6EUnhGqTdtU/iao6h+n4WVJjbHDYdDLG6LaSqFcL5UWQhhL5NIdOhcl5MiHKInnZm8ouKsdZSNzibnEes0ROtjFmzAJwyQysYOzx5I1hJTUzzBLrwY0H3zLV5mX36QqJqW6VakUnO3jS3kP3C0P6IQnfMHcLcvvpbV2mN5V71zEvF7jxt0zTRTxXdYkcvnYIEyH6AXmJAhBLwhSuTlJHNfzmYps5zmusYOfqAk4mgdSwAV6Ua3WQsuQDP/xHvAe8B64zR4IQ6IhIEyG2Enk13uwXOtpOwExDDh2J7cAlwUK4YwMUXLGkpOLYaJmYKIybBxUiCSkF2Eupy4S34eR3XQkvpveIOIHufuxGSK4RPkwTILAZBy/E9kFGutV9zujVnp17sngnZniG/Ye8B64Mx4QQ6218uU+YRjyjcSB8C5ZYShC5MCIgO8F4FrBvd1qqQnclNwtSbRZy6tRMZAblSGu8xI4zqs1U1nKwVKtX2tm9eU8MJ3T/lGrs3/cOmh33/T7faeKEG/yPERFt9tzDHyUW2Bzm+XyuoFWaC0OQ4GrdSPE0uAQ2sC4ROV0v4BKPPUe8B64bR5w69cOE4F1gIXbSTRAZ+gSjLYI4wSDOE5oyXMMsConppMB5VICXCAbWxgur4xrVpejbW1b7DYhfKkn7heTTJhmvTQ9iZIsrqRRzFvTVj8/yIN2mr/ppYcnvcOT06PuydHJSaufnmbS4TAMoiSu2GEol6095zPBO0tFp96ZBb5h7wHvgbvpAeK4Gm5CkoTc3CKzkvJBcNcCi6XS0jU1Yq9s0k0EU1bFJcjSfpadLq/Wfvnpx7/+K5/8/JdPPvjZ5taTlcZK2ljJqvU0XjqxYbuXvml3D7rd47Tft3kQhrExSRhEEtaDIs1obc7h1RBF3QUzVkZHx+gcXXAzXp33wGwe8KUmesAO08TctykkGBInR1pEYgwHHFEIJyXkM1Lmypczhssr6w/SLI2i6MmTJ3/zb/71/8//9w//+t/4gz/4zc9//Qcf/eKXzzYeVDc26+vrjXpjqVLhiaTf6/XYueccx7i+mjB0P2OjrU8zFXmBi0tqrqfeA94D3gP33wOExfk6SYUCoQ0IyUpFOLwsa4yjOI4qYRgmSWLkkDy3YZqHpzY+jZZsbnonaSez/dTmeWDipYoxNgxtFAUS1sP83Aack5lRyDtY97PzwuQ5B/Sh20iH1rpvRweq0AaCqydbSlfXcr9qllwyE7uo3s/U2AyFFmbP2XSzbtIN6HX023Iq6VedbH2A8mVKQS6pCi0DCVAJZWYEVeaCsAvPFgAAEABJREFU6r8+ndboNM2XlrccCAQBgUgRlBJZBUrimdii4hhjJ6TclpUSOYGxQViWBgHzpxCQW6AQzsgQk2csecVixsR5HhwevPn6q29fvHj16tXrvb3Dg8M3B/uHnXb39LSfZzbLgjyzkfyouzEmiJIgkJ+uSeV3mgjHioA0Yi2XvICtBJbI7mjgfrSGGwBlA5crjP8s1ANemfeA98Bd8AAR8ObMJPIaIjs4Omx//vnXn/3+26++/PG7b7df/HCw+7rdOs56pyZNozwzeR5FUSWpVEJDlMekPLdZEBQ7dxiEI3DCIrILQ5Qnvjs6CPEjVRZ2aaekhTXgFXkPeA9c2wOWbbDDtTUtRoGzx6KLpy6eIRwdEPlyH3IXghsN7mJhGEQmqJx005c/7n7x2XfffrX9/bf7L747PD6ynWObnkZZL8k5ljcVdu5xxLFMxLbdBn3oGc6ifDCWuIW4aM62nfjOhl3COv0aeRk7Vu9mBLaUyi2UxDK05SzPew94D3gPqAfM4sKD4dBnBNrGgih3oijLwna7f/ymv7/X3fvp5GA/BW8Og047OunEeZasrz1dW31cr6/KrUw6l0tYD9yvsGpYPzuZmdMuAv0I5lRwneLTAnpZPi9/HXvuYl2mxFy4i30s2+x2mXachqyk89BaKlPe03EPhOOOu1AyruHtSAh7xGEozYVBAK8IrpHY4V6j9kxVacJUknp1aWVj7cn62rP1lafrKx+sLT9Zaz5bXdlaXd6yeWTzMCAKs+8OAhtkOWcyBHSN7NJKLgQJEK78SeVOwBl94BiqSBnKc6pTLvaWeFtK5SZL4sXdmssNeN57wHvAe6DkASJv6WpOVrdUxrB74GYzuXKecS6zVF1qNhpr9fp6o7ZZq25UK+tLyXqSrERhIzK1MEzCMApcZA9DYh+huaxNL6EOxG6FFMkDwnrYCwSp49OA+C4IAooFPnkPeA+8xx64I12XzW0YQLGXCGjDQMHllXGt4D5jq9wDKpVKvdog0OeZlU16YLonJ6enp2naBzk7dXuWckvvRnTnLmSrcMgTu0ciO5v3oJSrxT31HvAe8B64Ix7Q+L4QYycEd7bOBS5uQ/fsxG4wrSRZ1manp93j1lGa9bqnrc7Jm87Jodtr6467Z4Nenrs3qEGeE9k5n1GMKtXArZQduoPs2dGTyrZdy0vQz4PJGrTEDVL6W6DcTCGEKcs9f7EHzu75s3EXa7t+7vhpuEqYtxNx/Ra9hvvqAfbmhHIAU+4jEo1x0LJ8Xn5CcJ9XxeTyRFi3iQ4Nkz+TE5JBFCYQAxeLZd/tGFfS2hQ4bVgFHFsQFBZQ4eDSaUA523ZReE2HqGpPvQfm9YAv7z1wuzwwFkPnMY9NKIiiiC281gtDK3E8yMMQQS48YTc8Le/TBzyxWIqFknhJTKQOcuoEcvKOVWU48YC4MhQGIsldExrfHXVqJcd/vAe8B7wHbrEHJPSF8rM7MIEJLQiCLMitzbFaMkyYh0EBhHOBGDpX+QmFxbKSmI06AVeEISY6hJjLqUtugz7I8xQYQ1/CYT0pluVQEfB+Vr6CabYNiskpfNFEkNOoSFzNKxAcWuAK1X2Vq3nADtPVqvta3gOL9YC1BKsBFqv5Ym0SMIlf1kqwtJIoHwYh9MowgQ1GMbOytbW15eVltu0mNJ1O582bN1q1XqvJbQd72cmLnbQRcJUTvzMcJ5fGsN+PQilHMAchBXv9fp5JCdWDVGBCA0pFTciNAUhlLTmdRkEwgullhznWDbBeWZeUvyX0fpjh/CozQbujl0pVolQlEyjzaBK01t2lMqdl0p+b7gjdlLRlqn1UHyjv6bgHzrms7L4pfFlDuW5ZviiekCjDzHCHYRRwgC1/qosBZe/OWYYgCEL+BVdM03bHc6gLSSYsKlhrAwm8SFDuYI2VVwbGmAqIoiSOEjtc19QOAilm89DmLmXyIzWWCz5FuaKBgpFtOxdSVzRYZZBcBbaUrlLf17mSByxz2eFKtX0l74EFe6AUBoYRasEtjKojACrIKFrPbc7lNUFAvKaGgJiNcaolDCOJs8jYL7toa+UXlKI8j22WVJImSOJGZOomXKJwOEwB5blv2TDN5KcjIbmc3kiUV80TKPoHiG1uBpAbSbAIz0xo8D0XFTPvffCDze1EzNh3O0wzlvfF7rEHCHJF72ReMLVsDkFoyCMOmigMYSUaWzLcjpYcClwHom5q/WtloJkzH0fZmFsJ+rFZcqgZt4UPwySQvwbj/jIMYToI8jzMUpulaa/fOz09Na7PQytQBQs9D1sJzoAqbZSSHt4D3gPeA7fdAwTx0IQ3YaUJUDuCUjuhDUZQypyJtTmHLaF196Nev5/lQRRVKkndBEtBXjGmGgZLzcbaysraxvrmgwcP6vV6jTP7miQT0uuQiD8RWWazLLJ5YjNULQU2CQJuIUAMs4OUWjuCQcbIl9QZfspZQ9ld/S73ZRZ+Yj+1YpGll0oL4YyM1oJqeRlgHWaZ44OPZi2WygTM7ex0WutnBqvZjlKYbyiwLsEoym2q5GI6zcKynjJPuwpV6xoXopfjVPKGn/FclQzz5VslN0cHQ+6+yq04wYCU5dN4O8Vx08pPkw+adF/lMgvRz+Qp6wxzd1ptCVsu0rlGKWOHicIm4EBjAC7nAnXnKn+Fwnkgh+M5+/JOt9Xttjsd+e9S06yf53nGV6/X6/dI/X6KpFqtgUpSTWI5t6Fr06H79PisgNv+X8FEX8V7wHvghjzg1V7sAY3rF5e5Wu6NB/c8yKyVn4C0QT+Qn3k/CcyJDbtZ/qafHZ32j7qnb9682e92W2mWphLebZ7Zc/GakK3geKcA5zkIuedJv8tbGXhufBn3EgfJ9p+FeMDiWoeFaLvlSlxHix4LowYLlzM/9WoqtZbdjORal4Tzn/fVA2zGi64zHZhaUGtzGJWzZVdmsfSGg7vbs9sgC+R3R3v1Rlhr2nozbK7Y03TvtH/QPdnvnhy02oet9nHrmB39yekJ2/is1wPEepu7B5dBrJeAHlv3htYi5xzGGkuR4UJarGu8Nu8B74Gb9oA9lwh3g5vixe1at+rL9OLytzmX0M/mvbDQXL5zKMpewtxocNdxyk2Ur2+s/OYPf/WbP/z0b/zNX/7y11ubj6q/+ivP1jfjMGrboBtGp25Tn2dZP8uyFJLmeSY/9MIu3uZhGYGVV6Y2J6wHFke4y0t66bOv5wHdWcgsdOe711N2Y7VvWLEEHplw0ozViyEVERsQ1iieGmCwsvRKC8xChypHWrDjSbVpeeXvB7WDrltSuUd2IJcel+X3gyemM2MA3QmtHLJD4a8D1XYdDRfXzW2QVirx48cbH3689eHHjz78+OGHH2989MnGylq0shYvryYra4nb18sfDwhDy2IwJlawXsbB+nJgrCXoS/PyfMB37g73YTy8B7wH7oYHWMYlWNIsdlNsBLPUet/KXBLcbRiMYB4HqXJibposhSsr9ZXVKqF8ZS0GSSWLK1mylCcVG3BoE+QckVubxkkSuf9sT38OMgxVyfRmJbJL3eklfI73wNv2AHsUxdtu2Ld3Nz0gf0CGCOiMJ+RyCXVXVyeXhc6rax7UDE1mbb/b5Uz9iGP14+NO67h9/Kbd6+W906AP7aWuUy5Ah3lkgijKoygwxsov5AZOPpES1oFkDdpyX5R33zdIvGrvAe+BuT1gh+cqs9e0g5RbO1jX1qXZNdy5knm4MJPNuCbuGAXGc+eU5MbkeXBydHTw5Rdff/77b7764uV33x6++L699zo/2g/bb+I3h708o1CW5XmWpzboczMAuc0k6BO+J0JiOneF1NrsDLkdptBaxVAw/J7Tfl984AHdh47TQfad/WLKTMRwvox+TyxcCHGDeyshC1SZMiX3/YS14qGi73qptBAWjB2kc1WK3PvESJgNAhsEIwGd+xhZI8IrdHxCcL+ClgurmDwzB/tvvvj8+eefff/F73/44vcvvvjs5c7L9uF+r9PKeqdR7zTv9VL5UXc+vZNe/6SfnmZZL88J9ERwonwZ9D2X43UN+uW2kZQvPe894D1wazwwCNqWaDarTdbdFWwpzVrz9pe7eQsvCe7cPUYwzSTd01lLFM65FQ1hgrwa5M0gb6S9StZbSvsOvaV+3wbWxMlSrdao15Zr1ZV6rVGrNUv6h3oI2WUEQ7kwwVmUp0zgk/fAfB7QnfUsdXSGz1I+NPzjbZFgFs3veRnchAeUwswCHYsynaXWbS7DHU8jLUzZTgl2YaBZZfks/CXBfRYVWsYYpn2Y5zl3WT4AxuZIkjyNJcTbagAk1sNUqkvNlZW1jbWHqyubglXog+XmSrVar1QqURybyC0RI0+42sQkSt8niW+lTBziPhdY5/KFFGXk4sJPUbLMFDXKQs9fzQPWTphm1to8ZysjKs8YhMOdqc2tHDUOL6Wc/ww9YF3iKufUli8HgjXf5EDfW1wc7+Zyy8KCOwMTRZHlrChA5xlYFwhPT/vs08M8tqkJUlOJqlnPBpkxQZyYCtSmQXqaZr08TW2eh7xVDYM4CALLXeI8EAKaU8DffjBfQWEnfIER4cglxZBAc/dGAsrlCMgtQJbyMOMwNgDj8vdWEhr2i7KacFruIrUTiITZpW6xzGDmoaOR23CoHFoEJhjrEkJAXTTDIIOen79WL5FPhBowTkXn+Y9W15LKT6G3RYz5asrp6WnB4A7k1WoVymAgR1IU4LIM/AmQUFIBfwuhRkIFOt5QOpaP7MvPbGfOsTYBIqJnuIilih60LQBubMIs4/Wm9Eg+0p/B96QGosAmgURwE5y7H0hZVzUPLFlyeT8+4gv3uaA7Ll9IuQy+5TlGUZaXecqAQiIq3KeQeGaiB1hxKsdblUoSJzGA4VLl0DJfONnaHJ5wD2AoBqxLeqlzGAFyDcFQ+PcNFhfbQVBTz0Q6lQ2eYztoy26hgInM0tKSHVZRdyFX6CWUS6jHBR64bvTExQrjEifgYchA5kGQw0OtJdynuU3t4I8QpIHpuSysMiwQoME9tzILlLc2DIKIEkFwXQudkrtKyr6Nonga8D0l32EnrUtlA5xgQMrym+B15iidV79usamFA3u9PrsTkPZTLhGWQQxCKDChyt1wRC7JU6YKoVImlDLsLiNjomiWA0bqXQXaa+hVKt98HWtzGglD8YZjjMEfMceuAma0CJ0/jStDbhInAIasAnjSodAjTCiJeoKi5F1htDvaAzqgDLNRmFB6d/2O3HjolFA/wUwZ8gliLwqCcJgCl9yViUwUyYevCQjDqeNoS4kQAFTgdC+Y3EV1bCjUbI5W+r1et9M96Z70+r0sSy15AjYrWiSw9oxH5NYkxPDhUsF4KaM0JLBLPg+1Oc5X4XtC7XnvFb0mcJtB0g3cIIfyeDJOYrdz58GIQpExArzqQP5iAt+gyXv9Zdgij6DcX2PllLZMbSlR0hhxN36HF1iijDFWEWhkd5eRGf41mHzwl7+Y6ilb+yFNqAwAABAASURBVCCEYXcPzlQHAZesLl1LojOQLfwEhqbnghg5z+fMptm4ibqxEDlUAT8OshAqhQFsDJMkiWM27EQIcs6BAqydLMuBhbODhJzxigJ5gsL/ioDDvtxyZA/gEUIpphqpMhEDjWNfWrgsnia5WK65SsvayrzmKpVe5lbp8FuuNFepXJfzhrzmlik5uA4JDEpxBTyUcAxjrc15+RMywSNjojA0FEOepVm/30/TPgzvQfIckiEvEEWsCCaqCNARxwl6KGVdEumFH1opUC4oSjHCoSwveKde10shuyIjTgjDcmVrC6MGTDn3Aj4MB3qc4XQiJOHQikswqGu3O2/eHHe63U67c3JykmUZ8RydlGTuswIAlwAJMEYOc7i05++1SK4PdM6FiS1iJHKogE4rmFgmVOXkAlmAQcBiHPgomJCYSRRTTMi+UETdC/MXkGkCIj4IYDhnhw4bDfMALKCJ+6aCWEAAYaJ3Ot0C3Q7T/wwi75JkPch5Qsrt8Nza1hmlrpFJxkdFocwlWM16zynBBQ8QeriVsmGs1qry38QMPxy+E1kIMYQhinEz6Kfs74H8T2FIdK2qEi4pZsxwegey028dH/N6kDtA6BJl3lvgAO07DilwwoPSEPgWObH+6OgIx+b5YEpTsZiuxnCjlQmsqjy9wANnE/GCQhdkid8Nnuf7DMPyKDcMkkNeLIBhbh6we+Qs3rJ/Z+8zgHUSqgyLTfq+s7IzHw25m+uKthCxGoxh819AJZq7qNZtbkFZG5cFyvKb4K1LqtkZcu4mp/ILKLUvyC1nMdG5BxDukzhh62ktc7icH7A54xp5GEoAspp4bAqCCL87IQUWCG0BukCdi1XFjdMhRC0OBOxSdKcCww5GtibcNvOch6HuyUm73Xrz5g1RPiXY9+UJid7hWCoClCgQKnNHKX0JR1IQhgEdDUkL6RTxdyF6vJKFeYCh5UUTe8ZqtSr/52C9prRWr5UhQtlg1ilGYYKN4TDM2pxdorUowSDoEMZIdCHACFRIAesSzHsLHEDfLW7LUo7a2UTyNFSAENPr9dI0w6kU486xMkz1Rp33ggitHdxL8CqX+TDBG5L4W1aZKikKk/tegVjGBCR00Wu8WoCATlRHiKvSLOW8i0fSVqvVJ7JLdJfPe+W0cDCbcMl1IdPuujpmrq8nRxfTmZXdsYKsfKBGwwBj3Lp3lDABokh+6KLX6xNcwlCGxhJOCjDHrVXvcaQeh6YSx7XKEtG9UavLyuGYPZcatEJZpcoIn+vRGKwAORAuOPdaRSWzULoAtGTI2uU8MbfSvKMqUVoIr8k4xQMdrkFVjxUCtUTlys9CpaZ8qCdfolG/GZ4ohgD0IMPDnM9wzMIwVWtVY0wUDw5/KQCstanEJ16D5FiJhDHl1stpD9UtIrfTty7l1l07SkmgEhhgXVLJOHWZA0LhWwvmMFDzcCyvH/ADu/V6rYaf2LPn7ESY0iZaqiw16g0tiZCInqa82pAIz8c6F5DLN5SeO8pVGYgngJLTcKvksq5Zic4mVrecPRHlrZzsOdlViESQq9Tzda7nASa9BgviRZIw7WPiRaNRbzaazWaj0Wh2eLvU4fhxAJYEOxr2lTA8ukLZ+3AbYLMJA7KMiW5ZQkQpNa2Y6W4rmeUspHz0GEHLaPn3iuIo9TzOr1QSQnCtRsyRRyF4xdISRy9JwujEEc4h2ODn/YP97e1XO9s7BwcHWZoZIytIfe48zDFxzkgAqngUHnDzUzyUZRzDFuJzTJIkUcQdk3tiZPEgs1PoYNLCUhqZowMhvMc0D8jUnJZ3o/I8DCbiRht958rZuTiI25m+xFsma57nWZYRONjLdLoS0YnsvFM6j0P2jMet43arBdjad/h0O/xTUB09xJo4iSMj+lkMQIM62x/AyqF1nMCtBeoxzQMMCiMi+8d+SgTnnspBMNH89evXP/3007ffPucfDEfD5OJzbhWoIi7hXvUtGpCUgRyUJe8Vz04cf3LWwj2SjheuiCKZq+ou9jjEdyYwN1XKKCjJNFb+HlMJhryEdD1U3oZBAIKrJ/Hs1Wv7mtf2wHEpvXjx4uWLly9f8v2iNUhEcsHxcYtYf3hwmGZZP017vZ67ExDgO/rzBv1eL8tyw1FBHBNisCsyMrg2tzkBPpdghVBXEcx7DtzCEQo3PNDr9XFmV26SXRKPTC25gba4lRK+wcHh4e7u7vb2DmNzeHi4w759e4ex2NvfIzfPcTt7d1mIYSg+x7cMQe7+ngG8tTxg8/1ew+Y25U6Y8mQj3sBf6g4cBcNJFpRnKS5jvtz5JBKFtZYpDHXILbrsaNKS94BKTF9QNwZzcUHaZlIj9yVZCFKYnoxApPf3w5Skc8xsa3P22sSQXq9HeN/b29/Z2SGsHB4dvd55TZAnmgNiBwiyDORpKsiyXMAUt2Fu5QeOXOzAoxzb5S6gJNWlpXrNxLGJozA2ODwLLBVO+r3M5iHNcz7uakVBCMgqYMupkI4wpTJ051ZhxFIuy+Zp36Eq1H7kcvfLkHBrNO6ldJbJ71gwQIRv7rd7u7vcWbmJZpn8kLvuLvtpn+qosoxCEOBUNESGb2QhPLntThvdWgAJCIcJfgTUBCrUUmiYCM3VkkotbcwGLf/2KU7JUvmH8bgFurq6ury8DEOvrbXcQVutFkwURUnCGyVyuFeqJxlG7qFZnmcUAG/f/ptokYVpw0BxTj/LM3QHG+ekc1+8g+A+t433q4JMWBNGvEeNiCQRl0mS1KrVRqNZb9RXVlbWN9YfPnwIA9ZWV9fX15aWljgFrjd459RIM1YIkPdNPL1SN4pjw4IQZfJhTajDkkqFiohiOaeJaJJVAcgtysC/nyDWmBCXQEJjGAlB2S3caNnO42g8RhyPopjheLD54NGjx4yOgkFJ4gQHUgaqQKMyKpSw5O6jKnxvqTGDUBOZCCfgfyhQnxO54UGeyWG6MawLCetIAJ4EMABmIsjyGPHAwOMj0rdwWdyvuH2Vm1O50rL83vDsPuQMl+Ahv4/XtTavJJV6o7683CR8rK+tPXr06OnTJwlhI4k5f4wimeghIciwEed1U5TExO1KrSp/SM+4hHP6/fT0lL3mKY8CWaYbHAKLTZIEDRrfKaYoApBeXpmyMsGVq7/bisQXgGdAksRQdQs9wqk8H0Grtepyc5kR2dp6/OjR48db/HtM0m+COwNELwYhKZR4hE6AMAzDJEkYbnjAJYDRVmDuEJh+Y6A35zBXd6ip5XGRugu3SBNGfMiiKAqYUH6rUwsXlFxQXN45xlrL4sRsegFgJOIFASdWI/GQywIUmwvXDe7EkeKuO1fDRWEOEwr+PWF4xgecwHCA+9VXX33z7Tc//PDDjz/+yFn7y1cveVPHKQ0xGki0Pj1lC9ntdjifoQpPr/sH+69fv3758tXz58+/+eabr7/++ttvv0WItsPDg4P9g3a7Q10dF6YOa4Y4xSKBt+d3kTrD5nW7TEx3FlFUHJeUs+BpSAF/G4ArAG7BGBgFvAKP1Wvyk0scHfAgZUyEP4+ODjlsZ4C2X7l/29sEJrb2WsVElDIap1SiVB2O8/XyXtJZeocfFNw1cQK3Qy7V7QMqztPITs4Qucwsyk/EoOLwa2KZdy5U6zDD2jxzzyUw0isrzyia6y5ZmQ4QSi8C1wruBB2Cu72SNaENgHYBpoBK7ivFV91ulzd1RPDvvnv+2Wefffvtc6Lzl198Cf3+++9/dIlXqi5SC9nn3Hdvn/K7P/1ETP9pe+f1q23B9vZ3331HlRff/wB+97vfEegpfNo75eVq2k9ZP7iRFqEK+Nza09PTTrcLA5ArhVEUAwGjkhFKeYBQ56VSLgdCFrqDzFdE7h7ANwUU8DNCyyslaAKnmG9BWQn9KqDlL6WUxz+EZmie5zA8+mQ5Wi3aaYgt+qPHjzh+efDgQZLETPVXL199ya34q6++ff4tt2Her+7t7VGFsL66tqp+MOZsQSFRM1CPXnQqEMJAsUFBbgHktwEYpmbQC6D8REpf1GMUs1b6MbFYIbTWRiZKsxQgpBZOgwrMueBO7jikWCjFyAq5CeN9B71EMgLktwFYhRn0vWBy93PJ9ABvkDUC5COSK1yezcW5KmthnvexFcozrUo8vdgDzGj2gJ1OF0pYoXDd/XQ1xzLVao2DXYafuNzry1tWNuCge3JCOKZ8n/ADUknMDErWarX6MHFKIyfskSGbM2JWDqAYTQAKswIHDGPG3HGI3MIy4WC1UGAWoI1FTMkwnKki+gtQ61aBjmRsJvFUzlmWbKYwLwxD3FjAmEiPzprNRtUlXI3DK5WKFmZ08MkAuUWhLe14RHee0RBDAKiycLjBHPj4asoxuIwrKKH6BbXwoQRhOVqUH2OnZJaK34eW43IBcvQI8Jd88ZFBkTz3oUAZ1u1/y5JbyFuXMMz1QE6ZtHMqwS0wACHg/gi/EFwruCcuEdnBQqxBCf2HAvoJfSdwYzEgizUgTftE6igyeK5Wr62urrE3fMQW8dEjTnV5d8o5AHIjSd47sV4pzHEwcYSA4gJLtTZMGxsb68P04OHD5eVl6nFvoAkoMaU8UXAsoDvasThJgGFmGRoJ+ZA1AqQjkpFLtzLP4vt4eSSARgpKd0ba4hKoZpgCVAEqpyOAKVFA5TdBjTG82TiVlxdyl8STuKpaq+LejfWNZrMJAxrNBiMSGUOQIrhz21VkOTZaDMM5RlKE2/NchHQBkMUFdCJ0dJROLDAitC660YRiJHfipZaEFrk59548y7JUGXSCIheGwiMohoncAtbd0qylf4JCTl3mcMyES5KEqVypRCbK8gz/UgZV+IoyCiQogJbhClDwXLzKBwmXc2O2pHKVW8JjFd6lR3QBJ6hVeZ5ZPGQtXZJem7NFpAUWQs856woa4zhmvKJIItEVqr9XVVj8GgXYbRMd1tclOPMSdXm5SWo0msvN5VpN/gtZYyL3ozF1IgjyBtnLy5TkZrC2tqbxfHNzEz2NYeL0gALVai1OYvb4LBtoWvptQObQiLeZXkiYcywOZho8MFwPweU4KBBhHx9HtQBRGLnyI1TbVTqSxeW0WmS9HWAA0N7QIaC9p3VZlhYnWYRMc26pzWUGiC17tcYjU63O7ZHbAK7r9cTfab+fEelLPrfW0nGqo42zMugNgS4otDlanAYKFDZQJYoMYAnnWS5dxWKHokzBOLHN82zAWLmBaa4dVJUttkrGKWUQ0nqEZZH8Kkae5/1+ynaHKG9tjtspUIAZRWEHzHTfjhQFrDMAtTCKIuu2MSxDLCw6PmKe65aQEfn1L+cO7lhZgOZjbkZRVEiUEUuHH8qMgDeoQEsG+eAntQeXQWACY4IQuZYZqTt+qRWvRsvayhrK8kXxbMnZ6OUZm40MpxGX2bP/7Gc/++DZB8TlarXKFKbAgwebH3/8yR/8wV/5+Sc//9Wvfv2rT3/161//6g//xl//q7/5a5/++te/+MUvfvbxR0+ePdt89HB/Q9p1AAAQAElEQVRlbZWYT2yvNRvNleXIGEzN+v1e9yRnNp32cGA1qcShqURRfanKJU3osFCSSERA0mBE35GQGxlRQhnjEsfuCEcQBgES1MYmokAUmCgIYRBC4RVcAiQMJbBZLkglDOS6LK1sW2hXQWGgfAhnQuVnoRhcYLw8zQGVSyzIJSpR3kSyQ4cqmMgjiHBCKLZYmxODeFnSOj5mpIAL8FUiO2qtpFzKDW1GD3WtzQ2+oUQQMO6MCWYokFnnBJgCSIBeWjW0RFUOxXIogKEYjIJewJgwjCIDsAEk3H8c4AFyClBMYSKuUOMAa8Tn7kIYlDvYYcrzXCK7oxLHtS9Kh2XkW5VDrdVMqSjdd7+EgaMMbRg5naBAlpErkR0hT5y9Xq9PyM/SONYtfiXB/jixLuV5RlU0F0Cb8ip3pWR8VXgFip4C06oXBWCmlSnLsYqSmEofkcNDcQ1yGIAEaC6Xi4K5piKxyRjG55p63ofq7N1428kMLuOn3Z8O9g/evHnTarcIFtVqTTfyvKODYefOhtGYKGKzY8IswNO5BGV2PFnWdqnTbh8fH6OhAPp7PfkVVs7ryxOo7GRZUxkxK0tT+f0dijHbEFIGHtAS/ESQK6DCMEIxL8HEwggpLNRFVZrQSyQogL4TYAMo95FLATYNURiWpVkqKeMb3xY4OTlBRDEdIMYIcDrPomAlIycYKZAQo7iVIrwO0FNUF2uH/qc5soQyDMJJdKakloEqDy0jZzAc0jTDcmOkcrlAmQ9Fu6g2hoOmc3ED/dbitcujKvUNKeIjczoykTQZhpExsDwPsb8B1WqVWxEe4zEUShYVHc616yQDUjb1VvE4BhMLk8LwXBeQI6EAgF8sRltarPYraGOwtZYdTly9vOt0e3v7hx9+eP78ufzAhf7UxVfy9eOPP7589XJvb//w4JBIwZxmirPN5zSGWR5Hscz6UNZqKMkQWWTTTYDv94+G6fDwEA27u7t7u7s//fRTu9XqdLtt3tt25Xfq2QqxhHGgIYWiCn4cOBywzgVZRhUuwUhJJmvGPhYD0j6MtbKJ0zLF2OnlBdSWBjekmhlYpXwYymUYOjrMkuBBtSEuUD6eNVFCR4B0Ns3YLOIlAc6dhNQdIFCs61Kn2+nwaXcYDmtzRq1CUHcgHoWhWE6jObdP92NLhKc4SYz7L4SsS+ROhMUmgSVRgJUPBYS/MByo5ZJc6zxvnSfDYSILSLupduqsM9pT3EgBQEWGOGUIszTPYWVXjnwiVD2zUSCfyGBZKPagx1q0DiK7LSVV5QoaYyLqJS6xK3ffxG3YWL6SBOfxPMTkB9VqjcuYjCShWuhUlLRJu3p5RylOUsuZ8DD0D7pw3LrgvvAeXqAQFxe4oNhCslg+spD6aZegwMfFCL6JEeyyc543TUikIL4QKapu58J6KDfNFOeSxZhmWZpJfHUb93arxXfn6Ojw6Ojo4FDo/sFBH6W93glb95MTmmKPSU/ZqLIKUTIOS0ZuMdIVo4EUnhaJKaBcnjglgS7DhCzLc8qTS0kAs3BgGG0AGrJcnMEW6QqNogad2E9dp4crm+dC3aWlfwWQSIb7MEYF8G6v3yOXbS+RSxG5CI5rVHOKllzOZyJDPLxKVGLlCwxxIIwigxY0F8DtQ5AjLPaIpZbuZBmtO+Q5fSV85zDWJTRIboocodYYBGiyRoBqaToyhNooigwpEoO0mNNnrXsyEwtC6aZ1iQKWDJuzU+GcRWJ5TGCPYyiATVwIT0RQcb+JzeSnMJnGRGEY4lXrbmCoAtaebSa4vIuwgzToSBQZwBAvvC/vLLjLEbA995fEVbLwHt4Shc3l5qNHj548ffLxJx9/8MEHW1tbHLWvretPyzx6/BjB1taTLbYthOVOu0M4Jn6zoBl4usDqYqLXazU29Uz9JEmY/Q+3Hi+vrVKGEMPkaNTrNPHhhx9ubmygh/er6F9ZXuF9LAsGwCAEKOFyc3MDHuWsPmgZaDPMOZZXJI8OsqWqVpXSOtWXl5ebzUa9hqxaq/HiV369dm1tDYW1Gi91xT5KLi9j4CpCbKM8aMDVajDLy03AuVNdE/IG+qgtfWTjhge4YWEVfQcwYLAu5It4JECIi2iPvTMt1us1BZZxiVBBZCmAnHbp/tbjx1THsXQUEKMBYQbUG3VAMeCEkCiOY7GPDtNIvba2Kl2jHPfjltxkW+1OG6QpYdTiwziJq9UqnV1ZWV7fWMckegiWliqVSpIkMbQAJRXk0Rj2oAHbKI/TYBgRpfQXhlwtwyW9sO6In4pxPOjokouVUCDTBWuiOEmSpaUKnl91SX80i+oopC4KwfIy743rRFWAeRiwNEzk9nryE1/cLIwxSSJdwAP1er1aq1KKLiSJPKOg091WMpQ06o0kifESRmZZaq3lEvfKxGg0qULTGJDnWebqwFCdYmmaqT/dLQiv5ionC+Yuwlom7YDQ5QJEP26JSsv9QlKgLJ+Ff2fBfRbjbrqMLaXFtDVdSyKLaolXoKycAZrLvAolQDQa8kN1LGk28kQ0NoYE6z5HAEztjPmeMx0Aixn1rISmK49CeJbH0ydPnmxtEarcT9+sb2xu8qqWsI7ySF6HZL1eD83Hx7wOlA9fgHBJCyhk9XJ7gIEy1azbGRFHqGtkE4oBKSYB9IA+n3Poi7W9HgUwvsNjQrcrIY4bFAdDxLpuFxX0DtAKc5s+UVjyCYadQeqWEi8P0IMHOPuJYha+gNBAmBDOieAV2Ikf4FGe59LZgXV97ILt9+S7P/hyFz1JCHrk4AcFegaIjIZLFCoio0m+CVFATMCUhDufwWO2tLWkCmZAKc0YAXj6S6eg9AvgKIV2Wl3Qbrc6nfbpaY+4iQGMBcA2qgN4WgHK440kiWkCZFmOZlQxrEO02vwboCWp3dIrCueDJO9akphYL3+5CB8yE8DSUoV5RxeYcmkmQ4/BoN3uoAIL+z2S/B1NusAUQlmWSbxWHzEQcZxgHu6hHB6mrva92+nSU5RwyWzsut/20B7RqYKBB9bSvuiGz3MJ63aYkNxdSCdym8vX4DmJkQU30aN3Ftzz0P3ZszF6E52cVye+LjBv3WnlmehMVRbAUinpZofFQC0KdFig3Q5Rr9VqsYPRc163cmTDouucwMM61PjOhqhRl50qmzACOnj0SP6sFc8E7LaszTk34Kxmf29vZ2f7xcsXHPpzxK/gaH5vf48zmyiO2SYT2ZlxmMEtBIl2n0tsJnAcHx9T/rVLMIDDfTnh39uTY/5dSQi3aebVq5cvX73a3nYQZvvVK2zou8SqBgcHBzs7O9jz8tXLFy/kbxy/fPmSomBHVJC5QyyKTFSr1ZNhwksEjSSJFXEiAqVpKn8Nv3Xc4tW0s3FWgs0sM7o5O/CVgDtVpRLzljskuNs0Hf0PKHA+m800lf/NAwfiJjpKl9Ux9JCmxWu7u9hKr+k7wA3IcRdVGHesMpGsUGMY/JAZghehqLWWJ4OQXFoh2rZb7cPDQ17OKxgUBvcAdxzs7+/t73K9O0iMmHLIGVZmCKpoiPlGpAbcXbhDYAM4cCPFkAKGipnDuKLs6OiQcaQ6NySCfrfTxWDqMlu4c+d5lmFWjkq5N6CN00KZey9+ZLhRQpcx67h1TEVmGq1PA7MRjOdSC4zLb78Es1lrMpzCyefmbJapc3PavebCAywGloGuAZaBgHddfGUpi7PTkWXS7cppjP5ETZqxhNN+n8xexCIOeWgbKDNRpPGdbTsnLQ0eiXn9urzM5fKyHI8klYqRP4ci26tWq03Tu7t7BNk9F0pYWoDg+93z71hy3U4XvUkcm8jItIO6tljzXGIE0YS7DnEHUIvwi569vf39A/4p4A5YwKgFhCeFvNtV7qef3rw5Blzt7u0Sy1jkNK343iWywM7r1wDVrXaLbXulkkQuGWNiQmnsCDcfAD8E4ePo6Ghvf4/W0XyGl4TTAQZfhCjwQq4gBBqWGd0HhKMBiE8ZMR8HDPZWGUFLIN+yZ4+xSSzBYxLIUpGjIQzPxohLhYbdV9uvvv/+O8wDdHPXpb09vHfA0dP2zrbrN13fwSQKU4wepWkfJYwCFORZLvd7eePRJ2Wp/FwgBrjdcYdQyxgAFAqOjt64RAx1329QCF5xD9mWWwytELuRMEM67MrbLdwI+JY7BFb+9BNmMkaYpHj16iWm7u3tHXIj+eknqqOZKoyt7MS78heNeljT68us7fXwWa/X63TlzyKhwf2xjO9/+OH7w4NDrGXinfZO6dfCISM3/CxQOSpVGwxQ/iboonS+g+Cue3btgPI2DAqo/P5RtwmNme7Ed1kk26+Y7oBIxJomnLFOvnZ/AuzlS/nbYWzu2FshbLfaLHUiF3ynK3+3gJCPHuIbXmIXyUn3g80HRPalypIxESGApUUrCrdIB2R7Z4flip52W2IB23bmaJLE6DHEK0OgOxee8iwjwrbabaL5IStS/irZPjx6CEbEbsJTrycnsN1OlwBxsL+/z4o/2D/gGxADCPmHh0SQI4k3wmAA1tCj7W0xhkvFwcF+gf39vaOjo3a7Q/wSptWGwchOp8tOE9A13hVTAK1Up5H9A/anWCTxCImCMITfyBLsSyL2AUxt8+GG2u5QgCZQTJQEWZYSUmFsbrMspxTuslxYl3J7sH+AZH9/j1Ejl7uz3gfCMOTu02w2N9Y3lpeXkyTBSEpKZyn6Wv4Lp4ODw1arxWlGr9cjTOsw0Z0syxAe8+RxQNo/PDxst+UPwaOBkpjh+t7hHpJmaZZnKSSXhznkmEUZ6u7vH+zsbGMYXqZ3+Aedgi5v1BnuFmoxBgk24BB4vMQ4gt29XUzFD4T1l69e4lUuFWmaoopYjFokHZfwvInMIEUmjhOmTpZKL9rtFnsU7GTHTQF2IXEcI8FROJYeYcDB4QGUpy5eu9AFhR06WS+haIACGGCkyQg/A4Qzws6cygppzoGmBGShRqkyIzyXM2KgFn/B2bOXjuXqYSEvS+fn30Fwn9/I+1Ajz1mVGgdyVgvRkPnddanTaXe7HRYkU7/b7bKEWIfdThdJtysPvNRUF1iboyZl6bC8M7TlKoeym4yJLg4ZsZ9yIMtDmUZmQGWiuo8JWZvUYslhBgwgQ8qGg/geSpL1hGZuJHI1/LhiQ8J3AdcMpQwHroS3OE54IkgS7CF6AhhCAG1xK6lUeMBwpxuOmFJCg7U2TftShc5maa/fo9dEQwWOwuyuc1q32+102lyq5niYkkT0cwbm1Fe4BLgoSeLcDrbkWFKAFuFp2sGYyEQAf7qzFydkOYaMBd7N6EkuZ9bWvaJwubKUiLOdrnv8wkSH49YxxhtjsGQWWGv7/T7doSK0K6nDMNEEbsYcQRyhkF5gCS3ScbLoFz2N4yRJ5MPrysG734YcbeFtsigg+twH5dwPjo/lf/hqtVrMP+ylaZzA04m2wjDGuCyOYNCA/XAUYBZijwMth7QY8wLAFaMkdSNxnnE0wlRjoixLbW6pjg3oieMERNJsvwAAEABJREFUPTgTunDgwwILVI79qk2VK3+bqczIhdjnRlriAj2fRaHu2Sk5ss6Q21CO460RbRS4OajNSm+uFdXMzl3XG2fkq7xFXVtlrw3kR2S2njx+vAWePn3Kufna2jpbP5auVixTfMsiYTcNUlaLHThPlhHLhfXnwIm8HNewjWw25K/PsJlcX99w1H3Brm8+eLC6uoZJhMBwiqvdok0oQBxeW18fYG19jSREPrBnWB/k0Sjn/rwAePToEU8VdEd7wQlSrV5rLi9vbm4+efKE3Md0e4v3wU+ourGxgRxQ1xj5C2iEmx5hnd725fmAoIAxIE4SuoxOCbehzBNiimpGB6BRPFnoh+EStQD9dIW3FGBtdRUlijAMUSKBEe18xQkeTZIkTkjx4CtOePvtjsHwXEMrKiWGEfAxuN1qt7kttzvcckCW5eihd0+26PEWdGtrS7mtJ3BbT6D67RjsZNzQSUU2AYRgF4o7Yh5REzuIjokcu+W5vGmgQJqljCBWUrfAs1LS7j9+9IjuM1jMOsCgGPn7aOJYbh60iEvZaCNfW1tfZwiZK0JhN5gxzBYGC+9xBEgxNBSo1xu1mjiENz2NRp2B4AI6QK1eJ6M2GHeM2Xq89eDBJtWpRbtl0M2RyxGJ5iIEyt9yytBgakGNXOhnYbF3mgcW1gCrkTaIPuwmYGaHLM1SaTSUrt4Niw0FFmWBBhSWzdr62gel9ItS+vTTT7n66MMPnz19xiJp1BtsvohokYnUDKxKJbpLtGO/Vr4BsG1SsPZZn+vS0hqJIM6ShgIYwSah7wFRYNP9KGSz0VTl4zRO2I/pNi6i/OygLbqwRbR68uTZs6eEUVY3YD1vSgDfIJo9efL0ydYTl/hivT9m2WsTHzz7gC6kfXkdl6ZyNERnMa/RbCwvc2vgvcIybiE0oBMXEWuazQadJWSoBiidxM3Pnj17+vQJDB1HCJBvbGxukNY3MMyUfFupEDsJxbF88UniOE6SJNZ/ytOKVF3fYBzdijVRJIsIN7Fk2UcTbQnxBbATm2n36bNnz57y7xnp6VPIEI4X8vTZ06dPP/zww60tYt+Der3G+BbxPUm4qTG2FRTSFo2y0Nho0yLOoWnM29rCnVt4dWtriy4XICiL8MnWs6fPsIRLxfrGOu7Ee2ir1qr1eoMITgefPNliLGQ8+Hr0mH98P336hO0BuQxivVZfHiSGYxlTARoEVUkYOQI0M9+cnqdPnz3jns6IbGysM6zTYC1d5I55DtMKL0oeyqAOIvCidL4rPTIvF9I200v12OF2Ui+nUf3hTc3ljEkRMJ2tfPAuWYVO+DsNOsJ5K8seRuZ+tcpSpEdpmuo5KcffBG1cl7qDy1a7lWfysy48NXNACTgh5TBUDui3t+F3d/egOzvyMyfPv/uOw/rXr1+/eXPMyzbCCgueZW8MXjScY9AulJN6YyK8SwGewTnuf7W9vb8np9t5lmVpykrCJCDVQvnTH7wrO+Y1W+tYmOPjbodD8NRaOQvCvDTj4KQPo2CDiWYFbcnmtdU62N/HzjaP/e02fWm12xwxa0NJgg9itafd7nCqS6luh/wTztBVzz727e6SxfrGMIS0gh5OhzlSQDOn/3SEAvRR1eauM8whFinlcQWAybIchlhJA7mUEfd2ul3ec/JqkYbQ+dNPHD0fZ1lmIoNCalGSIaPpAgg7VHNnL2ThqyiKmo0mu2rKEBpomlNsFNIdlNDNJEniJObOQXimirU2y/AQY5XanH8WocCERoZMPI+p7P/b7RYn3XSTl6A72zt0gYYajToa8BgeYNB3d3c50scDHJ9gQAHsLFCr1WmarDRLqQvYqkuVKK7VazwoEIi5zxG1m81GrVbPOM0LDVXgsZ1LOtJqtXv9HkzXDVKv1zO4ydB7AcqZcrgXwwCF0Z+mGcUo32rJQTwDxN1pZXkFV+R5RgGMxxgFrsMJ6FGqwjIlC6gEZrHQRrEBtco7ZmHhEW2KXDsgdMDqV5DnYS7/KzKUzNzmUKC1rkavZX3RtnGTEgsYP1DIkSiQsAwKr3Gp8nF6QdZ44RuSYEOBm2gCdxEX37x5w7olXvMG9QeXmOu8ruTtFuuWVU1IBcQyQGGiD2fxe/v7u7t7hA9AdcAKByiApxiBK83Y7aasQ4JI2f6Dg/0zCEs7iPYp2ev1mU0UZpigCpZfgUMi7uGhVHIqaIg7BOGjw1en/eb4DW9bdzW5PgihJwPsHuzvv3nzptNuY1JGqM7lm0Z73Hbkq9dqtemgFN/dpWvw3B6IFzykZKnEQkaEqdXvpwSLdqu9s7MtP/Ox/Wp3d0/csre3s72DaGdnh17RVrvd7na7HU1t4nGnxc3mEEPw3uudncEPqOztcQMB8vKV7ihwSLeU3M2t5cbiuNcTkynW6XTzzP3LcwwUlk5l8rRBrqLX62EwlkcmShI5ZcaxNrdUy12iYp5nuLDb7fCv2+0y1vgc+5XRRqEolF8lOD3FNnTitm5X7og836RpX1yUZtaimo8lpaVESYcuKU2z09PTdpto2+U+R8l6vUFYx7BxsGCxpOt+DIYq+/v7jAvWshdptRDIy2G0dbtdvNHtdjvdLoahMzKG/kLhsRabqdhqtXo96YTGUJojF6qwA8MHJ40IbZFyO8w8y6XAAmHdltS6jYsd8DfV1gLNvljVtYI7qnEEM6CASqAK5BSAZ3TgYYAteZDLaShHmWllrinHpALXVFVUt2OpyJrIMOnBAVHTRU826ezxj44OO6yhLkuG9aKQpcO1yLpIupK4hnVAwa4LqCw61hurKM3kr4uUG3UFpTJMt0tlSJekVYg4eKNcvtfr9wap3yKgtjudtry6PDo66nY7aXb2w91ZKkGtzfJttx0VjioK4hQtZlmKfkIJe89GvcGekQ1jhf1hpcLGlgiF2cS13d1dYgFhXR0JQ3wH7HUJTIQVtO0fSJRpt+VPu+Q5jUvAarVbR4dHbB5pKIoMm0RRjv5EjjJoK45jIioFup0u3u24RLuAXhKDOiJtt9tky4+HFq6Q3OGn25VX3MOrXopl/ZRLmCwVM7CQjiDJMqKthU/T1GBPUmFKA9SyHLIsT1MZINrlIQOhwhlDp1MYvvp0m6+0z61O0el0s0y8ja8ODg6KAqn7uUlVAu3JXyFGJuCyQLcrP5jI8GAYemgGpshlgJS3NodXa3kowW+9Xo+bKI1SnsvDwwPuea6zPa0CpVaKFzLpLw7n+Aghc6jb6fb7cgfq92XOoLmI7xQAVIQCsqxL8IBLAXaYkeNbMhcM16zNc7YeWZalMNbKQ2rRTHmYCuGlDPZPK0MWMHxwh3HfjkwrP6/8WsHdulscTWIeFCBRwJeBEPsL73BZzr33PP1lrhTdZG3EccJ2iQPQtbV1whBLlFXIslF0u12qZJrSTNYLU85520S89ouTigtcCUme97nKM4ksRCe2Wmz00IAqgnPRKAzDVIZMJPmE3U6HkmULKQxQi20OSWQ4NQgNzcOEYZwk8sv0jQbBmmXMJcVkiF0DotUw2gOgKjKGEMurNXkZwFkvx7cbmxwCyJFtU35Cn9MqOkNtnEPfAbVAlhEBXVxI+1hIDO12ZcdqUFhJ9MA9SeLIuJ8BTfuhCZM4QZucYPBmeYjlZY6G3d/KjwyxFdjcZnL+QJsh1bGZmwpOA2xp0VyAruFw8XhFdt8MVrcrIT5lzNJ+5oYnzSTgoqHXQyJhHeNBmvattVgbJ/Ijp0gUCPOcQZUfucGBDV5BNur1eoNWuBwHVqFcKfUYr05HnkXSVNondKYp905xOh2hCZRjp4LTFQfpUKvV7nYItSlKKJZlGRZSHV4rwmAbFOBM/IYxTDq8igFEZ1xHd5hprVar3eJm30VvvQ6pNeoNum9z1984MUaOATEVf+JDYj0jZSIz3hBt0agC/p1AWx+n78SYhTQ6d3CXpTD8MIqFEcjwCysTCQwUiTGGMtzt5dLIvTdkvuSWE3YkgJP3KBA5/AC5/IX3wFH0XIpBreHXXN9l5eWKWF6gLL+YV23jZZDjFiDz3jLvo40N+VEBAlAcx8u80pIIJ6GHVVSt1gj66+sbUMXqmvxcDe9jAS+g1tbW5EcY1tY2NzZ5bwn4Xltf5z5B+WqtymJlvWNGHEWVpEK8aNTrdaJwg/eREk6JeoAXXOvrG9VqlaWOhQwTlF6jBDPSNGsTPLrddquFfG19nZdgmxsbZLG2UejWKvGKoJfw4RJKXyjQaDZ5X8erM2xT0DiayULeqNWW4phxt2nK0K80GsuNZmyileZyYqJKnGysrjWqtQJrK6vrK2trq9BVcitxXIkT0KjVV5vLDzY2tx4+blTrDzY2wFJSaSJfWUEJXqsv1VC+sbr++MHDZq1B+Y3VtYebD9aWV6pJUl1a2lxf//hnHz559Hi50aigOUrS0x778KU45ugziWJgszyWSZszTaPAJCauL1Wxdn1tDRsKO2lIUG+uNBrkFmjyhFJZooPURYOC7tN3JIIwpONJFKFZaBT1T06xobZUxU611hUOHTVRGEbGsILQ/OGzDzCVnuKiSpzwWiPvZyYM8UM1qaCQdUSPcDXTa31lFUdtrK0tNxq1yhJt0S9ys16fuhSOjMGeIMsAFgJaoRblcR3uolOrzSZYbjQR4pne6SmOynh9cNrrdU+67XYcR1men572Op02k5D7QafTZR+Q4PBqlXnCcwDy0L3UMcbAW518dnAMYh0DpQy5BbgEekkuUH6cUqzAeO40SVGlYLSkNoSQS2gBLgG5M4FlQ7nchnnOoIAQnnk1VMczAjNMKWoXAnHulRXlFmOkNhbKVxCI/YQxOqDXQ4qcMkAFXCrzPlB6zSSOIvm10nqN91cNdsSNRn1lZWV9XYIycVlBQHz8SH42AfrIJaIhePL0ybOnz37m0odKP/zI/YMIfv7Jzz/99FcffvghoZ/1k8TxUmWpwTpcXX3wQO4BD1yUffr0SYFf/fpXH3380YMHD4jIUcyKw0AJQUmlAoQQKJvcBfhwV2hg4eOtrWfPntJ+zEqN4wQkcb3RaHDvEDTQri3AfPwR6of45JOPP/mETi0tLU0bcWLl1pMnv/jFL/7qX/2rf+2v/eaXv/wUJXLf4k0foR26ym3OfY0wa6uop+6jR4+fPXv2wQcf0FmsUvOSWG1N1tbX8MHW1hMtQ3l6tLm5SYsF8BX3WQar1zs7asDgWr0uqNUI1IURQ6MGJqmnnLOaA5H7ohUGOoljtsioUsiiNswLgUoKarjPraxQa0OebzbkRg45A9JzcwYvPX3yZOvJ1tOnTzEQCxv1OtNMecfI21Q3pjI1NjdwA8PO9yZekmK1eqNeT5KYf5jB2syG6xcbGTK6XeeOtbLyZGsLw9Y3Nlzf5Y7rurhKN6IorlarTDk6ixOWlipJnKRpnz07OuuN+jKeXV6mDM3QfYSAtqAKifC5heqlp9f3wLWCO81bO3jXDz8Chtywc3c3AMaMSy1AFRgk0EIIfxEOHQsAABAASURBVD9A70Yw0i/NxTNLS0ssm7W1dV0h62uEevb0AlYwy4ACFZeShL2dPAPxKM3CY2PO4zZP6KwcdkYwHH0SO+A5k9k/OOClqxyLd7q9vvxBWteirBtiVgFOQoG7lO/hpydnvL0eWzHqcsIO2MIDjno4raZ1Fjz2xAmLV1DundTlk2Kd/P5Rp9tVMMpNVnyzSd1y+Wk89WkdTVhF09jQ4by5o998cQVtkwWwSv1AyCCsE7doihbZPHKGgJ5eT0ieZZGR3yQikFEA9zIETEK1UCmeLIC/JprHCQb6xDZ8xAUBzIG+qpJup8vDU4EwpNOYoxRGgGb5MuzjYQWMEV8mDBl0brfQwpJxhsIKhqPXk8HCnt75GxLaCpCLJzEWkzFH5RigjFKiMwxCgKOEN7BiIcZwD8Bv3CHYB9C1EZN4vEOCMTFa4gTHssFDcnhwyEt+Zg7eJugzz7kFog296KaJAnTnjMf1+WAXT8kCRYGbZya3gCWTMy6T0jtBznQb9EtrMBZueuAMI3wQCg3F51rgmvRawR2LtfkwHBiEBDC0Kody6WgOQyfgAb2Evieg4zik1+sTfGX98+kOTmytzdk0R6wJFk0SM++r1Rqo1eoEMMKE4rVLP+3+BD77/e/B5599ppDvzz///Isvfve73335xZffPf/uxYsXP/7446vtVxTedz/pSKBXIC/w+9///ptvvkHx0dFhb5gIAdweOEZT+kLSy5cv5C+xfPHll19//fX333+PDHvZ6oMw5Ly+S3J96nz7/Pnzb78FMH/+Z39WAMnBvvxMDqc95UG3lolgLSS3vE7efvWKJv7yL/+Sil98/rn+/A/CV/JjMXRoW78dfYWQLIBx6P/h+x9arZZzYJUIw10wzVKCOnGtx1evp0Zy2yAGMRezVH5XvtVu/f4v/7IAHeWdNCWtS2oqbJeTBUBGp4vHXr/eIQl1F0J2XlMXzwheviC3AMWOjo5oF22oUsAr5NIFMkyCR1itVblx0iL9wvOodZQr1S10Z3tnB2fs7NA0fQc4HIqB3U6XG54bji68Y3hFQYDlPbRQ+amgvX1u/8yNTrvdlcRc69D0RGAYEQfH1mp1ZgXjSLwW5+N6bHglA4E2+ogWZjhTiNtqq9WmMEbv7+9x602ShI07E5vbA3OGhlBLfx0GT/8I3eW58IfQ48oeuFZwn9bqyCBxKSuKD5zbyDNdCPQc6o1jms7bL2fWgrKdXAIkUAnixuR5JseU4bl7oTERj8/ESnZMgJKAJ9k4idn+tNotm9ter9duy4KBYcWylvb29lnbrHLW+c72Dgv94GC/2+0QzvIsY411O/LDJJSvJHKmCsMSZeWzOFmNAB7buK3QqIkioSaS9Smv5kIieLcrPzTCOqQu4fK4dXx4cIBJ9UajWquayDCeWSYvEtm7EZ07bTlmRScMa3v/4GCH9Gq7z44xy0KSGXScMiOgObTROrcWDIOhFhKaK4CcHXybT0e6SRkKY5LErbb8bB9PMFTJ3R8GMDQXhkw6LKQk2ugCubRLT4m2+BAHYmcBgp4rltFfS7eHSDO5ExwdHu3u7eZozJVIVMrSlEcHPAOInQCTWq0WEY2CmNDryR//olGatkOFXBbI8ww/o1ElS5UlQuGSS4VhMGhT5TDdrsRiqtAWag+PjnZ3dymTZ7zIFasQUow+Mg0wQJiUeSHf9N1a+ZH/breLB5hLdJleWB7BcRlgcWJ3aGxu0wyFMvdET7/H4xdPkmmWMbX0Pm2tZawxo8vEy1IumRWVSoIaHBJFUZqmXNbrjSSJ0cpYsNGhmCC3dAGGjhsjW1fqFqAwcgV8AZXcb8rhuw0DBhLmOj29qeBe2KSDx2XulhzMewjmrhxhsDIqlWq1igeMiSLDlj2OY3YzCR+WMxGzRpjnGbhW43jh0aNHcmj90cccc3OeLqfsH3649eQJR59b+gX75AlH4ZyEcjjLYy8PvyAhVSSg0xCxu1JJ0NpoNikGHsmp/iPOpqkSGfl/+wiaLFEoYZMqBeTXWB8+xJKHDx82GvVGvc7yrjcaBOIkjqEsObbJAndJloK2OAIenG4/fUq/KkmFtkChHMY5wRgT8c+gJRE7aWKToynOvzc3lnktsbGBne4AmsMqoOw6J78FNjc31tfWmo1GrV7v9XpEKyYbapM4wUgYgKm0qMAnyBUMRwHGB1PrjUacyP/IrIWZwJExDBBDw8ExlPGp86kNWQ7k3aUT1CWrLlSYWp1hBbSVo2gI1RwEgbUi5tJKYjkHhFZjDJY0Gw0GdFWPt1dXG/U6XhUQKGUW1Ti9cZlSRBn0FECxml2tVZkSK7hSvlboGsAz+BsGI9FTrdaoGIZy6w0lDcICSgBZCjoCeLQUOuh1HVMB/lGK8cZE/DNGlKCZwlpdqQR06bR8VALlPELsiZM4TpJY3vUaE2EIWR5X9oAMwJUrX1yRsVEUxZjA8CqUWxN3pzGQS5l7A7oD6HjK7kg2T/1ef/Brfmya2N/1ez05o+6xoT+NosgYNj3smt3rKQKqW9GsyuVlAssyaXNjg9eMBDkX3uR7Y32d6Eb8fTRMLGRWII8CLCDCSrUqy9sFxQ0KUwdKWfS4h+VqRKtG2oYpPM96o10ix5okgidf8noAzi1AXc66opOKu6KEgqjEDenZU/4R4Z9iOiHGmAh7Cv0wFa3maBJLl7F8fX2D2wkaCGSEHmy4FGtr6xQmiBhjziI7gZ3Ocw8SSjx3IIRE8pxUrRKP69Vq9bH7qz5KObKnLYRxFFv3iImRgP6inKy1dW4hTdoqwPE9UZhL7knCcwHXaCABSKqMRLVqTGTtuQMHGWZmRmjUJ9Y1h4AhIAt3co/BCQW4lPheb/AP87CHybAuY8lgOmxsYGqBPM9olMaxiMITIbnLy2vr69ymtCIGhDQvXxLoEaIHqmjU6/UGpCG0VsNItie0YozBbEUuibme8U0tijca5/4ID0LA7KIRqlmXilZonFyPhXjgBoN72T4dablpuyl+6RC6ET+3GMra7hDPDMZautNutXl65QCBx2cehw8lHcBwyQOsojtM7KC7nW6/P3iiR4MCbYQMVjWBpsBw/bN7I8qts1bJqtXYUrH6Kqy7JEmIZMvLTaKcRDhjTBQxFqxGjZ6yVhtu3Z5fhxSgRQaLBa9laB0mIdrFsr0iVxQOAmjcIG8IQmSV4KFftWolqWgXiGUFsMOQ5LZiMKlSqWAPdqKDYKTWwjhUHJ1MaIi6xAv8TJhAFxYZEvYhDUM6wpUDbIRfUMStBbq2jtMEOI2nBSg2FMFObaYO+pEvLy/TlnYLCqR/iNxXiQxzqlWaoGuqp0xxAtYiwb1QeAVBUW5ARjbv+KFRr0MBegqYiFzGlAephtxq5CMMegqgjWL0tFarS6zN3O4iy+iIg/wHTG5WLGM2rqawWlJoUAY9TBXlKak2wMi4mwnRg5sr4PglTeVIh/IU1upQtEEngoHLspStD4dHMFxeUHiiBi8c8cCE4Rkpcc1L1hcabG7ZqFq++LAniAbtsn8vIzDkBUUV6+4EVF8g0DkX5m0a48uITISGTrvDweje3v7OzjZvxLa3+d5xaXt3b/fw4JBzZE6WifVQ1jYLkinOSXGn00bCjMdmAhbrhOhDNIcCdutQE0WcaZvIAG2aitwzoEThPJdfk4nimCVNTCZYwHBMTAFGhFBiwjCJ5fdrer1et9OFgn5PniSwp91qYUCWynEqLWAAO8F6o44x9AurqI5c95KEy9CERBGpwv08Q718GWPSLMU2rUKtIVyIcwQbXCCg6y4YpRx8yx8s5Py61Wq3eOHQamEzt71+r4deuqA3PwITjECegOR2iA3aFs0pKI8drlEawyVcZQgBxiuSJO71RA1U7WcIAKUJkc62KtFQFV5M00z+ZWmaZpnNLUrzXH5WB6sUFiuGc1slBc2zHPtNFGGDGw7pEX3kEmtNRFivcD/iLotJRFhuTswH9PEqhQ7iIj1/pzCqBHnGuPOMeOyGkh1Gr9djDjB5eHSjLvddCmAAStCAbUXvuEQPlFxmDi0y+rS4ublJRSYDfmREeNPPGxeGiSnH6HS78kuw+/t75DKZuTux7+AGxFRRza4hOYMqt6VZNERzBa+Mp1fzwCDIXq3yLLXCUJqw7qmTicK4UkuFMNPAqGvJaQXuijw0crvC2teveeUJeIcHdoTbkZ+6YLGxbWdNAhYzt4GOfAZvJqlYBquF9cP5eFdS5+XLV9wqFN89f17gYJ93mft7vDM9kL/oQhMoByhuO+3dbgd7tl9t//jjj999//3uLq8SBfLZ36cmdYWXD1cCXieigXAPMIlFCOUNHsp5HKELMC9evHyFTS9fvnj54jvM+e67754/f/6d/H9PnEgRmLJUgh2DO4DVxFBbYtOrly9/+OF7qvzwww8oQkLDOAtTHRUPKuOouNAxr+nIwf4BnkERVilQzSWUWUe7RDQKdF1Sa3k/Cei+4vl33+3u7dLi0dFhu9XCV4p2p8Nt2Nn2w/Nvv91+JT8fovTVNi1vCxFO5HyLyH0p+eGH7/d2d7n7EkDVMKXqAXiDX0qwNs/SlLfEMqwvX7wQXwqLe/E/VIHl2gt2Bgw2z4G8TqfFl1jBl1D5wja+BiY54YsffyQWE4jTLOVZhBubHSbuBDSdZSkCDFOInW7xcompdOTo6IiRkHf4+GV7myHgzoFfeZstDF5WdE+4qxmWOnMlHKwCtKHnYoShFA5DoReX9LkXe0Ai78UlrplbRDf06KQJ3XhbE+q7YKXkDmBC6w7ioQPJHf+iv/QgZVmwD2S+9/lKU6IdkMuUuCOX7hCGwgqqXAo2TYSebqdLuCdMF5BFJ7cPvndottejRVpKGYtCeZplbAaJF0SHQQig+PbODsFqh7S9s+2ofMFtEzv29vcP9vf3Dw7KhqG8x26tJ6mDHe0Ou2y+C2Ne/fiCjjLm1CKIQSdC7eE+gX7ZBh4fEywQaqBgn07gUF4Y+birAcNXlzKIJiofEYqtQ6N/GCYMJnYTTeWmcr6PhDw0E1WJoa4uZNhnWCBXpY+w2kCfAcLPufthoREzuMQhDAqUJyEeHQCO4m7EqFGrjDyTW1XuUpZzxSfjCy8VxRgdgX4YMAeu9vkIDvYP5L+RYipwVk5Y17ZSutfvC0n7ukIxbJxh5iAv0JVJJ7c/xpruMsS9Xh8G9DT1e1maYTQdHLmxqRLkgtAHcfXH4unCg/uoiTbnH1NFUOTlw2dSJOY+HK3Tj8nQzpPHm0mBfNaE8Fi7uspZL+uZZ2QejaEc9QrkU6fKOIwxPAvXGw3OB2o1jlx5Yyfv7/jw4rIAT9wFnGbOFVDPKa1TLZXrvINbXm7yrM1ZCo/nm3zA5oYjm0I3hYdR8ALW4TGUsSxso7prAv0VzgrEIN6gNZvP9GXqs2dbT5/Ka9talUgUhqMrmR6ZSE6uOGrgiKnRkB8vYUeJqrX1dUxwfsJThc+cgOd8963S9Y2NeqMuIa/ZAAAQAElEQVRBpCCqFIYVTEgMc6cZuE66XquJrUOjxcynztinz9bW1jY3Nx5vbT198qSOaxwg6xvyl9/rjQbnEhg5AbwIdtLht7twZHl5mZHi/ITu47cRYKSYxwcjTWTcIR5C7GSAFOvurak6tsmbWoG7YtSbjWr17HzfqRFS7JflIjTlS7qAN/EfTM49J5V9egY3/K1UWgfYwv3GVT8bsixLOT3D8Y8eP6Jfy7woX5aEqomvRBgRadpIkNEmlOIEmvC4aQ+I32+0DTt8pqMV6xIMIKYDGBDaoACX9wZ0l80V3ak36k+eEDGePnW/nv94kLaIlB9++BFZmw8erK2tP9iErg0CXL1hOKpOOXpmR9RnmVWr1VqtnsQJPGsGmsTyp2mIth9K+uhD+UsEH33wwQef/Pznn3766Ucff0xwJJxTEhuoS9Ak4BCsH289phg3AALZL3/5KRowjNqf/Pznv/7Vr371a/5Bf43Gn/3sZ5R89uzZ1pMnXFKMYIc2YC33aCuLe7m5soxi+fV0ioEnW1u0/stf/vKv/MEf/OYPf4MGohVLPc/kpJW6inqjQdTjQJmYtbq6imFbW/IfazwRP4m/YGhagOTZM9Q6PIF++NFHyOkCfttYX996/HhtbQ21PDfQirWWXkORKMUAPFCr12k0S1N8+fjx1i9+8YtffvrLAj//+c9/9rOf4Q2i+YNhYmjQT0M09+GHH2Lkpn42NinJCEIJdryMHdTYfPDJx/LTqwwyQirimiRO8jyzFo+d84Cah9Ram+cS+pAAwiXanj57hnJuYPgc/3DDQ25MBCW6YwZNfPTxR5j98Ucy7mvycy91tslRFFOYexiqeGpDL0I0oI0q3Cy43a6treMLfIL/I2OYUYDy+E0pSpg8RHkjn4i7D3rgCekPH/Dv4SO6zeex/M8e62tr3ObpSBRHPF2ghOa4gdIWDaGQ/p2HDBDFyCrDTkrlAp6f3QM3FdyLYdPBYtSt+0085MwSW4r4s9t6F0tal0YsZ9U5sOTl/w7mNEOxf7C/7465+UJC1SgyLJVqtcpKQ4m1stciCLDM8jzj4b2EPstY0Jfn7AyCIMsyTnw4BEqzLJO/tooSNwS89sycLE2zlOWNPKNkr8eJqoJj3zQjHtnImCSOQcxTRpIQjilsh0nqZ6SU6hyO6NkIhxjtlhwLQwGXPK1TC5uhBXiW175gKWUc5HTFGJmW/VR+PQq1aZaBLB3YX1QvGGyRCcaXtWzeexwI5E4AGQINHF9whoBZnS4J0uGD2gKUoVGsQkLhuUBdaoE0E7Ppy3h1Z6BVs611ljlirVxYlxgdvnEXtmEJPN5gtmgtpfiDbna7Hd6RcrDGewIoPiRwc/vhHrz1ZIsQzE3F3XrdjXdlRXluTATiRr3BxtyNp7xp58mOCWaMPELRorU54yKfLCfic1cWhKF1S1htQAOhn+0CdxpmI9ZiA8dWHF51O12MQQNZTF1a0U7ZUkJJ6eqMRS54/z64aOGdllV0ZaUYpDBG5oDy0IkKLVMj56Rd5gkFJhazLmnuxAJk3S3QoXGD+5JSTuGzLDvYP+DUGxBSOfZ9+erlq1cvSSwP1g/bH7acFCNSsGwODih+cADZ398/OOAl5xmo78B7NiKLRnlCgEYrd3l2ospokUXsoBUo5VHOkTqH65w484qMl5XC7Lw+2N/n5RutF6A867boFJEUVQ59jmDb8mmjcG9P/uT64ZEYSHwn7lPLuPBR1HVucKal8rdouh0qEyXkF2vZgHN3wQbO32GIGgChQ6vVQmVLE/1tcUkHHLAEU5lreL4MzMYqAhCGEd9hKA7FjQXEHvkwMmlXDOl0if8Q4mi3K3xXE1KYzuAjX/J/VKVZBvhIBo0p6Lnc8eSr6PgFc5tdMo6iC/QQw3AgaugUdbU7MARTCvB+As8c7B/wypSxw488JXzy8ScfffQxjET25iCswxPQef5gs7+xvsFuHQMGd+U8l/tLBkF9jhyOOYM25gaUS1oErFvoOJB3O11cirXcZnZ39/AqbwLSLK3KiVEtiZPxWjSGUIYpt/RXgeSuAPsVsxucSwVHYHLpOt7Ge4rZ9cxe8lrB/YJmsHtiLnI6MzHr/RGyLFkMRCXiC9FQAX90dETo2dvbOzg4+O6754Q2gj5Us1g2hF35QQX5ks+RRE6Wv4MjKkiJMixNwkzKsRBf8tcIesPfgyeyMwpIKcbqZSUTQIkOonl7B4aQQSQFrNJWW34WkzKA+CjI5GcrcyaolQnKh5WZ5XmayY5VfoKSwHN62u122CYToTRgsxWlOJGrPMpplmVp6qj8fr+rJ//TEK0QD2n66OgIDTAtSXLPQE6wI3Y4ekIVorHY2cKLtEiQlYOs094pJuVYNgT+oBaqKNzudIi/0G6ni/4CGaakENrvd8nrauoI2xFeSKfjqMi6sJ1uR3K6uLenqd9zApHTRAcv8HGg73heYM4OshECawc7esMG2eZoooO8zN7blZ+UZcJQRiqGUjFLxdV0GDndIaQy7gjZ4HNcs7zcJJ6yXwY8kwFOvdgisIkGbLc5P6E5hp5+ZilDkHFprQ6pbL9oPZfE5BEhTRfQEbTW0nq3w79u1/1nAJ1ulym9u7sr190Ot0cU0Bw2iIph7wo9IwxlwIjwvboMQxnZxXZ57uAeltI0Uxh7zSIqMfmYoKxSlUDleJ2RpBBDzoPekEeguUFuMYtDPppCsiigH6g2mck0rRdjtJxLFTBWRP64MfJxjJdUCY+oMK1WmwXw8sWLF/J58erVNmuYtaSAb7dbRFUCerfT/eqrr373u9+9evnqu+ffsanf2dkm7jtmZ4998eERoa0Mar189XJ3b5cIyJqNjGElcwhGu1mes5hhAF41UcSqy9KUcdl+9YplSYBr8WnDHhOSUEsVbsPIDg72oQwlm0+ExjA4qGGUJB5RxkSGkASszVuS2gRslLC8AfcwtHGkwylwZIwdTzIBJJz1en3uAb1ejxuM1hqUlQKwucSpZoNQxdEQ8+rlC/mBy1cvX3Y6tDbA9vYrYqLeqFrapVYb43/a/YmtJQzRh1xcTfe7Xfn9g+K2yHkxiNEexbVa3UjHomq1xnevL7etJI7xJz2l17iRG561YlXV/UkJKjLKlMFdmMe0Z0RwGpe9Xg/jMdFaS138gE8AxmAJQZYph2/pKDYjpySPZgwZuVziboyCwmMJSigMT/84xuPonPfAJpKzeCq22m2awOEFsHMIcTBzw0QctcnLmzwnstOsvAmgRwp8TC/oPi2WwW2DXoQmtDanC1BsoEXuXzBooUr7zXF62q/E8Upz2WZ5t93J+v2ADQHLbQhetkUBN7FAPYkxaAO0pQZA4QvYUiqE12RKKs+xl6rV0kUxvVRaCGHoQhk4B6EWcxTB4K2DFsMVuq7Ihafw9aEKr69nVAMWj4rcNfJFme703RnCdomHVDZWq6tr9UbdJb6QyS8xVqu1Rr2xvLzMOcza2trGxiZLiEl/hlBu7Aw8r1ur7vceiSNl8NoNrFF/dbVaqzZogKK1GkGcBcnKKdweojoMOWat1eSvbK+trRN2AUu6BImhhFHkCh7tm80mLSaxBAUsUYRhiH60AQZDlBsxNeFMl0gZxTDVqvyoDHGFAtOA5gLlMnFCihP5J/+/EqqqVXEapmIY/vx/2XvT/zhupM8zgcws1kFKPHRQkq3Dd7fbR/vstt3PsTOfz87Mzuyr+cv3ze7Os93tdtuyZesWWUVWJYD9AlFMJutSXbwB/SoqMjIQCAQSkShksYRX+FYCN2jWOVuQvA/B+rQvKIzJc+9cnqNbwxYbx1VwRwQYKUEHQcpxRklhOCSVQ1MsBVCFYcUNxhfq499kAPwDcHToO+kPd2idiIHQCxoH9SzPGRNrLGqsiNudDumeaNDHJkaw1Qq//s+FsbXFZjrx0UqxTq/X6ww4zQEYRnkYtIW+I5kAd1ACz2CRjv1Z5+/T8H2kGp9xCXBWkGr/M0TwMDhM8HEND/EOVwH+QL2Q64aBafpfd6jl/i+TuRVRcQCa5nEuQK7zAYVLdUgYlt7fhZK7ZvBxKkCHAsv7SC8ZYOesDOhIBYQuFBjsAJgLg0ajubq2yo4n+6Hvvvvee+C9d99555233nrrgS/37z+4f//+gweCB/fvC1NS9N566+233+ZFrXffwwbwZrAEbm1v375169bt27dv3WZyMfeYeE2em+U5UxEw8VhQSzyJLelsbW2VFd+NmzfeldK3iVlwYFlOveu/UbO1uUlm4S7FVBQ7UFISY0obtVpt2/+KGU/1bm7f2n7zzbv883jzLvnXWsMaluGlyki0ms2mvFotOlKi4UvTp85GQ1IYWQwGz69t8e8aTwiRlLh27RpBRgHQ7tpBWT1g6MKNGzdu3tzG0WvXr29du7axSY1DsDcN6E4VBJBAIvE3hFpeocTDA98BMecWKzZhGAVfK6+R01m8szVEfqf7Pv5oB9A1cjQZszD+Lx46oRCo9Y11wuixfevW9i1c8tYyv3/NVNKajxR1Otgiai1C528kLKKH4e21iT2fAY6Amw2fDJyzmOJ25bvGKAbgHk46bgCsteECaJTlv7VWlFlGbKz7L/Wub2w0Wy067q+6VtMLub+F8SDU0jUXbh7BzCQi7U7SODPnJDjQ6T0iCICgUgsGaGYOfQ6Y3s70mgsl9wnNaN23TB9ETRi5HSCRQyjg8MKDBFCvN1bXVrns/URkQjabJK563a/cmVpZmjHYfuydI2PKUtNYI7DWOM6FyYZauB6OEMySzgRMNkyL5VSTij3QxrBzLs1SLJDrG03uN2vr6+vTBL/V9N9AZ5HKms4aK85ArTXOWYaVtOAO5jAMTWakgTSFoZs0wbIUOg74U0L7WlT0KIUwvl8tSrPVbElPhWqdCuhjr9djb53Fr89kZU4LDAR0e11j/S4ETlKNyOOegKABbsNAnBdKl+ldRp4OPeKQwRLqFTjIUqo0ca3VJMeRiLc2N7nzwJCR8Y5e4w/JtDDGFIZJTXdKYFyHDatut7ezs7PX2aMdBnSrXzavXduidYxgATjrsCmeF6awFGPIvDwsecZuTgVIAHtEbHPtsD2EdQH87k571z/GwKC1htsVPdI6JYZExlm/lqdFgRcy5sYWhQlj7b9qyS2FzrbChcHlTXdqKysEQUDH6406cuqKkUgnRIBLYsLZ+U71U/B8laepZZ2/Svzl4hwdYKT7FLF1fv89MOzg9jGN0VPRWazRnx/+zCbs7s4ue7daa2Y4SyoeiLELzE76P//5z7/+7a/f/+P7H374xz9+YI/9+7///e9/8wUq+Nvf/v63v3//d87944cf0Gfzne1yv7/sn63+ymnSB0mKOcaKiezA0oxZTfwFhc8q/lko+YjEwYigTFrA1H+Ewhb/f/yv/wB//9vfHj58yH7xP77/nk157OAqDNZ2dvy2AXVLYJaznHoafuoA5hWvly93d3Ye8rTghx9wko4TPGY7inEUCQAAEABJREFUHQ8XwFHCrUZp7Ac859ngo19+KcETiOc8Vn7Gi/dnO69edbtd7k+k6SI8wt2h7O68ePGchw34TFvQnx8+/OEfPxCuv4Xy17/+lb6wR89ZHj8+/u23X3999OLFi53d/s884AJxIyB4trO789tvv/GQ+fHjJz//4n+hgfyIsOj1qEI0yIkvXjynX7T46Ndf0YGy9/3ixYvd3Xa328MUiRInJSOj//jxY6Lx6Beem/wimrhRgop0k0MMErfnz5/t7XVKl0i7WqemKLg70nqn3UFBkjjdoe6jX37529/+/h//6399/w//bIYHOoDmwM88gvjlF57EeEl40EMQBD/++CNDz7X0A9fcDwzTL/Qay692dmiL8WXIyONllocnONYaRgKzKOMMt0kGAvnO7i5daO+2uZ4FjFToy3MuD00J055OASyfX9BZnPfRoCfa70ByeDZx7MldrhI67yxZnPc+RA4FfdGFfusVfCj3MNYv3Jj55F8Wwlz6oN3u7O7uhqw4LZEcWmp3Om2SOEtRLFcDaZl/VTgWfSkKLNjZ7mVQOiSLZ+ROjxcvnr9iUr569ezpM/LRbrvN/GzvtsmfRbg3FMz7A9hgmqPCGKjhjXVdQfGH1MWlDkvo8D9+9KeEGnu9dbssqbtdCDkMeoiuLz1/jNsl8tz/riFplHVzTzSO0B4VfOs44Dcl/H99RTICaBUFEbGEyxrDrQ4jLDaJBvkH+3SLwer40sZCO/ynFtw46dHurs/dXUwHsMQmPtyNyMsodLtdYkJPtU5ZVjMW+IY1a2nKWWtI2Tu7uyRH8jsPjUuQ058+e/bq1atOu40dZoR4woY1FrRS1C2MwW0uIt7DnYMzHu3dXWy2255yMbw4LM85FDCkAPtViKSknQ5d64amVYgOhEvVe+6soxdERunDXEbcuHrxgIGgywAF4OXevxTCoUCrw4oiifQEIjB2si2xbRWKc/6zcGmWTH8IlbgDlAoXjOGjdx/MBriMt4z3ajd97ufTdRXFwQH5hh0HKJKgF478ARMeMBeZQjpNB2xinznpwShoP8eYqwhpniUhn5pBo8mmtscqpdViP4d565z/8yWmqE41c5hEAzAOyFwgy2E9cp4y5pQMCW957t9pYkrgF5rUAb6uNwN7gCyYy7Isz1ErQUYmHQOqcAoqerkvCLI8y+iaAGVAvwQN39eW34FpNputFkZquf9tZPImoSVvE08f3oNoE1tylk/WGVmbsPVBZDglKXuX7ZS9PQ6VJjP7H9okdNxom61ms9kSwgluJ9xgUOZ+WYKc22m3Sd/0Dg/Rx8NGo4kp56x3Kfw6EO45//HXP0ol/h55LXTXByfPGLQ0TTNuLR5pGqpTgwH3MPawwAOOPfU53O7s+C0aDukmbljn4C1J3RpjcK0wReEsUzbBLAq0ThRqtJ/5nxSlGYQAOUJPc/8oFUlENQInyZ9Ecj/J/pzBtlQoPHICq2trzWazVqul5MvwYisANJuNVsv/dAk5aD4wJ8kmJCmm+OQguHCX5dO0c65eb/BA7Nb2toBnjDzv3djcxM9W03/boS6F/HcA3POtkEVK+ASTZ9DM0yz3tNUkeTZDkvL/yw8uEQZPtYJa6zeIYATkC9k9Fypt9mmj3vCcJyhb5/MLnc3JZXl/8c6nkPX1Df55uk7ZWF/fwBQbQeV9q2TItC3GgFeLAWnRF1IhlnXq/6MPEhkJLeS1kPpC4kPXu1Cv8/C2fC7LU0OEuJXl/utDLPBZuRNSh4vWYdOPstbelU0hG6ur3DgbDDtnfYske+WjoZRi7AgsvvFAeGtrk388j0WOJ855T2AwTC2luNdiw4MXfcQl9r6pW683MCIgPiUIl0AflPIQRqf809yi8J++0yitgFRreBqlaYFzPvgI/Vk89rcSruMs1T6N9OVcf32k2hv2lFMCKkacWAT8qBxrYwyq2OeiVJp/KtGKa99znoFXLOlLJGemOK7rsFTBIy7rQYSzonOEDuodHmNHoLX/Ve5my3+/7XYo29vbN27cuOu/YuJ/y+WNN964fecOuHXLf22Es/D37t67dw8Vr/AmmvfuPbh//0H4i8R79+6/9/77W5ub5FVpQqhiemqfPjiEh+INqYIdhl63i9sssshcjYZ/srq5tUVmgfpUtE7ZgGd3vtX0GbBer5MssGDDUg6mRJama+H/8FtbW8Xd+/fuQblJ3L7tf47mrfCDLaRaZjl15XrADfYBoAA7EhCeQN68ud1steh+FZgiLZIrUTbhRwh0yBpksWbTP1nd9J5uEsCb2ze3b926cfMGVW7cuHlr+5bYuXP7zu1bt25tb4Ptmzdx6d7duwhpjn5xB2q2mtyLyJW4J4FqNZv0nSeZN2/c2Nj0vyZ27/59qXIjFFIwneIuCEVztbWKBarjJD3CCPdsAkgO5OMQduBpTmrVG3WSovQiz/1/Lri54X8e586dOzh89+49OkJ1fAg2dWGMKXhw7bAPSOhSt9XkblGn9e1bPtTUqoBY0OFbnLp1+7YAvgQS+sWQ4zn2CS9uM0DQVrNJu3jOnOUQ0CjUhWUB49ii3UYdz511fMrRKc+TG9zk6BfxJCB0B0o8gaaCTsUUdgaA2XOHgS6Uh2etI8ee3M9ah0/eH3dQyKo2rFiZmXnmP9SSnmq5/19VWQb61LZ9MyTzW0zRbVbRN0hTPk+RqkgKm1tMmQ0S2fr6BtNyfX2d+QOY2+sb6+QCrHGd0UEyC4AZCe5KyIvCsP/AepM9ARhyPQs3JjnOMquZopLvmOQNXs2GxrTqXy1YkKUclE5RBYN5ljVbzPo+cL8EHuIbOqIJgwWdpuQFLHCYkxhAntEWnV1bWyMgB7hKH5vhBoMmu1TsShtTiCmdauJI6kfnEOGv7tfWVpGsrfK+thZ4DvFkfX2DpgA3tjw0nIWPIFprluHkOBifjjTSrF5v0DTpT+xgoTQFv37V+wYDmi3/bSJfncqpjxbe4mSrSfgapGN0xoGzNEOI8iy7evUqTbSaTaphDSNcM6agv6x/EqU0/9jYYaHN3ZEHJHmWUxEPqci9WbC1uXVt69rWJpcMF85IcGqTa4xoc/HgGJs/mGVzhh18xpTRJixQ3xPfKs0erBKUZ1Dmwx8UcLunCvp5lqlQGFauKLoP6ELEqUSgP12X2zbjKwaFgXKJiKSkXKqAQ+cvFd77sCop0Red/zdnXVEY5g9gm7wgq4Ee13+3MAXxIdEwResHpUFhcgdAWs1Ws9lqkPkaPoOgyS2BmR9AcsuZVEwt7JShokWmI4cIAQkHCpC48OHaWsO05Hna8+fPf/n5Z/89jp9/efjw4c8PH/766Fee73GqMIZkiqem8H/vvrfXfyyJ3wJO+R4Z5jKz2/Yd8x4F1wLJc79XjgaaUBwQWDK08atRfONzPEs8smme5dWO6FTLIbvfeCvATuHrFtbIFST2EuwA+qhIgHBUhgakmd+JTlNP0aYinou1Lne2bm9/vwuMtVprepHludSGZlma49YBQp88QY2OQgWIaMW3rg4vaGcdiZGqDCLwA0gWZ3ABxwGMOTeVPPO+oYx7JXo9CXP/u5vIlVJ0qOMfEe9xY/7tt99w37udahzwVwkXSrPJ3Y5LhnsGFHBYgkPAKbB58B8q0ToRJQQ74WkAlhlO2qLj3IZptwqlfNJo7+7iRpu3tv8tIK4Qnfo/kWWmA8Lb7XahAow7d2SwqgYjf0wR8ON0HKaN4ZLzw+kklfDGlW55ebjKSCu/j3ccLpwVm3TY0mEyimUKkEf2O+0OS6TwPcidXXmQVfg9aG4AXSZrt0f+Qp2KQLrBhBGGKQeEH6AuhHoaITqFMd1ul/0ZVu4//fTTj6H885///P4flO8f/vTTz7/8wqkdX3ZxdWdnF2U/lzudcsnGIpq0S6/wnPHGrJLEmmoSBEABZe4QdIezQJyU7ljjt7SlIhKd6jRLtfZf5nH0HBA451AgyWEKOy70kQjAWGuQkz5I07RCc1DUOKRrOMYpfKNpQNNAalGxMP6+hUHUAPctQEUkKONEllIyGD2+ZNwuAlADeEUTgFYEgfezAIYbBjmUdBkY3g+hdUrGpDogzoBQgy5XQuH/mz3kGMSIAD/pKXdfmBfPX+zu+P8KkWsm+NJ3KuNWk2Z55lsReWD9oQih3Ay4JaCJWXQYRAxiDRBM8ruX45xmcHABwPQzBnEG6AOChntaa5pAyTqHM4CBI85QJCgADF4e0F/BaXW5P1TLbZ4Bll4x3liGhw6AyxmQCwBMiQG1C3DoO5iyAvWzLsuYUzkpLONIk818OmNeBc6PBbESMB9KSBDSVAOd+mpUJ8goMHlKlBU5pXieYR15Chg0rOVs4AtT9D85mMIwvflgzvbP1uYWn83l0z1L0SzPOWQbiF0gPu+zUdDtdbFQrzfQaTX9s996KKn2buOhs/27NGo0BLDvZ3hhDk/hBXA8c0mbrRaLR5INHaJ6CTxPM7+MpZ8Ii8LfAAiR94q31H9fhSqAs4DcURh/aySy6NTyGoyAXmCKaAPMAh897W8ehEiHggVARYDPAP9JtTqo0ToZVsDSHpDRSnDIKVIbDtAt7ACqe8qx9QHBAdpFgSQIRUyCzDLfi5WVGqjVcu+eUlS01hhTcLPpdrusANh1wR8sNFnpN5p0mQ8Y3HE7nTZ3NUytrKzUannYv7oK43uHUgU0XQKvQHkIgz9IqNhoNqUuVyVB4xMJAeQULhEKQDQAEkDoAIf0iHuM1tpZx1CyScVHELxFxzl64n+iGU2ABJQM/MWGC6XsIx1n0KHAM/4F2wdHgAP0VcK7glkK+jNzKbZKIzgYesdnUu8oh+Up5NYaaCm58AxXf5qmTBgu/WYzfDT3c9XvsqysrGjtc81SgsBsH7ZDtMnLrLhJCju7fonHlCYhMofrjToZfPuW3+Jnl19AQt9gR5/XxkYdDZ6j5hnjJUmTFEBiWlnxzwlWVlZY99Ev5jOZYrjpkRJMidwaS0BWVlbwJE3J5ppLXE6NpFxFqAEiBj2E9mVkFRHSIhBeKKZoS+DTWbqEIaAJAU04RiJ8wujzHAqCRsnaUBiLIPZ3AvRLEFJ8E0qUuG7qjEXGprZfIMNzl2X4qijrTskwph5hFPGBhE5DAEGasdxSuOp8Z8L7QY+Gjed5hqtcBiDP8lT7rEId4pwyOIpOwPpUMFz3Akv6kQv3eOkmURCmpEhAebhcxg/D3Bb7g4Z36nDkVChiE5bRZXCZSFARQl1ZuARAOER+YVCOK8w0nQoBGJzeAxUxBURIzGCoJVQYeJHDAEZHh6/3scJiX4W9dbZonz33//sza0+2LPzujzGmKEgQaweFJRj7s1BABmHeYpyFpLWG0azlNbJqdShpqISjecH4RCDKmMI31n34hic4QaLrp7lgQdSmp1xgKOMqFMB4VEyVvnF2iRhoBcu+odB9f+rghbwKxHwm4GMNMIWhCmddZa+SQ7JiyJUZqVZrkm1KfBg47o6IW4MAABAASURBVNAMBzwBJBFXQa2ZwEcEgDUoPtBGve5/wEcStHMO31gK8NEEhcL0H+oON8HtmXs81wbgguHyoC4DCh1WvoQSiYNcogPdJ1ZgQLisw4WS+zROMI3JMn2q/T1AujpN3QGdc3rIVW6M3x0mkbXbfNru9EvbP590R6f00vvInNzr7HU6/q9Mnz7xfxoJYaP28ePHHMKwt0t6ZW4LuBmTSqCAieqcKwpDKgHW0g//Wbvd9n/w0u2Gu0Pht01cZXkyTRcspoqCVEXr3HjYZcb+NBVH6mjlr6uRpxA66wDMsYImBCNbcVKCJ5augv4bnIerXAZ0B2CnvxxOM/K4j9XOzvMXL/yovfD77EgYgH7mDRxVZoL8/Srxh0kz/ziUWwUfp+Cxg7O02+36Ye52edq6z4Wh1IhQc6mwcc/VAtChL3SJaCg1QhnLlxbDedznRn1cUVoouatQtHfQ+0cW01ojy7Js1S//Wmmacgi09gyDypDLb8jAAJoHyIELRbukBMLXIlSailRNeZe197kqLHk5K7QUDjBytkpFgU4B4YWSGj2sn804ipBosP5lvQNkvB0zKeRHYiVArUQ42V/XC+8UUfTrQxMscu6InJ7RuwA0e7Z4ubv75Nmz9v7es5cvHj3+7bcnj5++eB7wDP7nXx/98tujpy+evdx51enuJ1o1Wq219as6y5xWJnEYsc7BFNYWzmQrtTTPrUo4CwWcqkIk0MnACOvSvL4CDPYDpErV2mSe/Xuq4AlquAc1iUUCTOJ9hgHCB+rPoi8IEq8WGGuSEqWwz2BkACgjMZVW5DDQvh34EqJZOGN8K25AzqEh1FrBAB/zMI7Cd41h+F7t7jCCvz7+7fHTp89evGBMu0WPuzQj+OT5054xJUwIplAujyp6puAzE2PdM+bhL7/8+PCnnim4FOvNRnOtRVi4AHba7Ue//fr//e2v//jhh59+fkiLtPX42ZMSNPfw0c9cPJ39ParoPOVq4cJQqcZhBgIKzykBhyNRXuQnzMgsG6bMp8UhfVGaye2BQesYAS+Gcf6FzEtS7QsnOPaUC8C54JX21ROuAMRzokytc9YfWS08Klvlgz4pXilNH72jwWX0pRswEUSAqECPD/7a0cw7PuKn7d02S7C9vQ4rtRLsxf/yyyMpvzz6pd1u94qesabb9d/TwDHxUCiH5fCJBAqQzwSuClCtUpqtCqfkJzuAZTClqbnVaEIw0oLzE5o5LXCUkWoIR57ytR13MR7D+qcd7XaHZ63Pn5NrH5fjCGPYRjkKa0nvPokwAXXqJzuDyydIkjuUbbpff33EpwHGurXq/zuBer2udRrkvz586L8U+yj8LB0E4U8//YRQAP/ol0ePHz9+9uw5izkWK2mWau2b8Is8tVBWIg7HhtM0TCYcaF4xDdRxxcoPxkB70x8qPNPhDqMO/WOA2SXMQ4HhklKhVDvGFdy/zOUt0OnbPfuaoUNO6DTeTqNZ1cE0ZpEIFQZe5DAlwjjkDARg+iEXJoyJ0gwPr1RLSbV/tMiWa73eQAHlAZAjBiTVQ0fzB6jKp+RdpUxZpVTjShTeOQsDLcEhGDhEshQMmxVJadxatij8l3lKyTjGOZ+Fy7MSf2f7Qudsqv138FkwtVrNesjCjHu3UvzezOGLzbaiIJd3u2zgdNrszHVI6NzL221/sLvb3vE/sdnLcz5nH2Z25xw3CDShpTMwzlmeEHS7PQEKhf8TDV2r5RnL/jzTOnWhC+Jzdb5T/TJDAqL0YZIso8Eog/JwucxCyX2kK/ja7XblGut2u1yRSEo4OnpwvY6sHoWLR4AYl/BLKpJ66svW1hYfp8gL0KuhyKPUmzdvbvMPbN9Esr6xvra2yqRd3JOTsVBm9pHN+UsuZPyRZ5cllFagIw26ShmpME5oQ7rkLH0kO3BjZvju3LnDkG1tbW5srJNSs8wn1lSnpHIBedmn9h6JmCnY9T/4+fzZ02ds5Twl0fMMBkp2zvKM4Q7fhb2BWUwFNy0fuq+uX93c2gS0srUVuE3f3Hr43iWUipsbm9TlysnYcU8z5rjlE5+1fsGQYmz5uYU4nGswggP++2FVxxWopdllaPEbqrX2iSRleHUoKceaE0pz6aDjnOUoVQpwLwOcBcolAIWIkREgREBOKTgtpE/7b5pwehWSgoADHpGF5V5rbXWN2Xj79u0bN25sbW1tkMWvXt3c2Lx/7/4bb7xxE+HmFjkfNe3HzK/iqS5QNKe9xB2kG5FHOi4Ci8sJNWi3d3d2d5gyjUaDB56ARExuZQQ3N7c2NzeazaZztt3x+2ms1AG5u93p7LZ3Be2D0vF/f+Zzezixk+c5t4f19Q1cVQfTE4aNu6IoYLiX0BDXA58VWi3//8xwWG/U0yzlirpx88b29k0uomazxX0CI4YdGZ41JEmKRup/LRJhhEr8c0SSG6hGg0PyLxCGU/K40R86X4VTCOfGgtVHtMtVWJWSFKqHLqaGajiOhyetE2eBtYaJtxpmJiuyNcpq+O2VK1fI44Jmi+nZBzOZTRz8YhHG524/W61x1j/kSXX/auEQhYgTiIBztmyFXCz5fX19nVvyxob/5UvyLyt3TgG/Su/6D82MnVR0zjGC3A9qeS3L8jzL4ZtN/31HjDQaDWiz0Ui1v21XG8p8IUNn3j7VslwrZUnejq1/nec5dUGz2f89DFYDztEWLfurT0xxexAm0lOJQH+6LrHtweSuFMYZcChwIblzoSRalXAqKZHEsrwIOOc/JGEvy7Nms7W2tkqWb7Hoaq1ySE6HB6yzmL9MY2Y+E5paPJrjAz57rD3/8iyzV6daKeWsw2DEyUTAhflCW4yIMZasysAxTKBeb/CZDKaW1xhBPzTOhQ2ZwhjSsKUuQh0Kw5rnGZcB+mura1tb/kc0N9Y3Go3+36basOKmIZCjl3GLr/EOT+pniYa5whSoae2/NNlqtqiLNYzSCm1xyhq0nPPk8J6EwYhTicDMyd1VyvQeU0mUjfUjL3ykc0fAz58yyQYrIoGGI0+cO5xgzrmcaepfGSTzfJbnud8tzdI0Zc/F34OpJhO1KAzjZK0hWRimrPFP8zAC0Ik4lQj44QgDQesMhAvjm1KylJEkz7KNzp4M6Ha7Wvs7MWtnoLkta9J7lmr/27yNZmNtbY0PbdzdU+0zgGOwHYU3D1Qx6A1nWajqTWVZin1rbZrqNPX5HZ0szTiHP9Ya6gP4ceCsYJzChZSzx3Ja/fJDO2Xb1YGp8q+t7rhgnOt02uwBwlvW6bqfSkg/wGl1CDE9PcX42UDVi2H3SZoj8drolQpV+6VwmEGN1pHLlGZug5xMnuUs8ZiN1liW4qKD2gCQM4EDNTC8qM7qXtQYPmFKimYAzVo0KzjsblAoidd0GDouuJlK2ZEzzhBN+mWtIXfD6FQzlPV6nRW0/zTWbMGwqAccgqxf+nmf06trPqGT01ut1SzzP9WJHca37DiHgEOunEaj2Wz47+TIlSN0a3PrytqVldpKnudp5ndycAYLeEUtgJMeGuJfSASYBcJD4ecG1WfCrA3NZHxAmTw+DHT8TnoS9tBdoIl/uIgwOeYyQ3IXT/rBCjNUJNNQd7DMtNbf4aepEnUmRCCE/8j2iEigE2pNc8qPbxgsMjvrd6qsrKyk2i/tXZAjiTiVCJAyq+0q8ucByPWcunLlytoaiZ3s3WqEQvZn+EAtr7H0JiNzX/dfkOSNxOz33Hqm8FOSwfVDH16YSrX2+zI59WpUF7BxB+CRBkV/BdqDGY17uETdcZAq0HEKUb7cCMyU3OdpmsuPas5ZKMu6QBVLA1mq+6tBK4Ql0CtRCiMzUwT8NFP9qDJLweTqjnuCgHEylrUY+gi1UsxkkgLDxCHCiLMQATWqZHnGYLHiBvW6/14NiVhW3Iwg2Z9Kzjn2zXmO4lH4tM5YW8fYOl8Obt7OWYRcNllOhsdGluWH4A4BsAaGo8GlMiyMklOJwLEnd64SrhXnHMzIHpKE/DlOB4zUicJlRSDE2MfbkMQPUBXC0xbDBWUOkxdgqAAtgQ5woZTCyJx6BJqs1snr9ToMzpB8yekAhsMwXM5ay1IdsGons7uw6uKsQDTh0WKIOWRBJmBBBgMFMJxCbRww63zBhn8bpxblxxqBGZI7wwnEG+7PAB5JCa11ycNwCNApIVXkME2U7Do563BCWSeQs5GOi4CfKwcvpk4JkVVrMRiAmAs4hTJUIPpVav2SnfnOh3QUHUkhTUd8VZlzWKAiFDiHgM9asBHHGAEXCg0oxXIoUQcFCdA6VUp3e132WgpTwORZHoR9PXRAGCtviGF2Ia1Ti4sEeD3tLaMmsOF6QA1GqMir1IVSSjACL9Q5Lgy/b4PEhQLjcblfJD325fs08Zvv5WGSHBzCAIIHkvkLeXX+ytPUDMPaJ+hzMcnYw5fgMuBCkENRFT7SpUdAwhsoIT8CaSuc8tdUOUyMjpwqadDp1y2FkTnhCISpdGT+GnI2sBaGdxfSt3jFaAJu2NzpoanWWZrxsQxwKEBBlIW6UFjp8y7UOQbdUURhAkWnigmal+EUoZBuDkSYEezLNWeO3FlFviA9cnHMYcs7hY96WjtcRqlOaYgOe1ifRzg8d+AyH8DZ7IKfj7MEWQY0UD+mpIlz0c25gx962ifjjDgJYqDjdE5eLl6J68Jby3ZLwX46DJIBl0STT2PAb6XXeMSaZ5l/ZoqEs1V95yZNTOe4KEYrDNip2rzk/ITIkEGPIzh+Ah+H3apNFhFcC6n2bdFD1g7Vs5E/yQj4+PdffjgmNM0EnnD2PJy6XD6yuAZkd6jADSVokogMfppq1uxQwHpLIoV+CZFAfRpn9lrHJk04a13lAwEKEa+NgDsYCIIvykhAeQgD5NQS6Wtm+GtbwicBvlrLwPPehw3FFAVrCa4MPgWKNdljEp7m2WqH53MJFLB3CJADDucGrsyEcQ2NMzKs3+92eKuelfiIhG6WEInQUGkqIvpCqxWqEuGrnssCXJpmPotCmOpeJocDlLMDEjmkURjODgN5CdRKlMIBplQYYAbURh4OVCkPJdrT05HGEboyqx3NZW5MocoJQBofbgi5CJU+8ukeuUDOOsec5JmK63b9f75RFMxOE/40KSzAyivG+cKcNYX/PUsOOA3ECBRJSWHGYdwojNM/j3KyWYlx/vNIyjjrwshYlfRM0eMzljWJVvBFYOCpjg5An49FMEmognw+LJhCX99oYQxXEs956B3aWnH5LeYyViJmjACzEcjkNYaL5zX1GSU0qAKNOBcRGM6kVbcZyhKWbBLOwQBYTkGBn5y6Pz09r/q85oJQCjUBmhHTR8CV6wOtuF+akBIL/9Nsql6vr6ysqFCmNzil5qLJHa90KOPaY9neox9sBBb+P39AH9BbRwnJZlzFMy7H/RLCnB2HxZ8qFd+YySVEIjTMXJm/fSpyaNWI8AgvEqp9H9cv6bjQcTonKRdPqnTB1pmSTOI0S6GAQwE7NqRhNoHKAAAQAElEQVR4qAChNCRNCx/pNBHgMiOwaLLM9Ytd8mHP58NWKGVgUajyHC6CRZM7w0zzExwqCmOKAgKdrMnZiOOLgAvLB3ew/eecv7UeX3PR8nmJAJMX4G1IQP7LDnKIBMCX4NCFAhMxRwR0mrIvVhSSDgsCy7KdxTtMqn3ksQkPXQoWTe7ixPQOcW3Qs06nw0ZVf5XINVWBGIx06REgxtgsR4pDgCTikkeAKQkIgnNknv4mO4cjwfUzjJGaUVhGgInGByBPlUpTn8SLooAhrQsajYbS/R0wwqvVctLyolZcWAnKJ46yM5MZZ3laMFklnj2WCCh1eD89lgai0XMbASZyiXPbiTPqONNOPGP6kbtBrVYjrecHJcv8/2NF/FFbVmb3pnjNjb432vs8jRF6VaqxKeAfEGsFw3PhEqVCZGIEYgRiBC5GBFj+SoonZ8qafXV1lT2ZEmU3UROUkrmZRVfuczdMTpe6MKzlS4gw0hiBGIFjikA0e/IRYP0rjUpyZ+XOVgz0YO3uf4FZFJZITyG5W5V4hO9jwRhnTOJKlFl+SmaJsYimYgQufARILnPjwgfnmDq42mrJpsX+/j45nYTOnkwzFDlkLV82LZpyyEgJMx89heQujpZ++5U7B2HvnlMcApiIGIEYgRiBixEBHndJR0h1bNGwZm/UG1euXCHDszPDnrucXS49teRuyOY8O1B+z73aJdl8Z0UPqvLIn78IRI9jBGIEQgTK9TjJnVTOyr212trc3CS/w5dng27CIRB+EXpqyV2cJoOr+N0ZiUWkMQIxApUIDGzMyhmS40yQWqdIy9128cEaS+L2K/dG4+rVq/JYdaBHork4PaHkTgK3KhFadVojShLye4lkbMHVkRhbIZ6IEYgROI8RkLQ+4LkIhQ6cOrOHktmVInElbLi3O51e0bPWkt/ZkGHzneTOhvvu7m61C9VcX5XPyvtWZ63zWv2qc4r+qf73819bcV6FWC9GIEbgokWgmkZKXjopKX4aKvqnS50jnxvW7KDb7Rpj2HZnc4a0DhU4njQeYFneHktyH3aOFD8srEhwAxwKXCiHx8fPHQS2GmTPL7flaivLtRytzRcB5we5PyzzWbg8tVylXJ5eS08rl4mr8nJ2HJULy1iyui1MAVi/k+lJ6+zMsHIXwI+zsIj8SEpdxFC1Lt4D5/wXHJUvI1pJdaZ1DpRKXfjZk6qFyMcIxAjECJxoBI6hMeecZEKowDm/E01yl7TOsh2ehfwxNJ6MSLvjmsEtIGeddcDn7coLF51WAdZpNpasUx5Ws8dEl/q/NOuUtonWSZYmKciU/wJ/iy2oZsOYIrEOyBa8lfqBJmNKcARfBnFUXSe+p566MeWo/uHRGHV3qPE6rmqhqjtOXtW52Hzl2jnCVntdjVKVr+pU+arONPw0dafRGddWte5x8OPaHSev+nAk6JWDqk51Xh2Rj2mgqjOZFwOiU20FXoQVjw5ZOTU9xdpSMK5F6cU4KrXCkt3/PG6v16umchbsJHd0qG6dLeGsA8iBCwVmDpDv5qj1mip4Bmzi/WJYSPiJsgFFoookKaAu6VpnAHKtU8OnFmPp7WtMx9MxAjECMQLnJwIkwG6XrM6WDGvX/u+yWWuL8HvunKUrzs2wWER/Ssyc3PHGWe+K0qraBnKAJDiKWcBRQu4GSplEdfvQ7UTvFWanMK+AMe1er/3q1XPQ6+0noWAEBPaECM2NxHKbrzaxXMvR2nwROI0Rmc/T06/FxC+xXG9IJlUs1/hSrFWvkyo/2TiabLfXauzBZGmWAnI6mR7AUBcFKJlTK11CQoEccArAzIGDFDxLVetw2AzUEA/wFVjnrwHnC8+FE6UNS3Wf2fVe4jP7bqJ3Cvfcw+50i5ftvee/Pf75t98evdrZSbgNDJiOh+cnAs6PvB//8+Ny9DRG4LgioJTSqc7I7bVao14HzjlrrTGmF/6zDnc8a3bpzwzJHUcFOATgxYTQ8tAaIxKhSidpqlaaem29vrpeW9vIrqwDffNW6+pGulLbd65dr9nE7RW9TqqMIzO4wnlYWilhw847IpAkuA2kBRgg/DDlFBiWR8mSI+D8yNnSqBwKLYWROXcRUFqNRBhtGd6j1B2WyZ0lY5QY0JQWB4TzHYqp6el8rUyoRR85m2qf4ldWVmTPneiR4judDpR4oXDEQ+ocgFNzY57EhzeA1qutau1N4TSnDuU8UHVFXlNX11u337h+78HNew+u33vr2v23rt/39AaS+w9uttZqjWatthJssDvfr0+mAP2D+DZHBE6+CqMvOPmmY4sxAmcwAkyHqlfkOIBE5EI5PA74jDzRLul1AP456agqVimn/J+clvpey9pCp8nG5voHH7x9c3v9xvaVgNVrt67cuHnl+q0r17bX17fW1q42Vxo1nasksS4xyZEU7+0cfUkTIqvyIqlSOVul1bORjxGIETj9CKij5fQdOikPJLkf7f2Ro0UceW1yn9a4dbbvqCZBSy2fUtPM5bm7upFfu9G89caV2x5rt++s376zsf3G1q3b127fvrZ2ZaXRzFXaS1NHWreWbRnPJHH/XQJ5zqlzXBt9nPOuXCj33ZiyrE6K+WVZO5t2pumj6DAJmAMn2YuRyd0nZVbQAdM4YxOW2/0nA1aT3Fl3A1+VZfi+U731TXVls7j95kpWf1mop2l9L83t2lqjdbWha6axlvVcu2f3nr16srv7wjkDfO0jL/FKRMILFUmgNDoS4eTlJI5r6kQg4S1XHXI4TN2MZdhClJxkBMoBHWT04F68eFW91vqSMOLCnzyt+jMNP5+HoYt9MmAB6YDkxA5HJvd5WveBC/mdJwOH9ZW1zhYk4f73ZHbCt2X8VyETtZfogy9Hhm9JFraTqP0kKYztOWcOjUTunEeA67vEOe/KhXLfWTcSy+qkGF+WtbNpZ5o+Oue1XCgn2YvXJXdZCB/xyIUVPQkb5vCE3yhPLJldKeSctWyweE02aTwkj/s/X0oUtOv0vtV7Tu/ZdC/xiT5QsnyWJNolqYayNjhsoM9Zb7PPhzfxUGgQjCByVuiI01EUIxAjcPoRiB4sNwKvS+4zt0byHaxDovYJf1BsQ5YvWKrDKG2gLunxSJacrrWD+jzut93tYNV4HCMQI3CuIhCWrdOSc9Wzs+vs0pM7BvtQViunG3lKZldJnpgUqpOaUjmMUlm5i6d1yrATJCRs5YXlP7ndeb5/cPBpAKUJcDoBExTiqdOIAMNa4jTaj23OHwEm5kiUA1oyOmUeaz9fmbcVDLftNykOdoSGzyIRBZjFMdL5CcLFWzw7FkjEy3GGMRZDBE6YQPXOjim6ibMrmW4lruZh6566LBEk2f6+8f9dttNa59gJ4OpQwUIkMQLLjkC0d+IRkHzdp+SIEgdZvn8qHJ64dxezwTmSOxsmPv0mCavpwaDICCGFgbKO1knN9JL9Trrz0j1/2n32dD/QvefPOs+fQvegr3a6u23TM9olmTGaRG8PfuDAOUbblcXbPPqizkgc1YpHMQLnIwLlpT4lczK98rOQiVjFGP+m8cenj4PXNPrHrVPt1qxtKVahWkkt6ZPwZ4HOkdxHu03H5ASDLkygem11g49ru6+K3x7t/vLPlz//M9Afdx/++OrhT88f/vj84U9PXz7v7rzq9vZdUST7e739/R60V/TCej6YGUP6Qa2cpT/kegRCYSJiBGIEYgQuYQRIhjyuHEAlDmxhg6ogfN/xQOD/JJW0DpIEU1pZR1aFApcYpdx+t8P6/fGjF//3//WPv/4/j3/9af/Jz72H3+/89PdXf/9/n/7w96fPnxQPf3rW3U+MUWzgWJt094vd3b0Xz18VNnx/XiWuRFK4pEAqYEGBcaDZ0gFJohzgcax2VimjHBpHkYwpw5qTJWPMJEdrVdcEo/lxdhaXiydixw0VkQ/TIcXXCIYtnB3JONerHo7TGSfnUh+Jcfqzyqu+HTcvq85hKu1W541IqrR6tspXdap8tZWqfBG+GtuqnXHycuBEuZyQcii0WrfKl3UHGCc7GEolJDvhWchXoXwR41BSmc+2KoFyeKwgIy/HPj0QQ9YduO3vCrqWr1ibv3jW++Xn3Z9/3P31p86zR/blE/fyiXnx1Lx81nv1dL/Y09rW6tnqStZcba2FchVKcMXmSIrroHqKzF49jHyMQIxAjMCljcBAenx9HEi4chOGEW0O+4xivW5FLjRJdH3lauLqL572Hj/a++3h3rNfzasXbm8n3dtRe7t2b8ft7bpm7UprZXOtsbnaunr16uba2mq9XsvzTCm/JnCeYNZDGrLKv3MPAZ47eHFXFBwI4nuMwDmLQOVir174Y/mT6Z6boogn4r/w46jSqsQ4nZOUu+C0tOizjGM5LkevpyxqgehJp4SfklIXvEZ53tMzJ/ejDfkoiHOpTsMpvx+ShDV7wkaNfB/G1sjv3bbu7tVMt6Ht1TxZyxVYralWrho+udev1vO1eq1Vzxv+54/zTPcNBqtDRPJ7KR7I8qX87DNyYU1Pz36PoocxAhc+Am5kkTvDAD3UtP4m4g+t8xzU509i5Wa5naA/JaZM7qhVQO4G5O5EqyRNdd5qrWVZTamUtO6cAmydJyZRRpmuy1QtV81mfTNLWplb1YaEvp706r22SoqV1cZGrptk9pW01eu4J78+efXs1V573/ZsmqRpopTSAU5hOEn68UgS8jtIUuehlQMqdQCGGmhDk0wdRXLOi7VmSnDFAOkuQRwAp0ZC9KenI41MEE5vWTQnmBp5SmpNTwfCcoqH4rNc7MJfbOqsA9JHVykiESrRqFKRT09DI7TjUTYi1UkPgpBetAidV7TVWiIvqQulPFyEwRLX2yIWJtftd2my0rizOMcp8U/r0aYKUxA71JKE1J8l/qvu8j33GvvsmsyfrGRJvZY20nSllq5k6Uqu61qt6FSrEPtkmsKGUJI4ZUWXG4BVwp51SgxnwlnvT/TvHEcguj5tBKrZv+RHTmTO+vvFwTl/eMDzLu2VjBwui47OyDNZV6qfR5XqM4fVybnOL+ATmKSLXCcqTZQyaQJsam2aJmmWrdTyep6tAPg8r61ktcz/ISs3g5RaA3CKPN4HSdwq66GhCC2ZfUA/HsYIxAjECAxHQIUS1pD93KXCinJY85gkmqL0cRk/JrulWW5K1hbOGWWNc0USFtfO/6gvL+WsR6ozneUaqjPP61TrNEtztndKOyMYTIGkv1pPYHyWT0K6H6EeRTECMQLnKwLOugGcvP/igjsoJ+/A3C0O3DQ4HInp7YfqLtBEhy14H5XEOraKXdJLUmN1t3D7hesV1thEdQv7/NXOi5c7PeOAdapnLCg4xypfp+HmCsmUypTWwN8h+mndJv7vWU2gzpeEW4h/58YQIHyVWudGws1YRhpBOJuZ6SM7n+Y4bwjoSMzXyqy1zo7+uPicvFxiItem8NNQ0Z+eTmNzPh2JmNSdxp++ZqgmvNAg6BORVGn/RHhjspUIgPN3WgAAEABJREFUgj4phTDVusJXL3uRDFNX6cDAWWyCAeHZPCQLH59jGNchSn557pwzibGqcIp8bIrE2cQZZwvrjPLLbYNE6Z4xReGMJfHbKTZYbMV7eFARRDZGIEbgPEfADZWT741zFvgXb26KnHTyLo5pkfw75sySxI4NcnZMVGKc3xNPtLapKpQrtAUm0LCRYkn6AeybJy7RZRSVS3zyh7pRPrGEFySJ13R9msQSIxAjECMwMQJKttvDYl7YYXUVlOQsdFjhzEqOPblbZ51z9J8kzwq9lyY9nZjcp3if5XUCTTJlNFs21mkFvDJ1AHcEqIdFOD2ogbJz1vnWceAQyCNiBGIELm0EXLVIYggSYS9SWKZL7iTmQ1AlQCSJ8DpxganEhh0Zjvz2CjpaJXmm8ppJUzJ7kae9TJuUFK91lrFyZzemWxSFNQKTFCaxznpgJHGp6/+qjE34AOD6y3PlEuesc+zPW3+Ccw7GeddckSSz3RJ8QxfuFRYlI4gbU2YNwBgzY8XT2xcTou+sey36ms4X4SdTr+ec6LzW+KGCVBumU3h4aGS8svhzGaiEUHpajYdIhA5fuCKfnrpK0KWVal0XSlXugr6s1oVW9eF1kMKcfZCRj9VJWzjLCGUr+UqjWWs1VL1m89SwVM9UkaVWp6zZ961t7+8BlHvkdx9fR5GgO384W5qmCr1yowryiBiBGIFLGwHJKlXqQoYROjIs51R43MmdlbVTma7XW83V1fraatpYYeXeVa5IU2DS1Cj9qtPe2dvb3WvDsNJ3zpmwpPI3ybD3rhPLO5Aou6HB8ALnuI84p3hDzbn+ogw+4mxGgDEaiUW89VeCPbAKMxJyPpxapK1YdzgCElqhw2cvgCRcNTPnFha4AnKaMIc0iI4jMsee3L3TWiX1lXT1qlrdsPW1nm7sqVpP1YzKCqV7OtvZ77W7vd397l7X78ZIZvebKsqy8UJm90ZGv3TissTVkgSaJYkerRWlMQIxAjEClywCZMMqxvSeFHsIdkgCROL3tW2iAoT31NuxylOVkr510Vxd2b6bX3+rdu2dlWtvNTfv11a3Vjdu1FbXe1ZvXNu2SdYrVOFYs/tq3Pl9Zf+y4RaHIMA6lmZe7HM/rLJ2xdpGYps+xTv6kiQu/K0q7yzerUuOwo0pYnOYhtZHkGHNk5GMcf+ExMN9lNCInPEYCTkrtOqoSIap6IhcDAo/mVY1q/xwrerZKl/VFB9G0HAFSq0qrdadn5+9ZvgqR9gGZglVqV71vCJOpvFZdKSW2BFexlqoSIRWQyISoVJXqEiEiqRay0mTgR6Vu4FSPSvWhI6Ty9nJtB++EErRdMEToSIp7cuhnILK4WSK4ckKx3Q2ZMNjsp0kViVcConO1UpTNa/U12/Ur243rm43r9zYvP7m1vU712+8uXHjltO1rFa3Shuyu1OGhKyqjtnxDoaVu//VSVm5j1eMZ2IEYgRiBC5TBKo5dKF+k8SB1hpaMaSNUyrN6vXV1db6Sq0R0FpZaW2sX1/fuLG+Ab2e54281rTG7e/1CmsdheV2kijllPbbWxDl3xMpclsVHu0KWMgrDjmFDWjEWY6AjOMwXcRnxn0mLNJWrDscAWZfieGz51Hihi9QN2G5ObqLZEUVFqzCwOs0DXyfUM2FArMsLC25Vx0KTvpkDKNUmupanjUajbVezwWYbs+ptKZ1LUlXsrRer68lSQaTJNr5J6K+rhgkrevE+m2fxJLftUgD5TC8RzJHBGKVGIFjj4Bk+WNv5pw04PxN4jCzDXttQhmWzy2pZsu5jfiK/RtQeLPhO+bOGU7orKbVikryopus1FrOpr1eopJaqus6rWfpSpLWDLvkSWZdTelaIvvm1ExQS44Wy6HmDhCApqooc2oI6AsOz7hjLoctnQ1ubHet8xfbrNQdFumfHAs/DT3SqFQephWvprF5MjoqFGlL8QH1dRBNodJF4ZdLq/E84lXwVoi0PoJW4ly1U9Wc3lt3xIQ3LXU9544UkchZoariukiEimaVuqFWJkvEzvHRautVP4WnXS4TRsH1i02V9hnMJWmCuA/U4EQFhsOlgIaWYueIEfESkSGX68zp1Lg08V9rCTvjMElmigTwENX0lOUu4IVaqRq1JHUHJpIYgRiB8xoBFxLxefV+2X6T7p07XLkPJ3EbyhKbXSi5459sssM4rRKtA1VOsYeSQJMksey0JDphba6gmUs8OOwWCej1TLcw6CQqtUkG45S2KkkS7Xlub7AB2oW3SGIEYgRiBM5nBMjvpeNkTqCUKiVLZxZK7hO8kXuUSVzI1CHRS34n0Sck6qywSWH97wYYo1nfG7bVnTIusf6sDjcG5InxQmXFSpIol1DCgsCFYjQ1VJFAPTgZoGx4iyRG4IJHIMyCA0LyOMAF7/aF6B7JvewHQyh8ycjhInTR5K6USg5+7StJfBInD5PTyc5QJKzmWc4rpRKdapU6dmlUHjZqSNzOkM2dsqzWE01FpxCS4vuwCvd0EnZsyP7OKd/z8EWaJEm0AxzsK7fvEtBz2EMDap3yJU20h1aqBBWPFb7943wdq/OX0Pi4sbKuv4QoGVctpXQCU9EXrYogLFJGhbuqMw0/ysYkmZ8WB69x9uV81cqw/yIR6kKoqvrCy7QTfjF6ErWrvXBzFb8IZR1aQWJ9gqsaY+uFzpCPPA2BhkEBunTopVsUgww3jGXlzluSkLh5t7wcydojDHyakOu1Qo3uCVAhbwckXmJJ6Kq//g/nIHJJCcV2wspdkPgWUIiIEbgkEZBZINTPl4PXJen+ue4muV1rTRdk0GAAPHQp8KYXMYR/AtbvHknCgp1ULsCy0k5liVIaOUtv40jlimV4qeCUT8lyCHXKL+FtQjUNtcp76BSWpkTM71MGKqrFCMQInFoESOuA5Fl6AA/Kw8UZnzoXt4IFcctw33GOQ//ORxK4JFGKTJ2wlg9n+VziV+IuLNfJ+Cw6ksTv51Ctn8RZ3SPy8Gt8m+CkZ7wgvmIEjjMCZ8Q2k2JKVB2uVvET8OBV1TlJ3jHnmecn2eTEtsQfoRMVL8hJ8uZyekIGx5B2ibIszh1PPjHN4CLv531ryOsBMIa07nM9x449KqomNizPfUXHul0rx3a9lx95kfeBpPs+9edp1yPpi2jaSw9fCPwPzvRb4l5SnQeTeTdbOWzzbHBuXO9m69aBdtVakE3fS/FE9ENVEYygclao6J8FKl0XT8S3yVT0hbrQS+GFukqp2pSzIpmGumB5mIqdYeoqZfisSERFWheJ8JOp1KpS0XfBQ7EjVCTzUjd3EX+EuuCVUJHMR91riu9xPyWGxIh6yHnOUw4EXsuRJ8F8boysRdYbKZ9ZyBNL6uCksw7G8RYYeDnlfPHn/TvPPD0cKR4ROgJLciany0Gg+EfWDmwkMQKXJQKO6TMdqhFxRwoTq4+qzkny4s5Jtji5LfFH6GTNi3GW5LmcjnDPUVphiwvKX5bOEy/RaZJmnGUbxoaE7gJFcxiXKI8Pd34xiQ+3dcN0MauTak/flmiKLReK8NPQoD4DmcbmWdOR7p2MV9VrZFyL43TGycfZqcqdXASBVuWRP74I6OMzPcayTRIP8rhOrIdjEyaR3Rj/bFXZoxVt4iX2qDAexQjECMQIxAhMisDMyZ0s61QCZItcKC2waCdBwwDu8NA+jGLLyfGU1Rrlt2G6iev1YY02IjQKHgWok3q0I/CHfctO0y5ABBUk7OQcgjN90GIJ6wzwNwlcwbmD/aK+6sS3sNRwZ5+O64QbU0IYZuiW2K8aE0mVVs9WedERifDSuvDDVM4KHT47WSK1FqduTGymt1z1Mzx5OjLXqnZEUyTSrkhmpXw+LjFNXWlrmFbrVs9OlkvTVR3hXSjCCw2COYlYODs0TVSJcV4ZZwOcOei09VeXP7DW8mbDY2cVyjgjI+WThUcuuMmqc5716+6E7MwiXTmrQVKkrsicBSqxgfcSlfRQm6YV0vo0alEnRiBGIEbg0kZgnuQebjBqQshc/77ErovSLiGDa5+4OSxUyOw6gbHk+sz1GVI/uR6KcuL3bSaYj6dGRMCNKSNUlyQabnCcYdGUs9b5i0P4aajoT0+nsXnWdKR3J+NVCL80yCfj0W2O0xknH23lqNRVytEzl/FIK52mKYlUvuqu1Tx5+LWBW9Qo/imltVKMHY3BpOkRmyRrMniqEhI6yJVfqmvbU8V+GlI8K3eYLDHKscdjlS0Stk3CpxVsggrr8wIXZv8NDs0klhiBGIFJEXCVCTNJb8K5eGpJEXBsUAdTZM7w3ifWjxEnXf94GW9HEvGUBsnmAGfQ9+64kH5Dns20DjtQmg0W9re1szVlSdzadpu11BV7CTmd1brZN93OinZr9ZzUj44y7MxYtuCxKfBL/uGeOp0A7hQHcNa9Hu7iF66VmcBteCQk+JEuKwLu9VfnkSt4We1GO8MRIKWAYblIyGnggPeTKaQyz0x4if446kKRs65/Jfikpph7VaP6cCPEax3cAKTi3HSe5F42xuc6a6yUNEtTrblOEdANrVReq7UazVS5xJpu+9XLp7/a/U5vf9eaPWW6dr+98/zJs99+efXsMUzRbWdaiTL6PHp1oSTWKYwGfiQpnYlMjECMwMgIVCfOSIUoPLEIMBa0VU3scohcwOGyME9yF8/woCh6PdDzZWVlhVU7uX5/fx8v4Rt1/x+n5jrVIbmTxLvtl932K9fdT6wxvc6T337+9eE/H/7wtxfPnvTabZ3YTLMgt4myvglnaWIQynI2bMrbAzqoEo/PcwSi7zECFz8C5DcdCgy9hQKY5WKe5F560O363F4YQ4av1Wos3p2z8CikaZ7n9Uaj6ZN+YlVvr/fqWefZI9V5YdvPs267ePXyxW+/PPn5x1dPn7r9fdJ65lyqEvbotbMwGCHdk8GtJo9zFOEjwMeYAXhpfB1EgCtwJhzUi+8xAqccARvKEp2YObn73SL2XAKYRbjCbkyj2WRXhnSeJNryTDTRDr00Ux55Qdnb3X3yc/H0J/vkn6B48pPafbaq3ZV67da1jY3V1ubq6saV5sZaA+ZKs66VSbXBuMCS8lUwnJDorV+8yxIeKhrnlg5k6tceDndUqrhQhs8G8QgitYap83t+w2I7QjROdaJ84sklNDIcgcmS8f64MWVWJ8eYWZJ4cu/kLKvCEktqdqwZafF0qXYkoBEQr6pnhyWTz4r+cVCttMSUxIl94aHwc2Pm5F5tSes0zTLW7GR2rh6tfcqHWJtYa03hisIyFZR1qihyW2T77ay7A9JeW8P39lcSW0/Teqbqma6nupFl7OGk1uaJI8pq5M5M1YMF+HNa1TkiegTntCPH5LabsRyTG9FsjMCsEbChzFprgv5CyT3Ps1pey3jL82obprdfdHtQ0+uSo9ldAamzHIoQprvfSUxR07aRq8ZK3lhJobUs1cr/iZJOlPJPlXXVbOAtGzWBOSAs3kscyOJ7jECMQIzA2Y+AUghnGa8AABAASURBVEqclAW78Muiw9lzBss+r+dZlqZ51k/uKpReryiK/V7RNd0eaZ00TWbPXJGEr0ImvW7S2wPKdFNX5Ild0UmeapBpzc3AOcPyK5muoDkTxKp1QwvgMRLRjzRG4NxFwB2Uc+f5CTh8EBt5P8wHMza9kLpli2MhA6+pvFByxzbbMqzceZQKD3guqhNni64tejZQtla0s1C2zVPlOJspI0hd4UyBmrO9NHFA+d+Wsdp5wDuyfGIk/AdUOf/dSGtdHzQ6JZx1IBD/oWDKWqJ/fNT7hFtTQym/91Wl1Y64oTLOczemxaq1yC8egbDamYEs3iIWXCgwgnDUJyK5nFS5BAz3vR+aobfEOjAkPiIYN7+q8moFazlzKODKsJbdiASGlS2AGfZwPsmiyR1v2HNv1CkNGA7xQ3xnq90lRYBRzihbKGd14hM36TsjRyUkfeNsQYpPnEmUBTYxSeg+djj0dOLLOluBs24ERCRmRp0fWenEhG7GMtqx0VJvevwZf3b61zg7s8qnb/EyaspVuhRahm8p1i6YEblqJUTCCz3JbtI6CZPsdEyNLprcszQjr7dWV9fWVmHSlKehlmTtTM/YwgYYWxjrD9lk55QNQvbUQdhAt1ZZkxiqAS8JWX6azH5MQTmPZp2Ti3OQnse+TOmzG1WmrHvu1BZxuBqnRewM1C3NDsiXclgan4MZnAOuPzdcKHJ2nJNyVmhQ79etSkQudJydaeQs0knu02jOp7Nocsc/FuzNBmt3v3Ln0FofB2s97QfGFS5ssPRs19oea3NSud9cIYknPrOT0OUw0CRhUa+UVfP1KNaKEYgRiBGIEUhmTu488CxB/KhfSzOerDZWVnKdciMyFKd6hjU6ud3vzXCLs47s7vZ4yuqTe+F4wKqtBZnfQreJI5WbQB1bNspnfBW2xzBhksLDKQMS1vhWGTUavp5VQ9Rh5RDuTBViOBPGOT/OSDlYVUZZwuxvqUnYVTxCxxga1+6s8qob0/Aj3ZFGR56qCllqjERVZ5wPaaJKcCWWqNY9Dn6cP+PkEorR1Dq56qt+uhnLyHblgjmMSeUqmtH8WPWqz1W+bHQCU9Wv8iQZIBJpWDoivFA5KxRlILzQ4UZFPpkejIMfDWlF6ORai58lOc9vxJJGlWLl3mg02JDJ/Bdn/BNW5N1QTFEYXoXx/0zhrDXO2oR5wzWTGJ6xkmGgKnEBPsuT4g/guGiSWE42ArG1GIEYgakjIGl6Mp3a2JIVF0ruJF+W6my1r66ukuIB+T3Pc5J7URT7RY90XlhbOOOptSrNgc5qKs2cThOdOqUDEuOsoGeKrikKayjO+Xveknt8Qc25MeWCdtd3K1wdboD6E/F1NALVEB09s9CROygLWRlTuerzEf6g0QXfxzSbzGp2nJ1p5EqKPq4NaD2NE+N0rLNkc3I6+T0NhczOOxnfWlsURVi+k6tJ1AbekMCdI+NbYxPte+a0SlJNWi9jagMHZZcGJLEsFoEQzkEyn8nSynzVL0atMghTMhej17EX5zECCyV3Urnk8f39/bW1Nfi9vb2dnR3SusQCSafTEZ4EL4xQpXxy58Wh4VbgHAkdHohQGMt2DSeAP2/Zm/dwhwW1U4d2hz9ksYgzYmcRC1JX7AgVyQC1zkdzQDjh0IVSKoSjPimFExjxROgEtRM7Vd05lVBMpuKYdLjPT65QPSvVJlLZ+RVarToNP9qw1Bx5Tk5NpOKJ0JGKIw33hSMrzCHsm/NvLKdL+OPz+ZIr5yTpQsldHGXlzp47+ZlcD08ShyKB9no9dLR/zjrYEPoAZVMUWvkPJgwZ1wB8CepGLBgBQjqM+Wz6G0KwNV/1i1GrHwQu1tdB+iv6wkd6OSNQvVJOMgKDOXeOttmTYc/9xo0bDx48uHfv3s2bN9mrYS0PWMWPM0jeB6zxWbYD+o+mT+tpqpTP9RyOguUR7FGM0oqy6SLgA65UlY6sp5QfkVJvpM7JC0t/qszJuxFbPM0InJ+2SXEAf4XCjIOqlHE608iXkNzxhPz+9ttv//73v//www/feuutZrPZbrcfP378/PnzcU6wbO8VBSt3uipAE1PQPuJXZfqBuFBvYekvy9mp6IXq/DnsjMxNoefQ/bPisjWmdMUnvZDcJKpMg/LUcpmFkjvO4Q302rVrb7755v379999990PPvhgY2MDIU9QOfvy5cuiV+hU57WcjZqapzkcz12dtc66LE1b9Za2WhmVJlnqUuXShL12HrmGr2Nrpz0S63+6IEkW8hiHZgT3mxLlF58HmFIBZhrz2h3u0VdNUR0MSxCORFWzyouyeCKrcuGFikSoSKpU6g5QFJBABfAlGOgSsks7TK1jnPsQCwtSaX2kkX4zoclhT0TiZizSULVR4SfTfq0Q6D7vkup2f8nLWaEzuuaq/S15MTXSPTklVCXJSCRjijsocr60L4eL05HOIFzc8ula8OPiHDsZnXZ7d3eXKFpnB1zyQusLzMCpuQ8XTZWlKyzeeaa6ubm5tbV15coV8vvKygr3qMIU7U6bRE+KB71eAYqix9aN0r51naal9/5y0f3RLC2XZyNzASLAsE4J6awoC3+q9JI2LvEXeklDsIxuW+dKM6Rw4skhFNihRM+ppcCn16UYYtsdXL16leR+586d69evk+LphjWJKUyn0yG/VzGyUZ1q8juvkWeDkDseCKwQZZMSIol06ggQ7QGMrIoOcqgA/ixAnCmpuKS4enR/fSCSSGMEzlQESOjT+yOX9/T6Vc2FkjtelsCJ/uJ9Y5PMDli8s/dCY4YNp5DfWcKT5T3aHfQ5BUoGvgTCA2gl8/Xg2L+XMh2ncRmz0YwP10EEdWBEInR0nVmkYkeo2B9HxapoTkOr+sJPT+WSGedJtfXpbS6i6T+Y23KuTGIWaSXWjRGoRmD+5M4ViqH+VRsu3PX19TfeeOOtt3mk+hbMzZs3ecraaK406g22aDjLvk0vfDny6vpVqreazdVmU1lnSf8W4l8s8234CMMMTNiadolzCIALRTmn+gJk4bkEbpwdVPfTZ/VKNmFnrTWsL3Z0okAI2uFHQpRFIpTDBSF2hIYBqQ5On5edbomMNCf6y6ViWag0PM4fLrkSoj+ZVv2crFk9K7X8ZV25vOVwgCbGlpBap0vL4MBIJPv0JN2qDB5ulOh7Ujl7xiWsbK01RI5rg8UV9MSgF2nJWcd1C6yz1tg8z1mt37t3j8eqH3300Ycffghz/959Ev3tO7c3NjfyLFdaocq2O7XYjgfCGJK6KTgE8DYUwzlABQBTgsMD9OsUoTI1XwdTvE5jvML4M6OtjpYW48RGSmEOFQ65qvSAP3gf1DLVchAoM4oZtjBoa1jjqIRxP0QYtclE7B9WGelWRXhkfAsz5aEYmOxJ/6yoTk2nVqSLZtQFO8LAkeE6rFTWnsRMOmdfY2vc+SP+0I8Sr7HnffGvcXZfJz9yvmwUacWhUVfxiJCeHTVxjt4465yzw/lWq4WS8LDBUrKQXRt8ZZJgDp4OSH4nm7/33nuS37/48ouPP/n4/ffev33rNuv3LM24QnhwzMPVKljRAyTkfRgBz109gsgznBaIZC4aHujOVZOmp6gnnvepf3g8qk7/tH+rqvjjo+qTva3WrfJiR2hVPg0/ucXXnJUmJ9NpnKjoHBl3hmAWTHakf7ba1ph7h+XKngfMjCOQeT5Mq0rDZydLqnVn5cdZrtoZpzNOXq07Kz+NzXE6Z1bunOPagQDy5AAcGxFaiVCHIvzC1BtYKLljAOcAjNx/6Ab5fXNzk/zOsp38/u///u9ffvHlO++8s31rm1P4b63lyWp/apHLiqIwhdybC1P4ydzzxM9if2wKE1CYooRI5qOlkekYUxw2U2Gr4iN89eDQ4cJUeVOMtmlCqZw0Vc1hvqpZ5U2lVOXT8MOtiKTq/zDPuHswtK+DGa48UVIsUMyYDldNerfLxDDG+fI8zBiVUWK0D2AM68/x94hRtaeVHTRxpCNTCqdpo2pqVv1q3Wn4qv2q/jh5VWc63hTFMMaFrqo5TmcaOelxApTqJ/cJOvOdWk5yf/nypdJsKKk0S5VSW5tbZHO2ZcAfPv70qz/9+eNPP3vw1jvvvP9Bc+1KkqCaFvsF6HaLTmd/r91xhQWd3XZvv3u4lkKj2D8IsTWFNabwgBmNwhSvgS2KuWFeZxyFavPjGqrqlDc5mP2iB2BKHIaCu+AQSrUBBiMlcGkmOGNGIjFmAOyvlZAqDM9IFNaUcKGY8Ylu4JQzdm6Ma6RwtkRVZ1ygqqNgur0pUR19CV21rSpf2MP4jPNhnLzayqz8OJs9U5So+jlOvyq3RTE3TFGUqLZbVOJTlc/KB+umsnQ0hc8mSIamVhhyOXtAK86ZmXlT+mp8saGQsnmHOsrB40NXMggPgM4cWEJyF/9wmbQuzpDoa3nt5o2bH3zwAet3+Wbk9evXSerWGDJRp9OREBe8+eAV1obuGxOiyqUFZ/wZ/15hCuPjOiCc5dAUs2gXs6rPZnxm68XM9mevMdqpMDwySH0qlofl4yRVfa6ZE4C0OEyrTQ+fjZKZInCOlMOVXRifQTyVVAMtJQNM/0IPF7QpZp56o6sYX4pQJF+TNoVZOl0ouZPKcYipAt3f34cCfHXh5iMpfn3tyq3bt9mlWV9fr9frqJHZO23/Z01dSq/bgwrpMwh6XtDzx8t/YXYmzOrBTMZPQHlW/2fUn74HMxqO6jECIyLA0nAkTFGMhDXmENZ/a8U68tMRhOxthbpKsX2ZnFkOJbWTMAVkS1orKZkTyKHI4RfB/MkdP3ARX/GDnXQYQoErHEKBCykehueoV65cuXbtGkyW51Qs0A6DUVD6Y2IQFqYQHLz7I26th/BL/dc81TtUPviwJdZwT5hIJ0bAmGIGTK971Gxh+kMdmRiBmSJweHGSf0pMk3olrZORJkB0lkurvpEe8RkKJrixlFPzJ3ecw0ucILOnabq2tgaPEMCUsElCVmUvXmu/HR+W7f4vmIowRrYwzhDJ/hexy7qIgOgYi4EDyMZvVTIdj2UUPXUOy9PDzVimt3wymjO674oZk+706jaModg/MqZy4rX0vCnMGvmoP00EqlfBuGsvXGh9RVOYUwETqYT8EYOyDpSJcQJTjcMEtdeemjO507wxJgslz3OW5BxKYzB8ECpMf2EmQqG77TYbMh1eu22RTENpa0FwEyKbkEynaW5Ah1ozYUFXl159JudRntUBqsyEWe2fX/1qWAYuqgmH1VqRnz4CTPASZfI5TabwxSdDg19kILrir+UJQ7/0U3Mmd7ZWUormleZZnqWZVn1TiNgqK/fFlu7xfAaJKwHuhxnu+EAbZwqz9nRW54/b/qz+nB39SmSmd6pSKbIXIQJkHjBN1iKpgmk0p9TpZ+Qptatq+KFTzdodCpT2X4UUBblfCXWJQ1PkrWazAXi1miI5YUqUHXfQ18AtpLNQ5WPwbFaTs/p/3PZn9efs6Fcj46aXZZ8mAAAQAElEQVQu1VqRP78RqAz4hCzHUpizOvw+LnkScLgszJ/cBzzArRI8Pi3BXCPvNxuNVqv55pt333rwoN6o//Tjj0+fPNnb20u1ZkuHtT91eRCKxBQGZao36nXkAwi/CF+jCqiPL5yt5bU84zOFB5YFpiiUVrVa3mw1aeLm9s31jfU8z4wphmHD1p1zR64ves2djCqNZgML165t3bh5Y2trEx4Jlrv9L/rwMLdAOcvzRrPZbLXq9YY4Pw2lFkgzPhEtjjTNZsBk9wgsHZEetVZXAb2eAMaaKoSFiB24sXiPzouFw7BPPwIHUTqsGyXTRIBZCUSTiw1w1Qm4Pq+uX2WSAiYs12S7vfvbb7+9ePF8Y3Pj+vXrKFC3V/TYMYaSIqheAiPwWEYHCo+Eqxo7A2jW6yXqoaDGhELI/vuLp89++uePL1++JC3Q6Lvvvru5uSnJHQlQocAsC0tL7hMcIj2S8tqdTmFCvktT+sz+++7OzqtXr7rdLjFtc9zpdNptgtvtQtjXKfybZOWSIj5AKRtguqHsh8LdAsN8KC5ouzBkXE6GM/vdXpfWO+0OQvI3CqgNowhZXz4fOuc4Eps4v8Nrd7e9u4tBrGG5y9vBdwMRotmh+CcN8kZrrwe1sEGnrLG0eMKgyQnAGWuJQYF708AURWEKQx2LVWpfUtD5KXFJA7RAty1XFxcZaaHb7e7vA6aegKnkJ94uE3WHPICwMP5/ROLOSaVut0faYQKTcAXoMJ077TaapAWUoah1u0zsPjgVzLZRG0C7Wio8xp9zJ3n+nIRjQikKbJuiKOh3mTlDblfl4eLMsSd3PnEQx729DgH+5z//+fDnnx8/fvz06bOi1+vs7RFN5E+fPXv+/Bn/nj9//o/vv/9HeEH9O4dH4MX/8CpCRlDfyk8//frro8ePn2CXyNJEu73b6RDvXe4nSF69fPn82TM+PdDuzu4Oo8XQMWzD6IVx7Xa7XDyMND4zQs+ePn38+PGTx748efKUVl4wei9eYJJGaA6g9uLFC1qhU7SCju8gb6/DkydPWFY8evTo4c8PfzzxwoeqCSC2//jhB8AI/P377z3+/v3fxwO1H0Kh4ol35Qw1OCGkA6fOkNPnxJWfHz589OgXpuJTJiIz7sVhIbEgf/z4CVOVOcUhc3+vs8eqkUwKZe4/e/oMITmdmW6KgolONiAvtdu7TGFOVYFpmb6YevL06QCejilMfNIOqcMY7PtMQlrvHRRuToBUzmNLALMsHH9yTxIWboTM963wdyp2G1i5d7tdokmK96HcoXAH3dnv7NnC+F53paByFNUjURmiJGja6nQ67bZP5YTVG+xR09/U+6c6HcZvZ5ckHNbd3S7r0QGYovDg1mRxyvQKnLc43Gl3GHXqehpeWNnZ5d/OLp3gDkLTnY6ovXpF+yiFN9gpgGPtTgc/6QjNnTB6EwvBJo44BpgkHv6Fs2PQ2UOTWifci7PW3MSgHjl51jw/+/5wdXGNAVaQTDrA9BFwinRMdvYzMLzau7vkHVMU5FNTFNRqt3e5pDmUlOqcLYxB3mHp6dPSzs4u8K+dsNPADMYg8Os5lnRV0NgQaJYZXYRNC5ooisIYWiauPRNKUXgJp5aOY0/u4nFhyIyu2Wptsc+0sUFybzSaW9d8gWEHCmxdv77Brtj1a6urq3mthvLaGmyr1YLtg+14ELaz6hgZANtbJdbX17F/6/btN998k2Y2Nv22ODvjgO3sTrvNIDGEjCUeUss/DmazbQiu8nE6z/2XPvM8c84V+10oDqy2Whi/tb198+Y2xjc3Nq5evdpqNuuNuu9U2I5fW1tDyKlpsH71KnaostpabcxY/O4+MVtbw8LVuQrtTsaqnPZvvIAcj6Zsy7eaTYYs9KPJKLJNT5253ZurT6dTiT6WGB2dUdKyytRMVDyMwNoaF9cqx7wzPXde+A1uU/Q67Xan3WG+k2dZw6HAtcis393ZYfoDFvJZnnNxcopJzbNAqgOq9LpdEg5XMtMZ0MDaWphfTNQBVC609StXBRtXrpIimMtYgF7f3Nq8un51dW212cIO7dIKC/Zq4sGfpeAkknuWZoTszu07pDais33r1h0OPMLrzu3bdyiB3Lkd/t15IxQewJKa7w6Ve3fvDiPUeIPqgpvbPt3eJOPeunX7zp3bt27fuHGTdE9AyTWMK+Fj5EJkFePN4WsRllj+sQFDkq3USFj0a31jgztW6Ne2+CD07t27N27c2L51a1bcun0bb+/g9B3/sw1ibXpKRapvb8/c7vYUrs7t2x1fbt++devO7Tu4h53tKZqLOjECc0SAyeK/5sB6bv0q28Jplus0dc7KY+00y3web5EG/Hf2WN0z8ZFwTFqv1xuoWedYWnOKLL+6tkbiun3nDunowVtvvf3221zGI3GrUm5zlQdwqd8OBxzBk9CgZIatrU0WoCQikolOjyUPH4tRglVFmqYb6+t37939wx8++uTTT7/68stvvvk2wL/BcAD9xpdvEX37DeSb77799l/+5S//OnX53/793//85z/7mqE+rXz51VdfffnVl198Af30008+/PDD999779b29sbGJrfoer3Oqpz8bp1j2c4G3GvBZgmXCMtP7hz379175513P/jd7/7whz98+umnX9CpP//5L3/57ru//AUCxX/8+dPXf5oV1JJefPvdd94O9qbGt999K3Ux0m/3TzOWiQ5jVuzP5dt31MIC6Ps2sa2oEyMwQwQqlznT/MH9+ywnyKFXr65nWUoOzUOBAbC1lRW2BBoNn99ZpbWa5Hb/H8aRZ0n06GityRKbW1vcKt566y3m+OdffE4j/dk9akr+pVoOpy6z+DupBcUIuej3v//9e++9T3LPsqxMlaQjQSlZkDn25G6ThDZqWU5+/+jjj/74xz+SB7/++iuPr/wbzFdfUwJB8BWvr2XWE0oSQUj13x6l34wsvuZXXwv9nCh+3iewn332Ga2T399999179+9xF2XY6o064SO/k7JNwdbRCFieGBxgd7fNbeDa1jUunffef/93v/vgo5DZMf7lF1/g6rffkl15fffdt99+8+233GvowhzAFB3EyKz4lmrffEP1P3/z5znanVxFzmKcRmZ1jCrA1/32G3wDYi3SGIGlR+Cjjz7+3e9+984777BMJjVfvcr6nRVmRtb2y/Y0ZW1eze+NZpNszqk8y1mqcxYgIWWxo8tN4t69+7/7wC/jPvn4EzLYt998MxLfjCykAtQ9/Yb3Dz/8wwfvf4BvrNzxgVtIqlOy0HGAxHscZg9tKud/N8Y5R36/tr75+ad//PqLL//w+w///V//7Y+ffPK7996H/+yTT7/8/Itv//Tn77759s9ff43CV59/4cF94PMvvvjsswF8/sfPBvDZp3/89ONPvvvmG6r/6auvwNdffvnFHz/7+MM//P6D37339jtCb2/fun/33o2ta9yjTbfX7ezh1fralbXW6jisrrZKcKtnFbC+sc6l88nHH3Or4Pb79ltvwxzgD9yTP/7oI9L9V19+yceGCfha7kKBVpf3X3/1FbcKLPAp5+NPPhnApx9/MoA/fvJpCcLy5WefE7qvv/iSIACY2fD1V1XHBviv6NQXX3zx+ee4x1UOPp+u0CNAdfHt6wP38HC5GHD41A+X27tha6fewQEHhj1crmSgufKQy/DTT/yn8w/ef/+Pf/z0d7///f0HD9gAaYbtF9bjzln/bHNnp80H8L09tljZeIGy2c1uDJndOUdK6PVY5fmvS2qdcjNgJccd4r3333v3vXe57JmnXPncPIBMTJmMMgFZ3Zf4mIQk+PSTjwM+4fDTT7/8+qvPvvzi/ttvNVdX2cttNpvBN8eavUya8EAOXSjCz0qPPbnjEO5BAd3gfnjzxs2PP/74HnfD+/0CX6IvCm+lcIAJJ48QNsLee+897q4fffSRxJcVegnu3owQgOEjGD6wz4VX1to0TZFMBJ/X+iDNo8kGHPvpd9lmAmHvn8tI8ODBfVopcZdduvEo1QJzqItlrPkevfsuHzAHQDcH8M4776DMJ8cHDx4MBGqOQ1o/Vszh0kxVjtX5OYzP5PwcynO4dKxV5ujCTFVGOk8ueXCf/fC33nrAv7fYpmf3VdCo12u1XCtVGMOncLbR27v+S3S7OzskeTI5eQmJfOer027v7IbvxLx61enwMV3x4f5KKExSsofMZnI9kIk5MBmHD98/KJyCZZ7SX0yR2WkakIugx4GTSO5Vv+kJKZ5bJVmSXW8Bh4CcC/WSgxeHI3Fw/vCdunme83FL636PVitlrVIQUw01Mjv5vSiKdru9N6l09mTk9zpcGShqnTIw169fu35QWtx/V+ppolbyWqsVno0LLdf8IxnRCXS12SxBZOg1T6GJFR6+FqihTAToF46cMFqNxkw4Yfdic5chAlyBTJ8rq/47aevswnjw7sHj0Hq9obVmHhnjv/v46tXO02fPAAt5ZrZM6nZ7F+xI3t/1CYHdWlJELa+tra7dvHGDHZvMp5g0Fy7jzSN/XaFpZihUFFvNVr1eR1LNisJbZwVyuDjtp8LFDU1jgfiCaTSXq0O6JKBAGPIgsRZP+FxGvt4dX/x47+4K5Q7PBcFz10azGYC9Bqt6LOz3uvjcM8Yl7EMdwDo3ARVNnkyUYEi4T+RpypYRd4sB4PwAuGjkrjbyisGriBiBSxKBTGt21Nd8Iat7yMqdR2XMRJ6dkcpZku/u7AD2Z5jLPGzzwr293d12p+3/EyHuAYUx7M+Q2dnVYWHWbLZY/nNIGPO8hoJHUVC3CMUUXjCSOpJBwlR3KFrLLPe8aHKqD4t3VniaWBbIJMsy9Ro7uI4GnaCTwnMoubXT8YviUkjPSZcIuXmiIEBYghiNBBYEnEVZKkJpKMuyVottlVVu6qTkra0t//2kW7fI+M+fP3/8+DFqI8HGXImXL192uz2W1RjhQTzPW+CxwLNZLimf2Z01dK/X64bCgFs+CgaIY1UaxF7fVyn4gNhHt+iBXigmXDQ2lGrdY+S59mYBV+tIEPOROEbPxfQszh+5Ey9WkWdLIyFOHSNdzO25IzCyswiPsadielR/TeJKsIfOKmdlZYUMz4Rfp2xs8JwM5FlWr/ufhNrY2NzY3ESBdVJKamB9lOU69cmQumTZVrN5587ttbVV/9cr27e2tjavXl2vh+9fMBfRCWCzR2vl4Rv1R9xEBoHXVIFKO0wKZ/1jSBgyAHJgEfF2cBvgkLOC0JASflbq+zNrnbn16ULV75nsULGEGVMIlsCf9xxR9aAhYkQiJr+zlXL37l22vQA8aZqNmpCKX09swb3f8CS9Xq9vbW6xMMBmo+G/TUUTxwG6XBj/J8vc57jhnQQOd6HK7aiJzP7e3kjsnVKZ1f9l6Z9Sd9lYOB2cmf4yb4tezxQFM17mILNybW2NJRcTnGeq4Tvp/qvm13zZ8uTaFqdYnx3i5o2b/uAmcjbr2RO/d//+e++/z9Mv//OC6xusTwttNgAACsRJREFU3/k87dcx1j9ulYbmoAO3gTksTF/lRJM7bsmNDkbAIWlXIBKhIoGiMD3KwFGFuiVMYeAZcpL73bt3Hzzwz16gwvNAUp518LhjGAxwibffRfcd7gx37txZW1vFIHsyfBIUn4WGG3ffERpFGCTc1jk6Ak4BzYJBpwc6qPWhw4oAhYgYgRiBmSLQqK3wEPTa1jXW3aTpgDvQ+w/8xL//gIevD+6zuLt7N3wfwtO7Uu757zWg8N577/8+lAf379++dRtrfAjAB5aKUBbZTFgYIFMdZhEw2aupwR/qOVfrVTdOOrlX2yZGHEqvYKoQIbQqnJtn/UtdrJGOt7b8rfvu3bv3uTO/994f//jHf/mXf/lv/+2//ef//J//99eV/+O///d/+7d/++yzzz54/31Mkdn5WIfl4wPDLA9La3mNjwsnATYpZ8JKvT4SJ+HrqDZmcn4pymJklC8nIZPWT56eRN9GtTHU0zzj+RSzJGOZVM5EnlSx/GLxHtbjrMn9O0uzt99+G8oijRV9FWRwDlnjb9/aZul2//69tx689eGHH6LPyp2dd1m2S8piQVY2tESGBLVEa5g6ueSO69zlaFIgYYJHrinKP87mxgiqQqqUQD49SItYFqT+j48dPLvtXC8PHjz43e9+xyL9T3/607ehfPfdd//pP/0nEvdk/Jf/8l/I/9zRsyxnAx/wdIVPaiphma25tti/w0Pu6ioU4aElpC9yGFRUlU+VKiGa2PRIVKq1cgkQ/bNJuZhKHPHQ8UTpAEdOnO8D7ZIS1Z4wTCWq8vPOl52Fqfal7CxMVX4yvGZqHF3n2tBws9Uiqd+7d//TTz/9y1++Y7J//fXXn3/++ccffUTW7v/VxZdffvG5/6ONz8Nfn373l7/8+c9//td//VfoRx9/xBKQXRoyBmu4gsQUHocqPzPVkovGqO8G74ADeiBNwMwNJuPcdReqSHIHmKAzAEbAvjwMElB2Esl8wAggTNXqLLpZv3/00Ufk9BIs4afExx/+oWot8jECMQKnGAGeCQ+0joT8zlp7bW2Ndfr7H3xA1v4/pyj/43/8j//5P//nf/2v//Wbb77hlsCuDrsxZPbSPpnE4+i9pDy7CEOuK7GInWrdk07u0oHSAzkUWgphROLjWH3pcNecQEvloOPTemAwWAXPxhn1jY2Nm5WyHX5njFv9ONy84R+23Lhxs2pqmBcXtF9vp7iLgkj6PUqUAsGrvqTKq8FC9QoiGyMQIzBVBMr83mo0rl+7zv47uytM4Zv+jaR9BOXBndt37r3x5t07b2zfurW12f86De3xqFZWovCCcvLK4YJ0cNqH4wVtUv2kkztNngVoreWGzJiVwLEQ1aOEXBxApHxeVgq1iBiBGIEzHgHJ7zipWD8pxUKeKczED+su7akOJYXy8rDWtPf3Ot19sjlbrFmeUx3eOT4JwJ4z0N+T81hNUxgJfSSBuvD1T7x8bW10BGjCMKjQyUBzMsrqMrxcCMKU8pJRifLQqmxXhVIqwHDBAZjXgu3LElXlUghTlZ85fsw+O26XOHM+L+BQ2SmYqhkOS1Tl550vOwVT7QuHJaryU+GZa8xWZqVMW3jc4FAADzyvFbmeyap1WvP/93I/p5PWgddhSisFc74wOrmfrz5Eb2MEYgRiBGIEBiIQk/tAQJZz6O/0+vzd6pfT+WglRuCcR0ANlfPYoZjcz+OoRZ9jBM5+BKKHpxyBM5fcq7fMRWIzbIe9+xJiuTycwCjnZoJ2h999TpUqUZWP48UroU4lr4VoLpeO822cvBqcI2Ec9Rsg7IFWO7Vcz8XaOD+PQy4tCq32axwvmsulx9GvcTarno/rY1Ve1V8WP863cfLq9TmOl7rlVIUhLQ4AYQnRF7qsfh2HHbpwHGajzRiBGIEYgRiB04zAJU3ussY8zcDHtpcXgWgpRmC5Eah+7hd+ufZPxtolTe4nE9zYSoxAjECMwGlFICb304p8bDdGIEYgRuAYIxCT+yzBjboxAjECMQLnJAIxuZ+TgYpuxgjECMQIzBKBmNxniVbUjRGIEYgRWCwCJ1Y7JvcTC3VsKEYgRiBG4OQiEJP7ycU6thQjECMQI3BiEYjJ/cRCHRuKETjZCMTWLncEYnK/3OMfex8jECNwQSMQk/sFHdjYrRiBGIHLHYGY3C/3+C+n99FKjECMwJmLQEzuZ25IokMxAjECMQKLRyAm98VjGC3ECMQIxAicuQics+R+5uIXHYoRiBGIETiTEYjJ/UwOS3QqRiBGIEZgsQjE5L5Y/GLtGIEYgXMWgcvibkzul2WkYz9jBGIELlUEYnK/VMMdOxsjECNwWSIQk/tlGenYz5OPQGwxRuAUIxCT+ykGPzYdIxAjECNwXBGIyf24IhvtxgjECMQInGIEYnI/xeAvr+loKUYgRiBG4GgEYnI/Go94FCMQIxAjcCEiEJP7hRjG2IkYgRiBGIGjEZg1uR+tHY9iBGIEYgRiBM5kBGJyP5PDEp2KEYgRiBFYLAIxuS8Wv1g7RiBGYNYIRP0TiUBM7icS5thIjECMQIzAyUYgJveTjXdsLUYgRiBG4EQiEJP7iYQ5NnI6EYitxghc3gjE5H55xz72PEYgRuACRyAm9ws8uLFrMQIxApc3AjG5L2fso5UYgRiBGIEzFYGY3M/UcERnYgRiBGIElhOBmNyXE8doJUYgRiBGYLEILLl2TO5LDmg0FyMQIxAjcBYiEJP7WRiF6EOMQIxAjMCSIxCT+5IDGs3FCJz9CEQPL0MEYnK/DKMc+xgjECNw6SIQk/ulG/LY4RiBGIHLEIGY3C/DKJ9eH2PLMQIxAqcUgZjcTynwsdkYgRiBGIHjjEBM7scZ3Wg7RiBGIEbglCJwYZL7KcUvNhsjECMQI3AmIxCT+5kcluhUjECMQIzAYhGIyX2x+MXaMQIxAhcmAherIzG5X6zxjL2JEYgRiBEIEYjJPYQhkhiBGIEYgYsVgZjcL9Z4xt6cjwhEL2MEjj0CMbkfe4hjAzECMQIxAicfgZjcTz7mscUYgRiBGIFjj0BM7sce4tNtILYeIxAjcDkjEJP75Rz32OsYgRiBCx6BmNwv+ADH7sUIxAhczggsL7lfzvjFXscIxAjECJzJCMTkfiaHJToVIxAjECOwWARicl8sfrF2jECMwPIiEC0tMQIxuS8xmNFUjECMQIzAWYlATO5nZSSiHzECMQIxAkuMQEzuSwxmNHV+IhA9jRG46BGIyf2ij3DsX4xAjMCljEBM7pdy2GOnYwRiBC56BGJyP+4RjvZjBGIEYgROIQIxuZ9C0GOTMQIxAjECxx2BmNyPO8LRfoxAjECMwGIRmKt2TO5zhS1WihGIEYgRONsRiMn9bI9P9C5GIEYgRmCuCMTkPlfYYqUYgYsZgdirixOBmNwvzljGnsQIxAjECJQRiMm9DEVkYgRiBGIELk4EYnK/OGN5vnoSvY0RiBE41gjE5H6s4Y3GYwRiBGIETicCMbmfTtxjqzECMQIxAscagUuQ3I81ftF4jECMQIzAmYxATO5ncliiUzECMQIxAotFICb3xeIXa8cIxAhcggicxy7G5H4eRy36HCMQIxAj8JoIxOT+mgDF0zECMQIxAucxAjG5n8dRiz5f3AjEnsUILCkCMbkvKZDRTIxAjECMwFmKQEzuZ2k0oi8xAjECMQJLisD/DwAA//8omCmzAAAABklEQVQDALxSKO6UEQFHAAAAAElFTkSuQmCC;" vertex="1" parent="1">
          <mxGeometry x="15" y="440" width="110" height="110" as="geometry" />
        </mxCell>
        <mxCell id="nI9gcsERnPsX8lZMe_xD-10" value="" style="image;html=1;image=img/lib/clip_art/computers/Workstation_128x128.png" vertex="1" parent="1">
          <mxGeometry y="960" width="80" height="80" as="geometry" />
        </mxCell>
        <mxCell id="nI9gcsERnPsX8lZMe_xD-11" value="" style="image;html=1;image=img/lib/clip_art/computers/Workstation_128x128.png" vertex="1" parent="1">
          <mxGeometry x="120" y="960" width="80" height="80" as="geometry" />
        </mxCell>
        <mxCell id="nI9gcsERnPsX8lZMe_xD-12" value="" style="image;html=1;image=img/lib/clip_art/computers/Workstation_128x128.png" vertex="1" parent="1">
          <mxGeometry x="240" y="960" width="80" height="80" as="geometry" />
        </mxCell>
        <mxCell id="nI9gcsERnPsX8lZMe_xD-13" value="" style="image;html=1;image=img/lib/clip_art/computers/Workstation_128x128.png" vertex="1" parent="1">
          <mxGeometry x="360" y="960" width="80" height="80" as="geometry" />
        </mxCell>
        <mxCell id="nI9gcsERnPsX8lZMe_xD-14" value="" style="image;html=1;image=img/lib/clip_art/computers/Workstation_128x128.png" vertex="1" parent="1">
          <mxGeometry x="480" y="960" width="80" height="80" as="geometry" />
        </mxCell>
        <mxCell id="nI9gcsERnPsX8lZMe_xD-19" value="" style="image;html=1;image=img/lib/clip_art/computers/Network_128x128.png" vertex="1" parent="1">
          <mxGeometry x="720" y="20" width="80" height="80" as="geometry" />
        </mxCell>
        <mxCell id="nI9gcsERnPsX8lZMe_xD-20" value="" style="image;html=1;image=img/lib/clip_art/computers/Server_128x128.png" vertex="1" parent="1">
          <mxGeometry x="500" y="360" width="80" height="80" as="geometry" />
        </mxCell>
        <mxCell id="nI9gcsERnPsX8lZMe_xD-21" value="" style="shape=mxgraph.cisco.routers.10700;sketch=0;html=1;pointerEvents=1;dashed=0;fillColor=#036897;strokeColor=#ffffff;strokeWidth=2;verticalLabelPosition=bottom;verticalAlign=top;align=center;outlineConnect=0;" vertex="1" parent="1">
          <mxGeometry x="722" y="347" width="78" height="53" as="geometry" />
        </mxCell>
        <mxCell id="nI9gcsERnPsX8lZMe_xD-22" value="" style="shape=mxgraph.cisco.switches.multiswitch_device;sketch=0;html=1;pointerEvents=1;dashed=0;fillColor=#036897;strokeColor=#ffffff;strokeWidth=2;verticalLabelPosition=bottom;verticalAlign=top;align=center;outlineConnect=0;" vertex="1" parent="1">
          <mxGeometry x="302" y="716" width="101" height="64" as="geometry" />
        </mxCell>
        <mxCell id="nI9gcsERnPsX8lZMe_xD-24" value="" style="endArrow=classic;html=1;rounded=0;" edge="1" parent="1" source="core_switch" target="nI9gcsERnPsX8lZMe_xD-23">
          <mxGeometry width="50" height="50" relative="1" as="geometry">
            <mxPoint x="364" y="555" as="sourcePoint" />
            <mxPoint x="364" y="440" as="targetPoint" />
          </mxGeometry>
        </mxCell>
        <mxCell id="nI9gcsERnPsX8lZMe_xD-23" value="" style="shape=mxgraph.cisco.switches.multiswitch_device;sketch=0;html=1;pointerEvents=1;dashed=0;fillColor=#036897;strokeColor=#ffffff;strokeWidth=2;verticalLabelPosition=bottom;verticalAlign=top;align=center;outlineConnect=0;" vertex="1" parent="1">
          <mxGeometry x="314" y="540" width="101" height="64" as="geometry" />
        </mxCell>
        <mxCell id="nI9gcsERnPsX8lZMe_xD-25" value="" style="shape=mxgraph.cisco.switches.multiswitch_device;sketch=0;html=1;pointerEvents=1;dashed=0;fillColor=#036897;strokeColor=#ffffff;strokeWidth=2;verticalLabelPosition=bottom;verticalAlign=top;align=center;outlineConnect=0;" vertex="1" parent="1">
          <mxGeometry x="320" y="360" width="101" height="64" as="geometry" />
        </mxCell>
        <mxCell id="nI9gcsERnPsX8lZMe_xD-26" value="" style="shape=mxgraph.cisco.security.firewall;sketch=0;html=1;pointerEvents=1;dashed=0;fillColor=#036897;strokeColor=#ffffff;strokeWidth=2;verticalLabelPosition=bottom;verticalAlign=top;align=center;outlineConnect=0;" vertex="1" parent="1">
          <mxGeometry x="720" y="548" width="29" height="67" as="geometry" />
        </mxCell>
        <mxCell id="nI9gcsERnPsX8lZMe_xD-28" value="" style="endArrow=classic;html=1;rounded=0;entryX=0.5;entryY=0.1;entryDx=0;entryDy=0;entryPerimeter=0;" edge="1" parent="1" source="vpn" target="nI9gcsERnPsX8lZMe_xD-27">
          <mxGeometry width="50" height="50" relative="1" as="geometry">
            <mxPoint x="760" y="140" as="sourcePoint" />
            <mxPoint x="762" y="236" as="targetPoint" />
          </mxGeometry>
        </mxCell>
        <mxCell id="nI9gcsERnPsX8lZMe_xD-27" value="" style="shape=mxgraph.cisco.wireless.wireless_transport;sketch=0;html=1;pointerEvents=1;dashed=0;fillColor=#036897;strokeColor=#ffffff;strokeWidth=2;verticalLabelPosition=bottom;verticalAlign=top;align=center;outlineConnect=0;" vertex="1" parent="1">
          <mxGeometry x="723.5" y="176" width="77" height="54" as="geometry" />
        </mxCell>
        <mxCell id="nI9gcsERnPsX8lZMe_xD-29" value="CEMH" style="text;html=1;whiteSpace=wrap;strokeColor=none;fillColor=none;align=center;verticalAlign=middle;rounded=0;" vertex="1" parent="1">
          <mxGeometry x="767" y="1139" width="60" height="30" as="geometry" />
        </mxCell>
      </root>
    </mxGraphModel>
  </diagram>
</mxfile>
